<svg width="47" height="44" viewBox="0 0 47 44" fill="none" xmlns="http://www.w3.org/2000/svg">
<path fill-rule="evenodd" clip-rule="evenodd" d="M26.6087 26.0965C27.0339 25.7064 27.4292 25.2852 27.7908 24.8368C28.8988 26.4815 30.3951 27.8635 32.1614 28.8453L30.1294 29.6991C29.4031 30.0012 28.8644 30.4497 28.4316 31.0965L26.8587 33.4571C25.916 34.8735 24.2036 35.4826 22.5538 34.9963L19.7978 34.1795C19.0474 33.9529 18.3403 33.9529 17.59 34.1795L14.8339 34.9963C13.1841 35.4826 11.4717 34.8735 10.5291 33.4571L8.95621 31.0965C8.52329 30.4497 7.98457 30.0012 7.25826 29.6991L4.61764 28.5895C3.03514 27.9238 2.12123 26.3706 2.32326 24.6945L2.66481 21.89C2.76096 21.1206 2.63595 20.4407 2.28484 19.7514L0.986079 17.2302C0.206918 15.7241 0.524393 13.9584 1.77977 12.8017L3.8769 10.8707C4.45412 10.3419 4.80524 9.7423 4.98318 8.99158L5.64212 6.23913C6.03175 4.59613 7.43143 3.4441 9.14858 3.34973L12.0201 3.19392C12.8089 3.15142 13.4727 2.91532 14.098 2.45267L16.402 0.757785C17.7823 -0.252595 19.6054 -0.252595 20.9857 0.757785L23.2898 2.45267C23.9199 2.91532 24.5788 3.15142 25.3676 3.19392L28.2391 3.34973C29.9563 3.4441 31.356 4.59613 31.7456 6.23913L31.8708 6.76182L26.6103 8.97516C26.4885 9.02638 26.376 9.09195 26.2745 9.16943C24.242 7.44406 21.5923 6.40038 18.6939 6.40038C12.2902 6.40038 7.1001 11.4948 7.1001 17.7804C7.1001 21.0624 8.51507 24.0196 10.7791 26.0965C11.5597 22.5085 14.8075 19.817 18.6939 19.817C22.5802 19.817 25.8281 22.5085 26.6087 26.0965ZM30.5496 31.1625L34.646 39.8025C34.7037 39.9205 34.6893 40.048 34.6074 40.1472C34.5305 40.2511 34.4103 40.2983 34.2804 40.2746L29.1242 39.3917L26.4883 43.8345C26.4258 43.9431 26.3104 44.0044 26.1805 43.9997C26.0506 43.995 25.9448 43.9241 25.8871 43.8061L22.4297 36.5172C24.639 37.0343 26.8793 36.1703 28.1388 34.2781L29.71 31.9199C29.9331 31.5868 30.2019 31.3402 30.5496 31.1625ZM14.958 36.5172L11.5006 43.8061C11.4477 43.9241 11.3371 43.995 11.2072 43.9997C11.0773 44.0044 10.9619 43.9431 10.8994 43.8345L8.26831 39.3917L3.10729 40.2746C2.97742 40.2983 2.85719 40.2511 2.78026 40.1472C2.69845 40.048 2.68402 39.9205 2.74175 39.8025L6.83815 31.1625C7.18582 31.3402 7.45465 31.5868 7.67771 31.9199L9.24931 34.2787C10.5084 36.1704 12.7487 37.0343 14.958 36.5172ZM18.6939 18.879C16.4412 18.879 14.5995 17.0712 14.5995 14.8601C14.5995 12.649 16.4412 10.8411 18.6939 10.8411C20.9465 10.8411 22.7882 12.649 22.7882 14.8601C22.7882 17.0712 20.9465 18.879 18.6939 18.879ZM36.8242 6.31071L46.4358 10.3547V17.9835C46.4358 23.2922 42.4996 27.8795 37.1745 28.7907L36.8242 28.8508L36.474 28.7907C31.1489 27.8795 27.2126 23.2922 27.2126 17.9835V10.3547L36.8242 6.31071ZM37.1252 8.34966C36.933 8.2689 36.7154 8.2689 36.5232 8.34966L29.4664 11.3165C29.1852 11.4348 29.0029 11.7061 29.0029 12.0064V17.9835C29.0029 22.4043 32.2664 26.2391 36.685 27.0426C36.777 27.0593 36.8713 27.0593 36.9635 27.0426C41.3846 26.2391 44.648 22.4043 44.648 17.9835V12.0064C44.648 11.7061 44.4657 11.4347 44.1844 11.3165L37.1252 8.34966ZM36.8243 9.8559L43.119 12.5014V17.9835C43.119 21.6377 40.4546 24.8132 36.8244 25.5402C33.1962 24.8132 30.532 21.6377 30.532 17.9835V12.5014L36.8243 9.8559ZM32.6622 18.2027L35.0773 20.5733C35.3759 20.8664 35.8599 20.8664 36.1585 20.5733L40.9887 15.8322C41.2871 15.5393 41.2871 15.0638 40.9887 14.7708C40.6903 14.478 40.2059 14.478 39.9075 14.7708L35.6179 18.9814L33.7434 17.1415C33.4451 16.8486 32.9605 16.8486 32.6622 17.1415C32.3638 17.4344 32.3638 17.9099 32.6622 18.2027Z" fill="white"/>
</svg>
