<svg width="158" height="60" viewBox="0 0 158 60" fill="none" xmlns="http://www.w3.org/2000/svg">
<path fill-rule="evenodd" clip-rule="evenodd" d="M7.14648 3.22888V9.35648C7.14648 9.54237 7.22889 9.70219 7.37957 9.81034C7.53044 9.9185 7.70803 9.94455 7.88358 9.88416C13.5408 7.9442 19.4619 6.97361 25.3997 6.97361C31.3374 6.97361 37.2588 7.9442 42.916 9.88416C43.0917 9.94455 43.2691 9.9185 43.4203 9.81034C43.571 9.70219 43.6531 9.54237 43.6531 9.35648V3.22888C43.6531 2.98047 43.4974 2.76898 43.2601 2.69604C37.4275 0.899014 31.4058 0 25.3997 0C19.3939 0 13.3722 0.898925 7.53958 2.6956C7.30214 2.76897 7.14648 2.98003 7.14648 3.22888Z" fill="#FF006E"/>
<path fill-rule="evenodd" clip-rule="evenodd" d="M43.6523 10.7007V30.2445C43.6523 30.5515 43.9026 30.8021 44.2093 30.8021H50.0577C50.3642 30.8021 50.6146 30.5516 50.6146 30.2445V10.7007C50.6146 10.3937 50.3642 10.1431 50.0577 10.1431H44.2093C43.9025 10.1431 43.6523 10.3937 43.6523 10.7007Z" fill="#3C72FC"/>
<path fill-rule="evenodd" clip-rule="evenodd" d="M7.14587 30.8021V10.7007C7.14587 10.3937 6.89574 10.1431 6.58922 10.1431H0.740517C0.433995 10.1431 0.183594 10.3936 0.183594 10.7007V30.8021C0.183594 37.6485 2.85439 44.0584 7.17562 49.1854C11.7431 54.6048 17.8586 58.3261 24.7117 59.9833C24.8834 60.025 25.0481 59.9885 25.1867 59.8795C25.3254 59.7701 25.3991 59.6181 25.3991 59.4413V53.4244C25.3991 53.173 25.24 52.9601 24.9992 52.8894C20.1204 51.4554 15.7121 48.527 12.4789 44.6911C9.18285 40.7809 7.14587 35.9344 7.14587 30.8021Z" fill="#3C72FC"/>
<path fill-rule="evenodd" clip-rule="evenodd" d="M34.9266 40.6013H25.9587C25.6499 40.6013 25.3984 40.8536 25.3984 41.1624V50.145C25.3984 50.4543 25.6499 50.7061 25.9587 50.7061H34.9266C35.2351 50.7061 35.4866 50.4543 35.4866 50.145V41.1624C35.4866 40.8536 35.2351 40.6013 34.9266 40.6013Z" fill="#FF3334"/>
<path fill-rule="evenodd" clip-rule="evenodd" d="M41.495 32.1618H37.7685C36.2302 32.1618 33.4024 29.3282 33.4024 27.7882V23.0216C33.4024 22.7128 33.1505 22.4604 32.842 22.4604H25.9588C25.6503 22.4604 25.3984 22.7128 25.3984 23.0216V29.9162C25.3984 30.225 25.6503 30.4773 25.9588 30.4773H30.7182C32.2559 30.4773 35.0843 33.3097 35.0843 34.8505V38.5831C35.0843 38.8924 35.3355 39.1438 35.644 39.1438H41.4951C41.8036 39.1438 42.0549 38.8924 42.0549 38.5831V32.7225C42.0548 32.4137 41.8035 32.1618 41.495 32.1618Z" fill="#FB5507"/>
<path fill-rule="evenodd" clip-rule="evenodd" d="M23.6989 32.1804H18.8977C18.6443 32.1804 18.4375 32.3876 18.4375 32.6417V37.4504C18.4375 37.7044 18.6443 37.9116 18.8977 37.9116H23.6989C23.9523 37.9116 24.1591 37.7045 24.1591 37.4504V32.6417C24.1591 32.3876 23.9523 32.1804 23.6989 32.1804Z" fill="#FFBE0C"/>
<path d="M151.167 24.5418C151.742 23.5712 152.29 22.6006 152.811 21.6296C153.335 20.6555 153.814 19.6779 154.252 18.6934H157.787C157.006 20.2303 156.197 21.7186 155.362 23.1595C154.526 24.6 153.643 26.0475 152.711 27.5018V32.9559H149.506V27.5431C148.574 26.0886 147.687 24.6343 146.845 23.1799C146.003 21.7254 145.191 20.2303 144.41 18.6934H148.129C148.568 19.6779 149.04 20.6555 149.544 21.6296C150.05 22.6006 150.592 23.5712 151.167 24.5418ZM143.198 18.6934V21.4306H138.903V32.9559H135.698V21.4306H131.403V18.6934H143.198ZM126.144 18.6934H129.349V32.9559H126.144V18.6934ZM116.795 21.2661C116.562 21.2661 116.353 21.273 116.168 21.2864C115.983 21.3003 115.808 21.3138 115.644 21.3277V25.1967H116.548C117.753 25.1967 118.616 25.046 119.137 24.7441C119.657 24.4423 119.918 23.9277 119.918 23.2003C119.918 22.5007 119.654 22.0034 119.127 21.7086C118.599 21.4137 117.822 21.2661 116.795 21.2661ZM116.61 18.5288C118.746 18.5288 120.383 18.9097 121.52 19.671C122.657 20.4327 123.226 21.6161 123.226 23.2212C123.226 24.2231 122.997 25.0356 122.538 25.6601C122.078 26.2842 121.418 26.7749 120.555 27.1315C120.842 27.4885 121.144 27.8967 121.459 28.3562C121.774 28.8161 122.085 29.2959 122.394 29.7966C122.702 30.2978 123 30.8189 123.287 31.3609C123.575 31.9029 123.842 32.4344 124.089 32.956H120.507C120.243 32.4896 119.979 32.0163 119.712 31.5359C119.442 31.0557 119.168 30.5892 118.887 30.1363C118.606 29.6838 118.325 29.2552 118.051 28.85C117.777 28.4456 117.5 28.0782 117.226 27.7491H115.644V32.956H112.439V18.8994C113.137 18.7621 113.86 18.6662 114.606 18.611C115.353 18.5561 116.021 18.5288 116.61 18.5288ZM103.48 33.2439C102.48 33.2439 101.617 33.1036 100.891 32.8222C100.165 32.5408 99.5655 32.1499 99.0931 31.6493C98.6205 31.1485 98.2709 30.5514 98.045 29.8587C97.8189 29.1656 97.7059 28.4008 97.7059 27.5635V18.6935H100.911V27.2965C100.911 27.8728 100.976 28.3631 101.107 28.7679C101.237 29.1726 101.415 29.5018 101.641 29.7558C101.867 30.0095 102.141 30.1913 102.463 30.3013C102.785 30.4107 103.137 30.4659 103.521 30.4659C104.302 30.4659 104.935 30.2258 105.422 29.7454C105.908 29.2651 106.151 28.4487 106.151 27.2965V18.6935H109.357V27.5635C109.357 28.4008 109.24 29.1691 109.007 29.8687C108.774 30.5687 108.418 31.1689 107.939 31.6696C107.459 32.1704 106.85 32.5581 106.11 32.8326C105.37 33.1066 104.493 33.2439 103.48 33.2439ZM91.0898 33.2439C88.7747 33.2439 87.0111 32.599 85.7989 31.3096C84.5864 30.0198 83.9803 28.188 83.9803 25.8143C83.9803 24.6343 84.1652 23.5812 84.5351 22.6553C84.9049 21.729 85.4117 20.9469 86.0556 20.3089C86.6995 19.6709 87.4665 19.1876 88.357 18.858C89.2472 18.5288 90.2129 18.3638 91.2541 18.3638C91.8568 18.3638 92.4048 18.4085 92.8978 18.498C93.391 18.587 93.8226 18.6899 94.1923 18.8068C94.5623 18.9232 94.8704 19.0434 95.1171 19.1668C95.3636 19.2906 95.5418 19.3866 95.6513 19.4547L94.7267 22.0482C94.2883 21.815 93.7782 21.6161 93.1959 21.451C92.6139 21.2864 91.9526 21.2044 91.2129 21.2044C90.7199 21.2044 90.237 21.2865 89.7644 21.451C89.2918 21.616 88.8741 21.8801 88.5112 22.2436C88.1481 22.6071 87.8569 23.077 87.6378 23.6533C87.4186 24.2295 87.3091 24.9297 87.3091 25.7526C87.3091 26.4114 87.3809 27.0255 87.5248 27.5948C87.6688 28.1641 87.9016 28.6545 88.2233 29.0662C88.5452 29.4779 88.9667 29.8036 89.4869 30.0437C90.0076 30.2838 90.6378 30.4037 91.3773 30.4037C91.8432 30.4037 92.2612 30.3763 92.6307 30.3216C93.0006 30.2665 93.3295 30.2018 93.6172 30.1262C93.9049 30.0507 94.1583 29.9651 94.3774 29.8687C94.5966 29.7727 94.7952 29.6837 94.9733 29.6011L95.8568 32.1738C95.4048 32.4483 94.7676 32.6954 93.9458 32.9147C93.1239 33.1344 92.1719 33.2439 91.0898 33.2439ZM72.1451 32.9559V18.6934H81.761V21.3894H75.3504V24.1884H81.0419V26.8227H75.3504V30.2599H82.2336V32.956L72.1451 32.9559ZM64.0698 30.5065C64.5218 30.5065 64.8953 30.4687 65.1897 30.3936C65.4843 30.318 65.7206 30.2151 65.8986 30.0848C66.0768 29.9545 66.1998 29.7999 66.2684 29.6219C66.3369 29.4434 66.3711 29.2445 66.3711 29.0247C66.3711 28.5583 66.152 28.1706 65.7136 27.8622C65.2752 27.5534 64.5217 27.2208 63.4534 26.8637C62.9876 26.6991 62.5218 26.5107 62.0562 26.2979C61.5903 26.0851 61.1726 25.8176 60.8028 25.4954C60.4329 25.1727 60.1314 24.7819 59.8987 24.3225C59.6659 23.8626 59.5492 23.3037 59.5492 22.6449C59.5492 21.9866 59.6726 21.3929 59.9191 20.8648C60.1657 20.3366 60.515 19.8872 60.967 19.5168C61.4193 19.1464 61.967 18.8615 62.6107 18.6626C63.2548 18.4637 63.9808 18.3639 64.789 18.3639C65.7478 18.3639 66.5766 18.4672 67.2752 18.6731C67.9737 18.8785 68.5491 19.1052 69.0011 19.3519L68.0764 21.8837C67.6791 21.6779 67.2375 21.496 66.751 21.3383C66.2648 21.1807 65.6792 21.1016 64.9942 21.1016C64.2272 21.1016 63.6757 21.2075 63.3401 21.4204C63.0045 21.6332 62.8367 21.9589 62.8367 22.3979C62.8367 22.6589 62.8985 22.8782 63.0219 23.0567C63.145 23.2352 63.3197 23.3963 63.5457 23.5401C63.7717 23.6842 64.0319 23.8145 64.3265 23.9313C64.621 24.0477 64.9463 24.168 65.3025 24.2913C66.0421 24.5658 66.6862 24.8368 67.234 25.1043C67.7818 25.3719 68.2373 25.6841 68.6003 26.0406C68.9633 26.3976 69.2339 26.8163 69.4119 27.2965C69.5901 27.7764 69.6792 28.3596 69.6792 29.0458C69.6792 30.3764 69.2133 31.4091 68.282 32.143C67.3505 32.877 65.9463 33.2439 64.0696 33.2439C63.4395 33.2439 62.871 33.2061 62.3641 33.131C61.8575 33.0554 61.4088 32.9629 61.0184 32.8531C60.6279 32.7432 60.2924 32.6268 60.0116 32.503C59.7308 32.3796 59.4945 32.2628 59.3027 32.1534L60.2069 29.6011C60.6314 29.8343 61.1554 30.0437 61.7786 30.2291C62.4021 30.4141 63.1658 30.5065 64.0698 30.5065Z" fill="white"/>
<path d="M108.544 39.2322C108.544 39.6317 108.482 39.98 108.358 40.2775C108.234 40.575 108.057 40.8212 107.829 41.0167C107.601 41.2122 107.323 41.3585 106.995 41.4562C106.667 41.5539 106.299 41.6026 105.891 41.6026C105.705 41.6026 105.488 41.5947 105.24 41.5795C104.992 41.5639 104.748 41.5318 104.509 41.4827V36.9884C104.748 36.9441 104.997 36.9141 105.257 36.8984C105.516 36.8828 105.738 36.875 105.925 36.875C106.319 36.875 106.677 36.9197 106.998 37.0083C107.319 37.0969 107.595 37.2371 107.826 37.4278C108.056 37.6189 108.234 37.863 108.358 38.1604C108.482 38.4575 108.544 38.8148 108.544 39.2322ZM105.546 40.6971C105.595 40.7014 105.651 40.7049 105.715 40.707C105.779 40.7092 105.856 40.7105 105.944 40.7105C106.463 40.7105 106.848 40.5793 107.098 40.3175C107.348 40.0556 107.474 39.6938 107.474 39.2322C107.474 38.7485 107.354 38.3823 107.115 38.1335C106.875 37.885 106.496 37.7604 105.978 37.7604C105.907 37.7604 105.834 37.7618 105.759 37.7639C105.683 37.7661 105.612 37.7717 105.546 37.7808L105.546 40.6971ZM98.7068 40.6505V41.5425H95.6291V36.9283H96.6662V40.6505H98.7068ZM86.4636 41.5425V36.9283H89.5746V37.8008H87.5006V38.7063H89.342V39.5588H87.5006V40.6706H89.7274V41.5426L86.4636 41.5425ZM79.2259 36.9284H80.2631V41.5426H79.2259V36.9284ZM71.9881 36.9284H73.0253V41.5426H71.9881V39.5853H70.2467V41.5426H69.2095V36.9284H70.2467V38.6929H71.9881V36.9284ZM61.4602 40.7504C61.6062 40.7504 61.727 40.7382 61.8222 40.714C61.9176 40.6892 61.9939 40.6558 62.0516 40.6141C62.1092 40.5719 62.1491 40.5216 62.1714 40.4642C62.1935 40.4065 62.2046 40.3422 62.2046 40.271C62.2046 40.1203 62.1338 39.9948 61.9917 39.8948C61.8502 39.7949 61.6062 39.6872 61.2605 39.5717C61.1098 39.5183 60.9594 39.4575 60.8085 39.3889C60.6578 39.3198 60.5228 39.2334 60.4031 39.1287C60.2835 39.0245 60.186 38.8981 60.1105 38.7491C60.0353 38.6006 59.9975 38.4195 59.9975 38.2067C59.9975 37.9935 60.0374 37.8014 60.1172 37.6308C60.197 37.4596 60.3099 37.3141 60.4562 37.1943C60.6024 37.0745 60.7797 36.9824 60.988 36.9182C61.1964 36.854 61.4311 36.8218 61.6928 36.8218C62.0028 36.8218 62.271 36.8548 62.4971 36.9217C62.7232 36.9881 62.9092 37.0615 63.0556 37.1414L62.7564 37.9605C62.6278 37.8936 62.485 37.835 62.3276 37.7837C62.1703 37.733 61.9808 37.7074 61.7592 37.7074C61.5112 37.7074 61.3326 37.7417 61.2242 37.8107C61.1156 37.8793 61.0611 37.9848 61.0611 38.1269C61.0611 38.2111 61.0813 38.2823 61.1212 38.3401C61.1608 38.3978 61.2174 38.4499 61.2907 38.4964C61.3637 38.5429 61.4478 38.585 61.543 38.6228C61.6384 38.6606 61.7438 38.6992 61.8589 38.7396C62.0982 38.8282 62.3066 38.9159 62.4839 39.0023C62.661 39.0888 62.8084 39.1899 62.9259 39.3054C63.0432 39.4205 63.131 39.556 63.1885 39.7114C63.2461 39.8669 63.2748 40.0554 63.2748 40.2773C63.2748 40.7081 63.1244 41.0421 62.8228 41.2796C62.5217 41.5172 62.0674 41.6357 61.4603 41.6357C61.2564 41.6357 61.0725 41.6235 60.9084 41.5993C60.7445 41.575 60.5992 41.545 60.4731 41.5093C60.3468 41.4738 60.2382 41.436 60.1473 41.396C60.0565 41.3561 59.9799 41.3183 59.918 41.2827L60.2104 40.4572C60.3478 40.5328 60.5173 40.6005 60.719 40.6604C60.9206 40.7204 61.1675 40.7504 61.4602 40.7504Z" fill="#A9A9A9"/>
</svg>
