<svg width="187" height="60" viewBox="0 0 187 60" fill="none" xmlns="http://www.w3.org/2000/svg">
<path d="M86.991 27.1084C85.6104 27.1084 84.2873 26.8826 83.0218 26.431C81.7561 25.9795 80.7783 25.3997 80.0879 24.6915L80.8578 23.1775C81.5124 23.8149 82.3934 24.3508 83.4996 24.7843C84.6055 25.2186 85.7699 25.4351 86.991 25.4351C88.1592 25.4351 89.1106 25.2891 89.8454 24.9968C90.5795 24.7045 91.1197 24.3109 91.465 23.8149C91.8101 23.3194 91.9826 22.7703 91.9826 22.1682C91.9826 21.4422 91.7745 20.8581 91.3587 20.4151C90.9424 19.9728 90.3982 19.6231 89.7256 19.3659C89.0527 19.1093 88.3094 18.8837 87.4953 18.6886C86.681 18.4939 85.8665 18.2859 85.0527 18.0644C84.2384 17.8431 83.49 17.5463 82.8092 17.1745C82.1275 16.8025 81.5786 16.3113 81.1628 15.7004C80.7465 15.0895 80.5388 14.2885 80.5388 13.2965C80.5388 12.3763 80.7821 11.5304 81.2691 10.7599C81.7556 9.98977 82.5035 9.37011 83.5126 8.90072C84.5213 8.43184 85.8133 8.19702 87.389 8.19702C88.4333 8.19702 89.4688 8.34303 90.4957 8.6353C91.5222 8.92757 92.4077 9.33048 93.151 9.84376L92.4875 11.4107C91.691 10.8796 90.8453 10.4905 89.9515 10.2421C89.0575 9.99453 88.1945 9.87035 87.3629 9.87035C86.2479 9.87035 85.327 10.0209 84.6018 10.3219C83.8758 10.6232 83.3406 11.0259 82.995 11.5304C82.6499 12.0351 82.4774 12.6061 82.4774 13.2436C82.4774 13.9699 82.685 14.5542 83.1013 14.9967C83.5171 15.4395 84.0656 15.7847 84.7475 16.0323C85.4289 16.2807 86.1767 16.5019 86.991 16.6964C87.805 16.8913 88.6148 17.104 89.4206 17.3338C90.2259 17.5641 90.9695 17.8609 91.6508 18.2237C92.3322 18.587 92.8812 19.0694 93.2973 19.6712C93.7126 20.2736 93.9212 21.0616 93.9212 22.0352C93.9212 22.9384 93.6729 23.7748 93.1776 24.5452C92.6818 25.3154 91.9252 25.9356 90.9075 26.4044C89.8896 26.8736 88.5842 27.1084 86.991 27.1084Z" fill="white"/>
<path d="M103.717 27.0816C102.265 27.0816 100.991 26.7763 99.8934 26.1654C98.7954 25.5545 97.937 24.7138 97.3178 23.6421C96.6981 22.5711 96.3887 21.3446 96.3887 19.9635C96.3887 18.5825 96.6848 17.3607 97.2782 16.2983C97.8711 15.2358 98.6856 14.3992 99.7211 13.788C100.756 13.1774 101.92 12.8718 103.213 12.8718C104.522 12.8718 105.686 13.1686 106.704 13.7617C107.721 14.355 108.523 15.1872 109.107 16.2581C109.691 17.3299 109.983 18.5649 109.983 19.9633C109.983 20.0521 109.979 20.1452 109.97 20.2423C109.961 20.3398 109.957 20.4414 109.957 20.5476H97.8229V19.1399H108.948L108.204 19.6976C108.204 18.6883 107.987 17.7897 107.554 17.0017C107.12 16.214 106.532 15.5986 105.788 15.1558C105.045 14.7132 104.186 14.4917 103.213 14.4917C102.257 14.4917 101.398 14.7132 100.637 15.1558C99.8761 15.5986 99.2832 16.218 98.8587 17.015C98.4336 17.8118 98.2214 18.724 98.2214 19.7508V20.0431C98.2214 21.1053 98.4559 22.0398 98.9249 22.8451C99.3938 23.6509 100.049 24.2793 100.89 24.7309C101.73 25.1825 102.69 25.4082 103.77 25.4082C104.62 25.4082 105.412 25.2577 106.147 24.9567C106.881 24.6556 107.514 24.1955 108.045 23.5754L109.107 24.7971C108.487 25.541 107.713 26.1077 106.784 26.497C105.854 26.8871 104.832 27.0816 103.717 27.0816Z" fill="white"/>
<path d="M119.621 27.0816C118.24 27.0816 117.006 26.7763 115.917 26.1654C114.829 25.5545 113.974 24.7138 113.355 23.6421C112.735 22.5711 112.426 21.3446 112.426 19.9635C112.426 18.5652 112.735 17.3341 113.355 16.2717C113.974 15.2092 114.829 14.3771 115.917 13.775C117.006 13.1731 118.24 12.8718 119.621 12.8718C120.807 12.8718 121.878 13.1021 122.834 13.5625C123.79 14.0231 124.542 14.7135 125.091 15.6342L123.684 16.5905C123.206 15.8823 122.613 15.36 121.905 15.0233C121.196 14.6874 120.426 14.5188 119.595 14.5188C118.603 14.5188 117.71 14.7446 116.913 15.1962C116.117 15.6477 115.488 16.281 115.028 17.0953C114.567 17.9099 114.338 18.8662 114.338 19.9638C114.338 21.0619 114.567 22.0182 115.028 22.8323C115.488 23.6469 116.117 24.2801 116.913 24.7314C117.71 25.183 118.603 25.4087 119.595 25.4087C120.426 25.4087 121.196 25.2407 121.905 24.904C122.613 24.5678 123.206 24.054 123.684 23.3636L125.091 24.3197C124.542 25.2228 123.79 25.9092 122.834 26.3781C121.878 26.8473 120.807 27.0816 119.621 27.0816Z" fill="white"/>
<path d="M134.543 27.0817C133.357 27.0817 132.321 26.8604 131.436 26.4178C130.551 25.9755 129.865 25.3112 129.379 24.4257C128.892 23.5406 128.648 22.4337 128.648 21.1056V13.0046H130.534V20.8934C130.534 22.3808 130.901 23.5009 131.636 24.2533C132.37 25.0062 133.401 25.3822 134.729 25.3822C135.702 25.3822 136.548 25.183 137.264 24.7844C137.981 24.386 138.53 23.8063 138.911 23.0449C139.291 22.2837 139.482 21.3715 139.482 20.3091V13.0049H141.367V26.9494H139.561V23.1246L139.853 23.8153C139.41 24.8424 138.725 25.6436 137.795 26.2191C136.866 26.7942 135.782 27.0817 134.543 27.0817Z" fill="white"/>
<path d="M146.623 26.9489V13.0043H148.429V16.8025L148.243 16.1387C148.632 15.0763 149.287 14.2662 150.208 13.7083C151.128 13.1506 152.269 12.8716 153.633 12.8716V14.7045C153.562 14.7045 153.491 14.7002 153.421 14.6912C153.349 14.6826 153.279 14.6779 153.208 14.6779C151.739 14.6779 150.588 15.1252 149.757 16.019C148.924 16.9134 148.508 18.1838 148.508 19.8306V26.9489H146.623Z" fill="white"/>
<path d="M158.014 9.92357C157.624 9.92357 157.297 9.79085 157.031 9.52492C156.766 9.25925 156.633 8.94064 156.633 8.56885C156.633 8.19705 156.766 7.88297 157.031 7.62582C157.297 7.36943 157.624 7.24072 158.014 7.24072C158.403 7.24072 158.731 7.36491 158.997 7.61278C159.262 7.86089 159.395 8.17046 159.395 8.54225C159.395 8.93211 159.267 9.2595 159.01 9.52492C158.753 9.79085 158.421 9.92357 158.014 9.92357ZM157.058 26.9489V13.0043H158.944V26.9489H157.058Z" fill="white"/>
<path d="M162.023 14.5718V13.0046H170.653V14.5718H162.023ZM168.608 27.0816C167.298 27.0816 166.289 26.7276 165.581 26.0191C164.873 25.3112 164.519 24.3107 164.519 23.0179V9.92358H166.404V22.9118C166.404 23.7264 166.612 24.3553 167.028 24.7976C167.444 25.2404 168.042 25.4617 168.82 25.4617C169.652 25.4617 170.342 25.2226 170.891 24.7444L171.555 26.0992C171.183 26.4358 170.736 26.6834 170.214 26.843C169.692 27.0021 169.157 27.0816 168.608 27.0816Z" fill="white"/>
<path d="M174.821 32.2346C174.166 32.2346 173.542 32.1285 172.949 31.916C172.355 31.7035 171.846 31.3846 171.422 30.9597L172.298 29.552C172.652 29.8882 173.037 30.1496 173.453 30.3355C173.869 30.5214 174.334 30.6145 174.847 30.6145C175.467 30.6145 176.002 30.4416 176.453 30.0964C176.905 29.751 177.334 29.1443 177.741 28.2771L178.644 26.232L178.856 25.9397L184.591 13.0046H186.45L179.467 28.6223C179.077 29.5254 178.648 30.2424 178.179 30.7738C177.71 31.3049 177.201 31.6809 176.652 31.9024C176.104 32.1237 175.493 32.2346 174.821 32.2346ZM178.538 27.3473L172.112 13.0046H174.077L179.759 25.807L178.538 27.3473Z" fill="white"/>
<path d="M80.8965 46.9998V33H86.8846C88.1225 33 89.1896 33.2034 90.086 33.61C90.9818 34.0169 91.6733 34.6 92.1611 35.36C92.6483 36.1199 92.8922 37.0267 92.8922 38.08C92.8922 39.1199 92.6483 40.0198 92.1611 40.78C91.6733 41.5399 90.9818 42.1235 90.086 42.53C89.1896 42.9369 88.1225 43.1399 86.8846 43.1399H82.6752L84.0979 41.6801V47L80.8965 46.9998ZM84.0979 42.04L82.6752 40.5H86.7067C87.6947 40.5 88.4323 40.2868 88.9201 39.86C89.4073 39.4335 89.6512 38.84 89.6512 38.08C89.6512 37.3068 89.4073 36.7068 88.9201 36.2799C88.4323 35.8534 87.6947 35.6399 86.7067 35.6399H82.6752L84.0979 34.1V42.04Z" fill="#A9A9A9"/>
<path d="M94.8926 46.9996V36.161H98.0141V39.2233L97.5744 38.3369C97.9094 37.5714 98.447 36.9907 99.1875 36.5943C99.9276 36.1983 100.828 36 101.89 36V38.9011C101.75 38.888 101.625 38.8777 101.513 38.8709C101.401 38.8642 101.282 38.8608 101.157 38.8608C100.263 38.8608 99.5399 39.1061 98.9884 39.5963C98.4364 40.0866 98.1607 40.8487 98.1607 41.883V47H94.8926V46.9996Z" fill="#A9A9A9"/>
<path d="M108.396 47C107.329 47 106.384 46.7617 105.559 46.2851C104.734 45.8086 104.082 45.1567 103.605 44.3294C103.127 43.5022 102.889 42.5591 102.889 41.5C102.889 40.4278 103.127 39.4781 103.605 38.6507C104.082 37.8237 104.734 37.1749 105.559 36.7048C106.384 36.235 107.329 36 108.396 36C109.45 36 110.393 36.2352 111.224 36.7048C112.055 37.1747 112.706 37.8203 113.178 38.6407C113.649 39.4616 113.885 40.4147 113.885 41.4998C113.885 42.559 113.649 43.5022 113.178 44.3292C112.706 45.1565 112.055 45.8086 111.224 46.2849C110.393 46.7616 109.45 47 108.396 47ZM108.396 44.4584C108.88 44.4584 109.314 44.3394 109.698 44.101C110.083 43.8628 110.387 43.5221 110.61 43.0785C110.833 42.6352 110.945 42.1091 110.945 41.5C110.945 40.8781 110.833 40.3485 110.61 39.9115C110.387 39.4747 110.083 39.1372 109.698 38.8988C109.314 38.6606 108.88 38.5416 108.396 38.5416C107.912 38.5416 107.478 38.6606 107.094 38.8988C106.709 39.1372 106.402 39.4747 106.173 39.9115C105.943 40.3483 105.828 40.8779 105.828 41.5C105.828 42.1091 105.943 42.6352 106.173 43.0785C106.402 43.5223 106.709 43.863 107.094 44.101C107.478 44.3392 107.912 44.4584 108.396 44.4584Z" fill="#A9A9A9"/>
<path d="M114.885 38.9067V36.5608H122.143V38.9067H114.885ZM120.411 47C119.179 47 118.219 46.6841 117.531 46.0519C116.843 45.4198 116.5 44.4781 116.5 43.227V34H119.535V43.1879C119.535 43.6312 119.652 43.9733 119.885 44.2141C120.119 44.4554 120.436 44.5758 120.839 44.5758C121.319 44.5758 121.727 44.4456 122.065 44.1849L122.882 46.3353C122.571 46.5569 122.198 46.7231 121.763 46.8338C121.328 46.9443 120.878 47 120.411 47Z" fill="#A9A9A9"/>
<path d="M129.837 47C128.647 47 127.603 46.7617 126.705 46.2851C125.806 45.8086 125.111 45.1567 124.62 44.3294C124.128 43.5022 123.883 42.5591 123.883 41.5C123.883 40.4278 124.125 39.4781 124.61 38.6507C125.095 37.8237 125.757 37.1749 126.598 36.7048C127.438 36.235 128.388 36 129.449 36C130.47 36 131.391 36.2219 132.212 36.6652C133.033 37.1087 133.683 37.7441 134.161 38.5714C134.639 39.3988 134.879 40.3883 134.879 41.5398C134.879 41.6588 134.872 41.7948 134.859 41.9469C134.846 42.0992 134.833 42.2415 134.82 42.3738H126.345V40.567H133.23L132.067 41.1032C132.067 40.5471 131.957 40.0642 131.737 39.6537C131.517 39.2435 131.213 38.9225 130.825 38.6908C130.438 38.4594 129.985 38.3433 129.468 38.3433C128.95 38.3433 128.495 38.4594 128.101 38.6908C127.706 38.9226 127.399 39.2469 127.179 39.6638C126.96 40.0807 126.85 40.5741 126.85 41.1431V41.6197C126.85 42.2023 126.976 42.7151 127.228 43.1586C127.48 43.6022 127.835 43.9397 128.295 44.1711C128.753 44.4028 129.293 44.5187 129.914 44.5187C130.47 44.5187 130.958 44.4328 131.378 44.2606C131.798 44.0886 132.183 43.8306 132.532 43.4862L134.142 45.2733C133.664 45.8292 133.062 46.256 132.338 46.5539C131.614 46.8509 130.78 47 129.837 47Z" fill="#A9A9A9"/>
<path d="M141.975 47C140.796 47 139.745 46.7652 138.824 46.2951C137.903 45.8253 137.181 45.1732 136.659 44.3392C136.138 43.5052 135.877 42.5591 135.877 41.4999C135.877 40.4277 136.138 39.4781 136.659 38.6506C137.181 37.8236 137.902 37.1749 138.824 36.7048C139.745 36.235 140.796 36 141.975 36C143.126 36 144.129 36.2352 144.983 36.7048C145.836 37.1747 146.467 37.8465 146.873 38.72L144.413 40.0107C144.129 39.5077 143.773 39.1371 143.347 38.8988C142.92 38.6606 142.455 38.5415 141.954 38.5415C141.412 38.5415 140.924 38.6606 140.491 38.8988C140.057 39.1371 139.715 39.4747 139.465 39.9115C139.214 40.3482 139.089 40.8778 139.089 41.4999C139.089 42.1221 139.214 42.6516 139.465 43.0884C139.715 43.5251 140.057 43.8627 140.491 44.1009C140.924 44.3392 141.412 44.4583 141.954 44.4583C142.455 44.4583 142.92 44.3426 143.347 44.1108C143.773 43.8794 144.129 43.5052 144.413 42.989L146.873 44.2995C146.467 45.1599 145.836 45.8253 144.983 46.2949C144.129 46.765 143.126 47 141.975 47Z" fill="#A9A9A9"/>
<path d="M147.873 38.9067V36.5608H155.131V38.9067H147.873ZM153.399 47C152.167 47 151.207 46.6841 150.519 46.0519C149.832 45.4198 149.488 44.4781 149.488 43.227V34H152.524V43.1879C152.524 43.6312 152.64 43.9733 152.874 44.2141C153.107 44.4554 153.425 44.5758 153.827 44.5758C154.307 44.5758 154.716 44.4456 155.053 44.1849L155.87 46.3353C155.559 46.5569 155.186 46.7231 154.751 46.8338C154.317 46.9443 153.866 47 153.399 47Z" fill="#A9A9A9"/>
<path d="M158.871 35.3163C158.28 35.3163 157.799 35.1575 157.428 34.8398C157.056 34.5224 156.871 34.1283 156.871 33.6581C156.871 33.188 157.056 32.7939 157.428 32.4764C157.799 32.159 158.28 32 158.871 32C159.462 32 159.943 32.1494 160.314 32.4479C160.685 32.7466 160.871 33.1309 160.871 33.601C160.871 34.0966 160.689 34.5064 160.325 34.8304C159.96 35.1543 159.476 35.3163 158.871 35.3163ZM157.263 47V36.7457H160.479V47H157.263Z" fill="#A9A9A9"/>
<path d="M167.877 47C166.713 47 165.682 46.7617 164.782 46.2851C163.882 45.8086 163.171 45.1567 162.651 44.3294C162.129 43.5022 161.869 42.5591 161.869 41.5C161.869 40.4278 162.129 39.4781 162.651 38.6507C163.171 37.8237 163.882 37.1749 164.782 36.7048C165.682 36.235 166.713 36 167.877 36C169.027 36 170.056 36.2352 170.963 36.7048C171.869 37.1747 172.579 37.8203 173.094 38.6407C173.608 39.4616 173.865 40.4147 173.865 41.4998C173.865 42.559 173.608 43.5022 173.094 44.3292C172.579 45.1565 171.869 45.8086 170.963 46.2849C170.056 46.7616 169.027 47 167.877 47ZM167.877 44.4584C168.405 44.4584 168.879 44.3394 169.298 44.101C169.717 43.8628 170.049 43.5221 170.292 43.0785C170.536 42.6352 170.658 42.1091 170.658 41.5C170.658 40.8781 170.536 40.3485 170.292 39.9115C170.049 39.4747 169.717 39.1372 169.298 38.8988C168.879 38.6606 168.405 38.5416 167.877 38.5416C167.349 38.5416 166.876 38.6606 166.456 38.8988C166.037 39.1372 165.702 39.4747 165.452 39.9115C165.201 40.3483 165.076 40.8779 165.076 41.5C165.076 42.1091 165.201 42.6352 165.452 43.0785C165.702 43.5223 166.037 43.863 166.456 44.101C166.876 44.3392 167.349 44.4584 167.877 44.4584Z" fill="#A9A9A9"/>
<path d="M182.401 36C183.254 36 184.017 36.1713 184.69 36.5138C185.363 36.8563 185.893 37.3802 186.279 38.0852C186.666 38.7902 186.859 39.6937 186.859 40.7949V47H183.74V41.2784C183.74 40.4054 183.551 39.7608 183.171 39.3445C182.791 38.9283 182.254 38.7198 181.561 38.7198C181.068 38.7198 180.625 38.8241 180.232 39.032C179.839 39.2404 179.532 39.5593 179.312 39.989C179.092 40.4191 178.982 40.9696 178.982 41.6411V47H175.863V36.1614H178.842V39.1631L178.282 38.2566C178.669 37.5313 179.222 36.9741 179.942 36.5844C180.661 36.1948 181.481 36 182.401 36Z" fill="#A9A9A9"/>
<path d="M23.3583 29.9037C23.3578 29.9358 23.3576 29.9679 23.3576 30C23.3576 33.8567 26.4578 36.9577 30.3134 36.9577C30.3455 36.9577 30.3776 36.9575 30.4097 36.957C33.9314 36.9091 37.3183 38.3097 39.8088 40.8011L42.0519 43.0449C44.7526 45.7466 46.3047 49.3858 46.3929 53.2053C46.3937 53.2377 46.3947 53.2701 46.396 53.3024C46.5321 57.0141 49.6153 59.9894 53.3282 59.999C57.1842 60.009 60.3123 56.8799 60.302 53.0222C60.2922 49.308 57.3179 46.224 53.6075 46.0878C53.5752 46.0865 53.5426 46.0855 53.5102 46.0848C49.6923 45.9967 46.0546 44.4441 43.3542 41.7426L41.1109 39.4986C38.6204 37.0072 37.22 33.6189 37.2679 30.0958C37.2684 30.0637 37.2686 30.0316 37.2686 29.9995C37.2686 26.1426 34.1684 23.0413 30.3129 23.0415C30.2808 23.0415 30.2487 23.0418 30.2166 23.0423C26.6948 23.0902 23.3079 21.6893 20.8174 19.1981L18.5739 16.9538C15.8737 14.2527 14.3216 10.6137 14.2335 6.79468C14.2328 6.76232 14.2318 6.72995 14.2305 6.69759C14.0946 2.98591 11.0114 0.0105485 7.29857 0.000513565C3.44225 -0.00977226 0.313962 3.11963 0.324244 6.97731C0.334025 10.6915 3.30859 13.7755 7.01895 13.9115C7.0513 13.9127 7.08366 13.9137 7.11601 13.9145C10.9337 14.0023 14.5713 15.5549 17.2715 18.2561L19.5148 20.5002C22.0056 22.9916 23.406 26.3801 23.3583 29.9037Z" fill="url(#paint0_linear_6_7468)"/>
<path d="M60.3025 29.9814C60.3025 29.9219 60.2992 29.8625 60.2972 29.804C60.2962 29.7499 60.2962 29.6969 60.2929 29.644C60.2907 29.6041 60.2874 29.5639 60.2844 29.5241C60.0845 26.5658 58.0369 24.1152 55.285 23.3177C55.285 23.3177 55.285 23.3177 55.284 23.3177C55.1834 23.2886 55.0819 23.2605 54.9793 23.2367C54.9587 23.2311 54.9372 23.2269 54.9156 23.2216C54.8313 23.202 54.7481 23.1837 54.6628 23.1677C54.6239 23.1602 54.5838 23.1536 54.5449 23.1471C54.4747 23.1353 54.4055 23.1233 54.3353 23.1125C54.2824 23.1049 54.2282 23.0994 54.1753 23.0929C54.1158 23.0854 54.0577 23.0789 53.9982 23.0723C53.9365 23.0671 53.8751 23.0638 53.8134 23.0593C53.7595 23.056 53.7043 23.0518 53.6491 23.0495C53.6351 23.0485 53.622 23.0473 53.608 23.0463C53.5756 23.0452 53.5433 23.044 53.5107 23.044C49.6932 22.9554 46.0551 21.4033 43.3552 18.7011L41.6077 16.9548C38.9075 14.2526 37.3549 10.6142 37.2674 6.7944L37.2641 6.69706C37.2641 6.68401 37.2618 6.66996 37.2618 6.65591C37.2596 6.60072 37.2553 6.54678 37.252 6.4926C37.2478 6.43088 37.2433 6.36841 37.238 6.3077C37.2325 6.24824 37.225 6.1898 37.2185 6.13034C37.2119 6.0764 37.2054 6.02221 37.1979 5.96927C37.1881 5.89903 37.1763 5.8298 37.1643 5.76055C37.1568 5.72167 37.1502 5.68153 37.1427 5.64164C37.1264 5.55735 37.1081 5.47305 37.0888 5.38976C37.0845 5.36818 37.0803 5.34661 37.0748 5.32503C37.0499 5.22242 37.0228 5.12182 36.9937 5.02122C36.9937 5.02022 36.9937 5.02021 36.9927 5.01896C36.1965 2.26712 33.7468 0.21874 30.7896 0.0177901C30.7497 0.0155323 30.7096 0.0112683 30.6697 0.00926127C30.6168 0.00700341 30.5626 0.00701149 30.5097 0.0050045C30.4503 0.00400101 30.3918 0.000732422 30.3324 0.000732422H30.2945C30.2351 0.000732422 30.1766 0.00400101 30.1172 0.0050045C30.0643 0.00726237 30.0101 0.00725428 29.9572 0.00926127C29.9173 0.0115191 29.8772 0.0157831 29.8373 0.0177901C26.8801 0.21874 24.4304 2.26712 23.6332 5.01896V5.01997C23.6041 5.12057 23.577 5.22317 23.5522 5.32578C23.5467 5.34635 23.5424 5.36793 23.5381 5.3885C23.5186 5.47279 23.5003 5.55709 23.483 5.64264C23.4754 5.68152 23.4699 5.72041 23.4624 5.76055C23.4506 5.8298 23.4386 5.89903 23.4288 5.96927C23.4213 6.02221 23.4147 6.0764 23.4082 6.12933C23.4017 6.18879 23.3942 6.24824 23.3887 6.3077C23.3831 6.36816 23.3789 6.42988 23.3746 6.49134C23.3714 6.54653 23.3671 6.60047 23.3648 6.65667C23.3638 6.66971 23.3626 6.68376 23.3626 6.69655C23.3603 6.72892 23.3603 6.76128 23.3593 6.79389C23.2708 10.6137 21.7192 14.2531 19.019 16.9543L17.2718 18.7011C14.5716 21.4033 10.9334 22.9554 7.11622 23.044C7.08386 23.044 7.05151 23.045 7.01891 23.0463C7.00161 23.0473 6.98431 23.0485 6.96826 23.0495C6.91209 23.0518 6.85691 23.056 6.80174 23.0603C6.7413 23.0636 6.68061 23.0678 6.62017 23.0733C6.56074 23.0799 6.50129 23.0864 6.44286 23.0939C6.38894 23.1004 6.33577 23.107 6.28286 23.1145C6.21364 23.1243 6.14569 23.1361 6.07747 23.1481C6.0376 23.1546 5.99746 23.1611 5.95759 23.1687C5.87433 23.185 5.79232 23.2033 5.71132 23.2216C5.6885 23.2271 5.66493 23.2324 5.6421 23.2379C5.54279 23.2617 5.44424 23.2876 5.34719 23.3157C5.34393 23.3167 5.34167 23.3179 5.33866 23.3189C2.58881 24.1167 0.542401 26.566 0.342526 29.5233C0.339265 29.5645 0.335003 29.6043 0.334 29.6445C0.33074 29.6984 0.330731 29.7526 0.328474 29.8066C0.327471 29.865 0.324219 29.9222 0.324219 29.9817V30.0185C0.324219 30.079 0.327471 30.1374 0.328474 30.1969C0.330731 30.2498 0.33074 30.3028 0.334 30.3557C0.335003 30.3968 0.339516 30.4367 0.342526 30.4769C0.542401 33.4352 2.59005 35.8857 5.34091 36.6822C5.34192 36.6822 5.34193 36.6823 5.34318 36.6833C5.44374 36.7124 5.5453 36.7394 5.64787 36.7643C5.66844 36.7686 5.69001 36.7728 5.71057 36.7783C5.79483 36.7979 5.8791 36.8162 5.96462 36.8323C6.00349 36.8398 6.04237 36.8463 6.08249 36.8528C6.15171 36.8646 6.22193 36.8777 6.29215 36.8875C6.34506 36.895 6.39798 36.9005 6.45215 36.907C6.51058 36.9146 6.57001 36.9221 6.62945 36.9276C6.69114 36.9331 6.75158 36.9364 6.81302 36.9407C6.86819 36.9449 6.92311 36.9482 6.97829 36.9514C6.99233 36.9514 7.00537 36.9524 7.01942 36.9537C7.05177 36.9547 7.08437 36.9559 7.11672 36.9569C10.9342 37.0445 14.5723 38.5977 17.2723 41.2988L19.0195 43.0457C21.7197 45.7478 23.2723 49.386 23.3598 53.206C23.3608 53.2384 23.3608 53.2708 23.3631 53.3034C23.3631 53.3207 23.3653 53.337 23.3653 53.3543C23.3686 53.4095 23.3718 53.4644 23.3761 53.5206C23.3804 53.5811 23.3836 53.6418 23.3902 53.7023C23.3957 53.7617 23.4032 53.8202 23.4097 53.8797C23.4162 53.9326 23.4228 53.9868 23.4303 54.0397C23.4401 54.1077 23.4518 54.1759 23.4636 54.2439C23.4702 54.285 23.4777 54.3249 23.4852 54.3651C23.5015 54.4471 23.5188 54.5294 23.5371 54.6114C23.5426 54.634 23.5479 54.6569 23.5534 54.6794C23.5772 54.7788 23.6041 54.8773 23.6324 54.9744C23.6334 54.9777 23.6334 54.981 23.6347 54.9842C24.4332 57.7351 26.8816 59.7822 29.8388 59.9821C29.8787 59.9844 29.9189 59.9886 29.9587 59.9907C30.0116 59.9929 30.0658 59.9939 30.1197 59.9949C30.1782 59.9972 30.2363 59.9992 30.2948 60.0002C30.3013 60.0002 30.3078 59.9992 30.3143 59.9992C30.3198 59.9992 30.3261 60.0002 30.3326 60.0002C30.3921 59.9992 30.4505 59.997 30.51 59.9949C30.5629 59.9939 30.617 59.9927 30.67 59.9907C30.7098 59.9884 30.7499 59.9841 30.7898 59.9821C33.7471 59.7822 36.1968 57.7338 36.993 54.981C36.994 54.981 36.994 54.98 36.994 54.9787C37.0231 54.8781 37.0502 54.7778 37.075 54.6749C37.0805 54.6533 37.0848 54.6317 37.089 54.6112C37.1086 54.5269 37.1269 54.4426 37.143 54.3583C37.1505 54.3184 37.157 54.2793 37.1645 54.2394C37.1763 54.1702 37.1884 54.1012 37.1981 54.0307C37.2057 53.9777 37.2122 53.9235 37.2187 53.8696C37.2252 53.8112 37.2327 53.7517 37.2383 53.6922C37.2435 53.6318 37.248 53.57 37.2523 53.5083C37.2556 53.4531 37.2598 53.3992 37.2621 53.344C37.2621 53.33 37.2643 53.3169 37.2643 53.3029C37.2653 53.2705 37.2666 53.2379 37.2676 53.2056C37.3551 49.3857 38.9077 45.7473 41.6079 43.0452L43.3552 41.2983C46.0554 38.5972 49.6922 37.044 53.5107 36.9565C53.543 36.9554 53.5756 36.9542 53.608 36.9532C53.622 36.9522 53.6361 36.9509 53.6491 36.9509C53.7043 36.9477 53.7582 36.9444 53.8134 36.9401C53.8751 36.9359 53.9365 36.9326 53.9982 36.9271C54.0577 36.9218 54.1161 36.9141 54.1753 36.9065C54.2282 36.9 54.2824 36.8947 54.3363 36.887C54.4055 36.8772 54.4747 36.8654 54.5437 36.8523C54.5836 36.8458 54.6237 36.8393 54.6636 36.8318C54.7478 36.8154 54.8311 36.7971 54.9143 36.7778C54.9359 36.7723 54.9587 36.7681 54.9803 36.7628C55.0819 36.739 55.1834 36.7118 55.284 36.6827C55.284 36.6817 55.285 36.6818 55.2863 36.6818C58.0371 35.884 60.0848 33.4337 60.2847 30.4754C60.2879 30.4355 60.2912 30.3953 60.2932 30.3555C60.2964 30.3025 60.2964 30.2483 60.2974 30.1954C60.2997 30.1359 60.3027 30.0775 60.3027 30.018C60.3027 30.0115 60.3017 30.0062 60.3017 29.9997C60.3017 29.9932 60.3025 29.9879 60.3025 29.9814ZM45.6757 30C45.6757 38.487 38.7981 45.368 30.3131 45.368C21.829 45.368 14.9515 38.487 14.9515 30C14.9515 21.5129 21.829 14.6329 30.3131 14.6329C38.7984 14.6329 45.6757 21.5127 45.6757 30Z" fill="url(#paint1_linear_6_7468)"/>
<path d="M30.2188 36.957C30.2509 36.9575 30.283 36.9577 30.3151 36.9577C34.1704 36.9577 37.2703 33.8564 37.2703 29.9995C37.2703 29.9674 37.2701 29.9353 37.2696 29.9032C37.2217 26.3801 38.6218 22.9921 41.1124 20.5007L43.3554 18.2568C46.0561 15.5552 49.694 14.0025 53.5122 13.9142C53.5445 13.9135 53.5769 13.9125 53.6092 13.9112C57.3196 13.775 60.2939 10.6907 60.3034 6.97656C60.3134 3.11888 57.1854 -0.0100109 53.3291 2.40707e-05C49.6162 0.00980815 46.5333 2.98516 46.3971 6.69684C46.3959 6.7292 46.3949 6.76157 46.3941 6.79393C46.3061 10.6132 44.754 14.2521 42.0535 16.9536L39.8103 19.1976C37.3197 21.6891 33.9326 23.0899 30.4109 23.042C30.3788 23.0415 30.3467 23.0413 30.3146 23.0413C26.459 23.0413 23.3588 26.1426 23.359 29.9995C23.359 30.0316 23.3593 30.0637 23.3598 30.0958C23.4077 33.6189 22.0076 37.0069 19.517 39.4983L17.2735 41.7426C14.5733 44.4438 10.9356 45.9965 7.11795 46.0845C7.0856 46.0853 7.05326 46.0863 7.0209 46.0875C3.31054 46.2235 0.336229 49.3077 0.326197 53.0219C0.315915 56.8796 3.44421 60.009 7.30053 59.9987C11.0134 59.9887 14.0963 57.0133 14.2322 53.3016C14.2335 53.2693 14.2345 53.2369 14.2352 53.2046C14.323 49.3855 15.8751 45.7466 18.5753 43.0454L20.8183 40.8014C23.3091 38.3102 26.6965 36.9093 30.2188 36.957Z" fill="url(#paint2_linear_6_7468)"/>
<defs>
<linearGradient id="paint0_linear_6_7468" x1="53.9841" y1="63.8273" x2="10.3269" y2="1.48194" gradientUnits="userSpaceOnUse">
<stop stop-color="#A68DFF"/>
<stop offset="1" stop-color="#D31362"/>
</linearGradient>
<linearGradient id="paint1_linear_6_7468" x1="13.8968" y1="1.9089" x2="48.3568" y2="60.8328" gradientUnits="userSpaceOnUse">
<stop offset="0.0096" stop-color="#15FFE8"/>
<stop offset="0.2055" stop-color="#11D5DB"/>
<stop offset="0.4835" stop-color="#0A94C7"/>
<stop offset="0.6008" stop-color="#077ABF"/>
<stop offset="0.8699" stop-color="#0242AE"/>
<stop offset="1" stop-color="#002CA8"/>
</linearGradient>
<linearGradient id="paint2_linear_6_7468" x1="53.9858" y1="63.8274" x2="10.3287" y2="1.48208" gradientUnits="userSpaceOnUse">
<stop stop-color="#B084F7"/>
<stop offset="1" stop-color="#D31362"/>
</linearGradient>
</defs>
</svg>
