<svg width="153" height="46" viewBox="0 0 153 46" fill="none" xmlns="http://www.w3.org/2000/svg">
<path d="M18.7722 35.968V25.1881L12.7231 21.6701V16.4591H15.7904V19.8956L21.8394 23.4136V35.968H18.7722ZM12.723 35.968V26.2127H15.7902V35.968H12.723ZM6.67966 27.3964L6.67918 14.5461L12.7228 11.0321V0.5H15.79V12.8067L9.73401 16.3282L9.73449 27.3964H6.67966ZM24.8215 5.14738V0.5H27.8888V5.14738H24.8215ZM26.7584 8.66538H33.7754V26.1558C33.7754 30.6807 32.0156 34.923 29.1682 38.32C26.2424 41.8102 22.1487 44.4118 17.6347 45.5H16.9279C12.4133 44.4118 8.31984 41.8103 5.39436 38.32C2.54681 34.923 0.787109 30.6807 0.787109 26.1558V8.66538H6.67379V0.5H9.74099V11.7545H3.85432V26.1558C3.85432 29.9207 5.335 33.4707 7.73069 36.3288C10.1743 39.2441 13.5532 41.4375 17.281 42.418C21.0088 41.4375 24.3878 39.2441 26.8317 36.3288C29.2274 33.4709 30.7079 29.9209 30.7079 26.1558V11.7545H27.8886V27.3964H24.8214V11.0976L21.8392 9.36316V18.2338H18.772V0.5H21.8392V5.80504L26.7584 8.66538Z" fill="#3C72FC"/>
<path d="M152.354 19.145C152.354 20.2481 152.183 21.2106 151.84 22.0316C151.496 22.8533 151.009 23.5335 150.378 24.073C149.747 24.6126 148.978 25.017 148.071 25.2865C147.164 25.5565 146.147 25.6915 145.02 25.6915C144.505 25.6915 143.905 25.6699 143.218 25.6272C142.532 25.584 141.858 25.4954 141.196 25.3604V12.9484C141.858 12.8255 142.547 12.7428 143.264 12.7C143.981 12.6572 144.597 12.6356 145.112 12.6356C146.202 12.6356 147.192 12.7579 148.08 13.0032C148.969 13.2486 149.732 13.635 150.369 14.1619C151.006 14.6891 151.496 15.3633 151.84 16.1847C152.183 17.0055 152.354 17.9929 152.354 19.145ZM144.064 23.1903C144.199 23.203 144.355 23.2118 144.532 23.2181C144.71 23.2244 144.922 23.2272 145.167 23.2272C146.6 23.2272 147.664 22.8654 148.356 22.1424C149.049 21.4188 149.395 20.42 149.395 19.145C149.395 17.8086 149.064 16.7973 148.402 16.1106C147.74 15.4246 146.693 15.0812 145.259 15.0812C145.063 15.0812 144.86 15.0838 144.652 15.0903C144.444 15.0965 144.248 15.1118 144.064 15.136V23.1903H144.064ZM139.358 23.0622V25.5259H130.847V12.7825H133.715V23.062L139.358 23.0622ZM119.708 25.5259V12.7825H128.311V15.1913H122.575V17.692H127.667V20.0455H122.575V23.1168H128.733V25.5256L119.708 25.5259ZM113.899 12.7827H116.767V25.5261H113.899V12.7827ZM108.09 12.7827H110.958V25.5261H108.09V20.1198H103.274V25.5261H100.407V12.7827H103.274V17.6559H108.09V12.7827ZM93.1824 23.3373C93.5868 23.3373 93.9209 23.3036 94.1843 23.236C94.4477 23.1691 94.6591 23.0768 94.8187 22.9602C94.978 22.8442 95.0884 22.706 95.1495 22.5468C95.2108 22.3876 95.2412 22.2098 95.2412 22.0137C95.2412 21.5966 95.0452 21.2501 94.6531 20.9743C94.2612 20.6985 93.5868 20.4017 92.6309 20.0831C92.2142 19.9353 91.7977 19.7673 91.3812 19.5768C90.9644 19.3869 90.5907 19.148 90.2597 18.8597C89.9289 18.5717 89.6594 18.2227 89.451 17.8118C89.2427 17.401 89.1386 16.9016 89.1386 16.3132C89.1386 15.7249 89.2489 15.1948 89.4696 14.7228C89.6901 14.2509 90.0025 13.8491 90.4069 13.5184C90.8111 13.1873 91.3015 12.9331 91.8774 12.7553C92.4535 12.5771 93.1032 12.4885 93.8261 12.4885C94.6837 12.4885 95.4252 12.5803 96.0499 12.7644C96.675 12.9484 97.1897 13.1504 97.5944 13.3713L96.767 15.633C96.4118 15.449 96.0164 15.2866 95.5813 15.1453C95.1465 15.0045 94.6226 14.9343 94.0096 14.9343C93.3236 14.9343 92.8305 15.0291 92.5299 15.219C92.2298 15.4093 92.0795 15.7005 92.0795 16.0927C92.0795 16.3253 92.1348 16.5215 92.2449 16.6806C92.3552 16.8405 92.5115 16.9844 92.7136 17.1131C92.916 17.2418 93.1487 17.3583 93.4124 17.4628C93.6756 17.5667 93.9666 17.6738 94.2854 17.784C94.9469 18.0291 95.5232 18.2717 96.0132 18.5106C96.5035 18.7495 96.911 19.0284 97.2355 19.3476C97.5603 19.6662 97.8023 20.0401 97.9617 20.4693C98.121 20.8981 98.2007 21.419 98.2007 22.0318C98.2007 23.2209 97.784 24.1439 96.9505 24.7999C96.1173 25.4554 94.861 25.7833 93.1822 25.7833C92.6186 25.7833 92.1101 25.7496 91.6567 25.682C91.2033 25.6144 90.8019 25.5317 90.4525 25.4343C90.1033 25.3355 89.803 25.2317 89.5519 25.1215C89.3008 25.0107 89.0894 24.9068 88.9177 24.8087L89.7263 22.5284C90.1064 22.7366 90.5749 22.9239 91.1326 23.0896C91.6906 23.2553 92.3738 23.3373 93.1824 23.3373ZM83.8996 12.7827H86.7673V25.5261H83.8996V20.1198H79.0837V25.5261H76.216V12.7827H79.0837V17.6559H83.8996V12.7827ZM70.1131 25.7833C68.042 25.7833 66.4643 25.207 65.3797 24.0553C64.2953 22.9025 63.7529 21.2661 63.7529 19.1452C63.7529 18.0911 63.9185 17.1502 64.2493 16.3223C64.5801 15.4948 65.0338 14.7963 65.6096 14.226C66.1857 13.656 66.8721 13.224 67.6682 12.9298C68.4648 12.6356 69.3289 12.4885 70.26 12.4885C70.7993 12.4885 71.2897 12.5287 71.7308 12.6078C72.172 12.6879 72.558 12.7797 72.8888 12.884C73.2196 12.9879 73.4954 13.0955 73.716 13.2056C73.9365 13.3158 74.0959 13.4018 74.1939 13.4629L73.3667 15.7802C72.9746 15.5719 72.5179 15.3935 71.9973 15.2464C71.4767 15.0997 70.8851 15.0259 70.2235 15.0259C69.7821 15.0259 69.3503 15.0997 68.9275 15.2464C68.5047 15.3935 68.131 15.6298 67.8062 15.9547C67.4817 16.2795 67.2211 16.6992 67.0252 17.2146C66.8292 17.7293 66.7309 18.3546 66.7309 19.0903C66.7309 19.6783 66.7955 20.2267 66.924 20.7356C67.0526 21.2445 67.261 21.6828 67.549 22.0502C67.8371 22.4183 68.2137 22.7094 68.6796 22.9239C69.1454 23.138 69.7089 23.2455 70.3705 23.2455C70.7875 23.2455 71.161 23.2207 71.4918 23.1723C71.8228 23.1233 72.1169 23.0647 72.3743 22.9971C72.6317 22.9295 72.8584 22.8531 73.0545 22.7673C73.2505 22.6818 73.428 22.6023 73.5873 22.5284L74.3778 24.8271C73.9734 25.0723 73.4038 25.2928 72.6684 25.4889C71.9332 25.6853 71.0811 25.7833 70.1131 25.7833ZM53.1651 25.5259V12.7825H61.7679V15.1913H56.0326V17.692H61.1242V20.0455H56.0326V23.1168H62.1907V25.5256L53.1651 25.5259ZM51.3267 12.7827V15.2285H47.485V25.5259H44.6173V15.2285H40.7754V12.7827H51.3267Z" fill="white"/>
<path d="M145.632 33.2341V29.2137H148.346V29.9736H146.537V30.7624H148.143V31.505H146.537V32.4742H148.479V33.2341H145.632ZM139.649 29.9388C139.584 29.9388 139.524 29.9409 139.472 29.9446C139.42 29.9489 139.371 29.9526 139.325 29.9563V31.0469H139.58C139.92 31.0469 140.163 31.0047 140.311 30.9192C140.457 30.8343 140.531 30.6894 140.531 30.4842C140.531 30.2874 140.457 30.1466 140.308 30.0638C140.159 29.9805 139.939 29.9388 139.649 29.9388ZM139.597 29.1672C140.2 29.1672 140.662 29.2748 140.983 29.4895C141.304 29.7042 141.464 30.0375 141.464 30.4898C141.464 30.7725 141.399 31.0013 141.27 31.1775C141.14 31.3536 140.954 31.4918 140.71 31.5925C140.791 31.6927 140.876 31.8083 140.965 31.9374C141.054 32.0672 141.142 32.2022 141.229 32.3435C141.316 32.4848 141.4 32.6319 141.482 32.7844C141.562 32.9373 141.638 33.087 141.708 33.2343H140.696C140.622 33.103 140.548 32.969 140.473 32.834C140.396 32.6986 140.319 32.5666 140.24 32.4396C140.161 32.312 140.081 32.1908 140.004 32.0768C139.926 31.9629 139.848 31.859 139.771 31.7662H139.324V33.2343H138.42V29.2718C138.617 29.2333 138.821 29.2063 139.032 29.1906C139.242 29.1752 139.431 29.1672 139.597 29.1672ZM131.561 33.2341V29.2137H134.275V29.9736H132.466V30.7624H134.072V31.505H132.466V32.4742H134.408V33.2341H131.561ZM126.384 29.2137H127.289V33.2341H126.384V31.5285H124.865V33.2341H123.96V29.2137H124.865V30.7514H126.384V29.2137ZM116.144 33.2341C115.885 32.7738 115.605 32.3191 115.303 31.8709C115.002 31.4221 114.681 30.9987 114.341 30.6V33.2341H113.448V29.2137H114.184C114.312 29.3413 114.453 29.4979 114.607 29.6835C114.762 29.869 114.919 30.0673 115.08 30.2783C115.241 30.4887 115.4 30.7075 115.559 30.9339C115.717 31.16 115.866 31.3773 116.005 31.5866V29.2137H116.904V33.2341H116.144ZM107.531 30.1243C107.511 30.1824 107.482 30.263 107.442 30.3622C107.404 30.4628 107.359 30.5788 107.31 30.7112C107.261 30.843 107.205 30.9875 107.144 31.1462C107.082 31.3039 107.02 31.4704 106.956 31.6441H108.106C108.044 31.4706 107.985 31.3028 107.927 31.1447C107.87 30.9859 107.815 30.841 107.762 30.7086C107.711 30.5769 107.666 30.4608 107.626 30.3606C107.587 30.26 107.555 30.1818 107.531 30.1243ZM108.619 33.2341C108.573 33.0939 108.526 32.9509 108.474 32.8038C108.423 32.6567 108.371 32.51 108.32 32.364H106.75C106.7 32.5107 106.649 32.6578 106.598 32.8049C106.547 32.9526 106.5 33.095 106.456 33.2341H105.516C105.668 32.8012 105.811 32.4003 105.946 32.0333C106.083 31.6657 106.215 31.3192 106.346 30.995C106.475 30.6697 106.603 30.3617 106.729 30.0694C106.855 29.7772 106.986 29.4921 107.122 29.2137H107.979C108.111 29.4921 108.242 29.7774 108.369 30.0694C108.498 30.3617 108.626 30.6695 108.757 30.995C108.887 31.3192 109.02 31.6657 109.156 32.0333C109.292 32.4003 109.435 32.8012 109.587 33.2341H108.619ZM100.467 29.9098C100.045 29.9098 99.7411 30.0269 99.5535 30.2611C99.3661 30.4948 99.2721 30.8153 99.2721 31.2207C99.2721 31.418 99.2955 31.5972 99.3417 31.7575C99.3881 31.9178 99.4574 32.0565 99.5505 32.1724C99.6433 32.288 99.7591 32.3781 99.8985 32.442C100.038 32.5057 100.2 32.5379 100.385 32.5379C100.486 32.5379 100.572 32.5357 100.643 32.5321C100.715 32.5277 100.778 32.5204 100.832 32.5083V31.1104H101.736V33.1006C101.628 33.1434 101.454 33.1881 101.215 33.2367C100.975 33.2853 100.679 33.3094 100.327 33.3094C100.026 33.3094 99.7521 33.263 99.5069 33.1702C99.2611 33.0773 99.0515 32.9418 98.8772 32.7641C98.7034 32.5859 98.5691 32.3675 98.4743 32.1085C98.3795 31.8491 98.3322 31.5532 98.3322 31.2205C98.3322 30.884 98.3845 30.5866 98.4888 30.3271C98.5933 30.0682 98.736 29.8489 98.9178 29.669C99.0994 29.4891 99.3132 29.3526 99.5587 29.2597C99.8044 29.1668 100.066 29.1204 100.344 29.1204C100.534 29.1204 100.705 29.1331 100.858 29.1584C101.011 29.1832 101.142 29.2122 101.252 29.2454C101.362 29.278 101.453 29.3119 101.525 29.3467C101.596 29.3815 101.647 29.4089 101.678 29.4279L101.417 30.1531C101.294 30.0876 101.152 30.0302 100.991 29.9822C100.831 29.934 100.656 29.9098 100.467 29.9098ZM94.4083 31.2207C94.4083 31.565 94.3571 31.8679 94.2545 32.1288C94.1522 32.3897 94.012 32.6088 93.8341 32.7844C93.6564 32.9604 93.4446 33.0928 93.1991 33.182C92.9536 33.2706 92.6899 33.3155 92.4075 33.3155C92.1331 33.3155 91.8739 33.2706 91.6304 33.182C91.3868 33.0928 91.1741 32.9606 90.9923 32.7844C90.8105 32.6088 90.6678 32.3899 90.5633 32.1288C90.459 31.8679 90.4067 31.565 90.4067 31.2207C90.4067 30.8769 90.461 30.5743 90.5689 30.3131C90.6773 30.0522 90.8233 29.8321 91.0068 29.6545C91.1905 29.4768 91.4032 29.3435 91.6449 29.2543C91.8865 29.1657 92.1406 29.1208 92.4075 29.1208C92.6819 29.1208 92.9408 29.1657 93.1846 29.2543C93.4282 29.3435 93.6406 29.4768 93.8224 29.6545C94.004 29.8323 94.1472 30.0522 94.2517 30.3131C94.3562 30.5743 94.4083 30.8769 94.4083 31.2207ZM91.3406 31.2207C91.3406 31.418 91.3648 31.5962 91.4132 31.7549C91.4618 31.913 91.5313 32.0498 91.6222 32.1636C91.7129 32.2774 91.8241 32.3655 91.9553 32.4278C92.0868 32.4895 92.2376 32.5206 92.4079 32.5206C92.5744 32.5206 92.724 32.4895 92.8573 32.4278C92.9905 32.3655 93.1028 32.2774 93.1935 32.1636C93.2844 32.0498 93.3541 31.913 93.4025 31.7549C93.4506 31.5962 93.475 31.418 93.475 31.2207C93.475 31.0235 93.4506 30.8453 93.4025 30.6844C93.3541 30.5241 93.2844 30.3865 93.1935 30.2725C93.1028 30.1587 92.9905 30.0705 92.8573 30.0083C92.724 29.9466 92.5742 29.9155 92.4079 29.9155C92.2378 29.9155 92.0871 29.9476 91.9553 30.0114C91.8241 30.0751 91.7129 30.1639 91.6222 30.2781C91.5313 30.392 91.4618 30.5291 91.4132 30.69C91.3648 30.8505 91.3406 31.0276 91.3406 31.2207ZM86.7728 32.4569V33.2343H84.0878V29.2139H84.9925V32.4571L86.7728 32.4569ZM78.4642 32.5433C78.5919 32.5433 78.6972 32.5327 78.7803 32.5118C78.8635 32.4906 78.9302 32.4617 78.9805 32.4247C79.0306 32.3884 79.0654 32.3446 79.0848 32.2945C79.104 32.2439 79.1139 32.188 79.1139 32.1258C79.1139 31.9944 79.052 31.8854 78.9285 31.7983C78.8047 31.7113 78.5921 31.6175 78.2904 31.5173C78.1589 31.4709 78.0276 31.4177 77.8961 31.3575C77.7646 31.2974 77.6468 31.222 77.5425 31.1313C77.438 31.0406 77.3529 30.9298 77.2872 30.8006C77.2214 30.6708 77.1886 30.5131 77.1886 30.3276C77.1886 30.142 77.2233 29.9749 77.2931 29.826C77.3626 29.6768 77.4611 29.5502 77.5887 29.4459C77.7163 29.3415 77.8709 29.2614 78.0527 29.2054C78.2345 29.1491 78.4394 29.121 78.6674 29.121C78.9382 29.121 79.172 29.15 79.3692 29.2081C79.5663 29.2662 79.7287 29.3299 79.8563 29.3994L79.5952 30.1129C79.483 30.0548 79.3584 30.0038 79.2213 29.9595C79.0842 29.9152 78.9188 29.8926 78.7253 29.8926C78.5087 29.8926 78.353 29.9226 78.2587 29.9826C78.1639 30.0422 78.1166 30.1345 78.1166 30.2578C78.1166 30.3317 78.1339 30.3932 78.1686 30.4434C78.2034 30.4939 78.2526 30.5393 78.3165 30.5799C78.3805 30.6205 78.4539 30.6574 78.5368 30.69C78.6199 30.7226 78.7119 30.7565 78.8123 30.7918C79.0211 30.8686 79.2027 30.9451 79.3575 31.0207C79.5121 31.0961 79.6406 31.1842 79.7431 31.2844C79.8455 31.3851 79.9219 31.5033 79.9723 31.6383C80.0226 31.7737 80.0476 31.9383 80.0476 32.1314C80.0476 32.5068 79.9161 32.798 79.6533 33.0047C79.3903 33.2118 78.9943 33.3153 78.4645 33.3153C78.2865 33.3153 78.1261 33.3047 77.9829 33.2831C77.84 33.2619 77.7132 33.2356 77.6031 33.2051C77.493 33.174 77.3982 33.1414 77.319 33.1064C77.2397 33.0714 77.173 33.0384 77.1188 33.0077L77.3742 32.2878C77.4941 32.3537 77.6418 32.4129 77.8178 32.4649C77.9935 32.5174 78.209 32.5433 78.4642 32.5433ZM68.6015 29.9388C68.5356 29.9388 68.4767 29.9409 68.4247 29.9446C68.3724 29.9489 68.3232 29.9526 68.2767 29.9563V31.0469H68.5317C68.872 31.0469 69.1156 31.0047 69.2627 30.9192C69.4095 30.8343 69.4831 30.6894 69.4831 30.4842C69.4831 30.2874 69.4086 30.1466 69.2596 30.0638C69.1109 29.9805 68.8913 29.9388 68.6015 29.9388ZM68.5492 29.1672C69.1525 29.1672 69.6144 29.2748 69.9353 29.4895C70.2561 29.7042 70.4165 30.0375 70.4165 30.4898C70.4165 30.7725 70.3518 31.0013 70.2222 31.1775C70.0929 31.3536 69.9063 31.4918 69.6628 31.5925C69.7439 31.6927 69.8288 31.8083 69.9178 31.9374C70.0067 32.0672 70.0946 32.2022 70.1816 32.3435C70.2686 32.4848 70.3526 32.6319 70.4338 32.7844C70.515 32.9373 70.5904 33.087 70.6601 33.2343H69.6489C69.5747 33.103 69.5002 32.969 69.4248 32.834C69.3484 32.6986 69.2711 32.5666 69.192 32.4396C69.1128 32.312 69.0336 32.1908 68.9558 32.0768C68.8785 31.9629 68.8004 31.859 68.7231 31.7662H68.2765V33.2343H67.3718V29.2718C67.569 29.2333 67.7728 29.2063 67.9837 29.1906C68.1945 29.1752 68.3828 29.1672 68.5492 29.1672ZM61.4991 33.3153C61.2169 33.3153 60.9733 33.2751 60.7684 33.1961C60.5635 33.117 60.3945 33.0069 60.2612 32.8654C60.1276 32.7241 60.0291 32.5558 59.9654 32.3608C59.9015 32.1657 59.8695 31.9499 59.8695 31.7143V29.2137H60.7743V31.6385C60.7743 31.8009 60.7926 31.9396 60.8293 32.0534C60.8662 32.1673 60.9163 32.2601 60.9803 32.3318C61.0442 32.4035 61.1213 32.4547 61.2122 32.4858C61.3033 32.5169 61.4026 32.5323 61.5108 32.5323C61.7312 32.5323 61.91 32.4642 62.0471 32.3292C62.1845 32.1938 62.2531 31.9638 62.2531 31.6385V29.2137H63.1578V31.7143C63.1578 31.9499 63.125 32.1662 63.0592 32.364C62.9933 32.5612 62.8929 32.7306 62.7575 32.8714C62.6224 33.0127 62.45 33.122 62.2415 33.1995C62.0327 33.2764 61.7852 33.3153 61.4991 33.3153ZM55.8292 31.2207C55.8292 31.565 55.778 31.8679 55.6757 32.1288C55.5731 32.3897 55.4332 32.6088 55.2553 32.7844C55.0776 32.9604 54.866 33.0928 54.6202 33.182C54.3745 33.2706 54.1109 33.3155 53.8287 33.3155C53.5542 33.3155 53.2949 33.2706 53.0515 33.182C52.808 33.0928 52.5951 32.9606 52.4135 32.7844C52.2317 32.6088 52.0887 32.3899 51.9845 32.1288C51.8802 31.8679 51.8279 31.565 51.8279 31.2207C51.8279 30.8769 51.8819 30.5743 51.9901 30.3131C52.0985 30.0522 52.2442 29.8321 52.428 29.6545C52.6115 29.4768 52.8242 29.3435 53.0658 29.2543C53.3074 29.1657 53.5618 29.1208 53.8287 29.1208C54.1031 29.1208 54.362 29.1657 54.6055 29.2543C54.8491 29.3435 55.0618 29.4768 55.2434 29.6545C55.4252 29.8323 55.5681 30.0522 55.6726 30.3131C55.7771 30.5743 55.8292 30.8769 55.8292 31.2207ZM52.7616 31.2207C52.7616 31.418 52.7857 31.5962 52.8341 31.7549C52.8825 31.913 52.952 32.0498 53.0429 32.1636C53.1336 32.2774 53.2448 32.3655 53.3761 32.4278C53.5076 32.4895 53.6583 32.5206 53.8287 32.5206C53.9949 32.5206 54.1448 32.4895 54.278 32.4278C54.4112 32.3655 54.5235 32.2774 54.6144 32.1636C54.7053 32.0498 54.7748 31.913 54.8232 31.7549C54.8713 31.5962 54.8957 31.418 54.8957 31.2207C54.8957 31.0235 54.8713 30.8453 54.8232 30.6844C54.7748 30.5241 54.7053 30.3865 54.6144 30.2725C54.5235 30.1587 54.4114 30.0705 54.278 30.0083C54.1448 29.9466 53.9949 29.9155 53.8287 29.9155C53.6583 29.9155 53.5078 29.9476 53.3761 30.0114C53.2446 30.0751 53.1336 30.1639 53.0429 30.2781C52.9518 30.392 52.8825 30.5291 52.8341 30.69C52.7857 30.8505 52.7616 31.0276 52.7616 31.2207ZM46.5572 30.8622C46.7196 30.5885 46.8742 30.3153 47.0212 30.0416C47.1691 29.7669 47.3043 29.491 47.428 29.2137H48.4256C48.2054 29.6472 47.9773 30.0664 47.7413 30.4729C47.5053 30.8784 47.2562 31.2866 46.9932 31.697V33.2343H46.0884V31.7087C45.8257 31.2985 45.5752 30.8888 45.3375 30.4784C45.0999 30.0686 44.8708 29.6472 44.6504 29.2139H45.6998C45.8235 29.4912 45.9569 29.7671 46.0992 30.0418C46.2422 30.3153 46.3948 30.5885 46.5572 30.8622Z" fill="#A9A9A9"/>
</svg>
