<svg width="211" height="60" viewBox="0 0 211 60" fill="none" xmlns="http://www.w3.org/2000/svg">
<mask id="mask0_6_7459" style="mask-type:luminance" maskUnits="userSpaceOnUse" x="0" y="3" width="56" height="54">
<path d="M19.4946 29.3634C19.2782 28.982 19.408 28.4979 19.7856 28.2792C20.1667 28.0603 20.6508 28.1926 20.8694 28.5715L21.8609 30.2919H23.7128V28.0044L22.0597 26.3494H20.5479C20.1107 26.3494 19.7529 25.9951 19.7529 25.5542C19.7529 25.1168 20.1107 24.7587 20.5479 24.7587H22.387C22.5892 24.7623 22.7915 24.8383 22.947 24.9904L25.0257 27.0721C25.1975 27.2185 25.3039 27.4336 25.3039 27.6757V31.0874C25.3039 31.5283 24.9485 31.8826 24.5078 31.8826H21.8631L21.0751 33.2452C20.8565 33.6243 20.369 33.7529 19.9913 33.5341C19.6101 33.3155 19.4803 32.8277 19.7025 32.4464L20.4882 31.0874L19.4946 29.3634ZM35.3155 31.0873L36.1013 32.4463C36.3234 32.8276 36.1936 33.3154 35.8125 33.534C35.4348 33.7528 34.9485 33.6241 34.7287 33.2451L33.9407 31.8825H31.296C30.8552 31.8825 30.4998 31.5282 30.4998 31.0873V27.6756C30.4998 27.4335 30.6062 27.2184 30.7793 27.072L32.8569 24.9903C33.0124 24.8382 33.2147 24.7623 33.4169 24.7623L35.256 24.7587C35.6932 24.7587 36.051 25.1168 36.051 25.5542C36.051 25.9951 35.6932 26.3494 35.256 26.3494H33.7455L32.0912 28.0044V30.2919H33.9442L34.9344 28.5715C35.1531 28.1926 35.6371 28.0603 36.0183 28.2792C36.3959 28.4978 36.5257 28.9819 36.3106 29.3634L35.3155 31.0873ZM15.0868 16.049H10.5224C10.0852 16.049 9.7275 15.691 9.7275 15.2536V12.9296C9.7275 12.6139 9.90985 12.3424 10.1753 12.2127L11.6625 11.3543C12.0402 11.132 12.5277 11.2618 12.7499 11.6431C12.9685 12.0209 12.8399 12.5086 12.4611 12.7274L11.3212 13.387V14.4571H14.6159V9.58112C13.1275 9.84304 11.6228 10.1543 10.1181 10.5121C8.51169 10.8933 6.92399 11.325 5.3562 11.8056C5.36325 12.5484 5.38655 13.2711 5.42282 13.9764C5.47193 14.8815 5.54788 15.7903 5.64725 16.6956C5.69056 17.133 5.37609 17.5236 4.93872 17.5704C4.50499 17.6171 4.11333 17.2991 4.06649 16.864C3.9636 15.9399 3.88765 15.0008 3.83854 14.0557C3.78476 13.0921 3.75907 12.1436 3.75907 11.2219C3.75907 10.85 4.01737 10.5354 4.36231 10.4488C6.15465 9.88501 7.95392 9.38801 9.75092 8.96118C11.5397 8.53662 13.3636 8.17166 15.2121 7.86993C15.2752 7.85014 15.3454 7.84319 15.4143 7.84319C15.8516 7.84319 16.2094 8.201 16.2094 8.63966V14.9283L17.9829 16.7015C18.2939 17.0103 18.2939 17.5142 17.9865 17.8231C17.6778 18.1341 17.1739 18.1341 16.8664 17.8254L15.0868 16.049ZM8.32558 30.9049L8.27532 30.9013H8.266H8.25543L8.20632 30.8954H8.19574C8.11979 30.8816 8.05079 30.8579 7.98064 30.8253C7.93391 30.8018 7.89184 30.7761 7.85091 30.7456H7.84864L7.80532 30.7094L7.79123 30.6988L7.78895 30.6965L7.77838 30.6859L7.77486 30.6824L7.76201 30.6731V30.6696L7.73518 30.6428V30.6393L7.72586 30.6299L7.72233 30.6265L7.71176 30.6159L7.70937 30.61L7.69891 30.5994L7.69539 30.5959L7.68959 30.5865L7.68607 30.5796L7.67549 30.5702V30.5632L7.6556 30.5363L7.65207 30.5304L7.64275 30.5141L7.6357 30.5035C7.61228 30.4672 7.59249 30.4239 7.57612 30.3807C7.01961 29.0778 6.51915 27.735 6.07837 26.3631C5.63054 24.9736 5.24945 23.5609 4.93498 22.1352C4.83914 21.7084 5.11029 21.2837 5.53822 21.1877C5.96615 21.0942 6.38942 21.3632 6.48299 21.7913C6.78813 23.1703 7.15877 24.5328 7.59022 25.879C7.95733 27.0287 8.38174 28.1724 8.85288 29.3128H14.722C14.9442 29.3128 15.1465 29.4062 15.2914 29.5549L17.0744 31.3384C17.2276 31.4915 17.307 31.6975 17.307 31.8999V34.8871C17.307 35.3245 16.9516 35.6823 16.5109 35.6823H13.0841C12.6433 35.6823 12.2855 35.3245 12.2855 34.8871V32.7677C12.2855 32.3269 12.6433 31.9725 13.0841 31.9725C13.5225 31.9725 13.8803 32.3269 13.8803 32.7677V34.0871H15.7158V32.2309L14.39 30.9048H8.32558V30.9049ZM8.05079 36.1703C12.2692 43.4836 18.4761 49.6531 26.4171 54.2413L27.9019 55.0974L29.3867 54.2413C37.3275 49.6531 43.5346 43.4836 47.7541 36.1726C51.9725 28.8592 54.2102 20.3915 54.2102 11.2221V9.0467L52.142 8.39763C48.2242 7.16024 44.2209 6.22936 40.1675 5.606C36.1175 4.98264 32.015 4.66794 27.9019 4.66794C23.7888 4.66794 19.6862 4.98253 15.6362 5.606C11.5828 6.22936 7.57954 7.16024 3.66289 8.39763L1.59462 9.0467V11.2221C1.59474 20.3916 3.83138 28.8592 8.05079 36.1703ZM25.6256 55.6178C17.4391 50.8893 11.0369 44.5174 6.67467 36.9655C2.31372 29.4101 0 20.6711 0 11.2221V7.87959L3.18823 6.87615C7.1856 5.61532 11.2718 4.66442 15.4012 4.0306C19.5342 3.39438 23.7162 3.07275 27.9019 3.07275C32.0875 3.07275 36.2707 3.39438 40.4025 4.0306C44.532 4.66453 48.6182 5.61532 52.612 6.87615L55.8039 7.87959V11.2221C55.8039 20.6711 53.49 29.4101 49.1292 36.9655C44.7682 44.5174 38.3647 50.8892 30.1759 55.6178L27.9019 56.93L25.6256 55.6178ZM47.8232 30.8254C47.7706 30.8523 47.7146 30.8721 47.6572 30.885L47.6443 30.8885L47.6081 30.8954H47.5976L47.5486 30.9013H47.538H47.5287L47.4783 30.9049H41.4104L40.0881 32.231V34.0872H41.9237V32.7678C41.9237 32.327 42.2826 31.9726 42.7199 31.9726C43.1607 31.9726 43.5149 32.327 43.5149 32.7678V34.8872C43.5149 35.3246 43.1607 35.6824 42.7199 35.6824H39.293C38.8522 35.6824 38.4968 35.3246 38.4968 34.8872V31.9C38.4968 31.6976 38.574 31.4917 38.7296 31.3385L40.5126 29.555C40.6553 29.4064 40.861 29.3129 41.0819 29.3129H46.9522C47.4222 28.1725 47.8467 27.0264 48.215 25.8791C48.6452 24.533 49.0136 23.1704 49.321 21.7914C49.4146 21.3633 49.839 21.0943 50.2658 21.1878C50.6937 21.2838 50.9626 21.7084 50.869 22.1353C50.5545 23.561 50.1733 24.9737 49.7256 26.3633C49.2848 27.7351 48.7845 29.0779 48.2244 30.3808L48.2174 30.4006L48.2115 30.4204L48.208 30.4239L48.2009 30.4403L48.1951 30.4542L48.1916 30.4601L48.1881 30.4706L48.1811 30.4766L48.1776 30.4871L48.1718 30.4965L48.1683 30.5036L48.1614 30.5142L48.1578 30.5235L48.152 30.5305L48.1485 30.5364L48.1415 30.547L48.1379 30.5541L48.132 30.5635L48.125 30.5704L48.118 30.5798L48.1158 30.5868L48.1087 30.5961L48.1052 30.5996L48.0959 30.6102L48.0923 30.6161L48.0818 30.6267L48.0782 30.6301L48.0689 30.6395L48.0654 30.6431L48.0561 30.6569L48.0526 30.6592L48.042 30.6698L48.0385 30.6733L48.0291 30.6826L48.0256 30.6862L48.0163 30.6968L48.0128 30.699L47.9988 30.7096V30.7131L47.9859 30.7225L47.9696 30.733V30.7366L47.9567 30.7459H47.9532L47.9391 30.7564V30.7587L47.9227 30.7693L47.9063 30.7787L47.8935 30.7893H47.89L47.8771 30.7987H47.8736L47.8596 30.8092H47.8573L47.8232 30.8254ZM41.1847 14.4571H44.4829V13.387L43.343 12.7274C42.9653 12.5086 42.8356 12.0209 43.0542 11.6431C43.2764 11.2618 43.7604 11.132 44.1416 11.3543L45.63 12.2127C45.8942 12.3425 46.0766 12.6139 46.0766 12.9296V15.2536C46.0766 15.691 45.7188 16.049 45.278 16.049H40.7148L38.9377 17.8256C38.6303 18.1344 38.1263 18.1344 37.8177 17.8233C37.5101 17.5144 37.5101 17.0105 37.8212 16.7017L39.5949 14.9285V8.63988C39.5949 8.20122 39.9527 7.84343 40.3899 7.84343C40.453 7.84343 40.5127 7.85036 40.5687 7.86321L40.5886 7.86674C42.4383 8.17188 44.261 8.53684 46.0474 8.9614C47.8468 9.38823 49.646 9.88534 51.4395 10.449C51.7867 10.5355 52.0429 10.8502 52.0429 11.2221C52.0429 12.1437 52.0195 13.0922 51.9657 14.056C51.9166 15.0011 51.8371 15.9402 51.7377 16.8642C51.6909 17.2994 51.3005 17.6173 50.8631 17.5706C50.4282 17.5239 50.1138 17.1332 50.157 16.6958C50.2563 15.7905 50.3323 14.8818 50.3791 13.9766C50.4189 13.2714 50.4422 12.5486 50.4481 11.8058C48.8803 11.3252 47.2903 10.8935 45.6827 10.5123C44.1781 10.1545 42.6768 9.84327 41.1849 9.58135V14.4571H41.1847ZM28.6969 38.3152H32.7667C33.0824 38.3152 33.3537 38.4965 33.4834 38.7621L34.9484 41.2953H36.3303C36.7711 41.2953 37.1254 41.6531 37.1254 42.0941C37.1254 42.5315 36.7711 42.8893 36.3303 42.8893H35.2863V44.1793C35.2863 44.6203 34.9285 44.9782 34.4902 44.9782H31.697C31.4748 44.9782 31.2726 44.8857 31.1265 44.736L30.1889 43.798C30.0369 43.6425 29.9574 43.4402 29.9574 43.2344V42.2333C29.9574 41.7923 30.3152 41.4378 30.7524 41.4378C31.1932 41.4378 31.5475 41.7922 31.5475 42.2333V42.907L32.0281 43.384H33.6918V42.3034L32.3099 39.9058H28.6971V50.2728C31.3757 48.6319 33.7912 46.818 35.9458 44.8659C38.103 42.9093 40.0122 40.8039 41.6759 38.5794H40.1081L39.1341 39.5549C38.9809 39.7105 38.7763 39.7866 38.574 39.7866L36.8401 39.79C36.4029 39.79 36.0451 39.4322 36.0451 38.9948V36.2522H33.4402V36.7527C33.4402 37.1911 33.0824 37.5492 32.644 37.5492C32.2033 37.5492 31.8456 37.1911 31.8456 36.7527V35.4567C31.8456 35.0158 32.2033 34.6615 32.644 34.6615H36.8401C37.2809 34.6615 37.6387 35.0158 37.6387 35.4567V38.1982H38.2455L39.1773 37.2672C39.3222 37.0941 39.5386 36.9888 39.7794 36.9888H43.2273C43.6681 36.9888 44.0223 37.3432 44.0223 37.7842C44.0223 37.9795 43.9522 38.1549 43.8364 38.2953C41.9179 41.0567 39.6439 43.6555 37.0098 46.0426C34.4482 48.3629 31.5475 50.4857 28.2996 52.3617C28.0284 52.5173 27.6963 52.4937 27.4543 52.3288C24.224 50.4588 21.3408 48.3501 18.7943 46.0459C16.1638 43.6554 13.8897 41.06 11.9712 38.3011C11.8519 38.1619 11.7795 37.9829 11.7795 37.7841C11.7795 37.3467 12.1372 36.9887 12.5779 36.9887H16.0212C16.2632 36.9887 16.4819 37.0975 16.628 37.2671L17.5586 38.1946H18.1654V35.4566C18.1654 35.0157 18.5232 34.6614 18.9604 34.6614H23.1601C23.6008 34.6614 23.9585 35.0157 23.9585 35.4566V36.7501C23.9585 37.191 23.6007 37.549 23.1601 37.549C22.7228 37.549 22.3639 37.191 22.3639 36.7501V36.2519H19.7564V38.9946C19.7564 39.432 19.4009 39.7898 18.9602 39.7898H17.2311C17.0288 39.7863 16.8265 39.7104 16.6699 39.5547L15.696 38.5792H14.1282C15.792 40.8038 17.7012 42.9091 19.8583 44.8693C22.0201 46.8247 24.432 48.6388 27.1071 50.2762V39.9055H23.4943L22.1089 42.3032V43.3838H23.7762L24.2531 42.9068V42.233C24.2531 41.7921 24.6109 41.4376 25.0516 41.4376C25.4889 41.4376 25.8478 41.792 25.8478 42.233V43.2342C25.8478 43.44 25.7684 43.6424 25.6116 43.7978L24.6774 44.7358C24.5313 44.8856 24.3289 44.9779 24.1045 44.9779H21.3137C20.8765 44.9779 20.5187 44.6201 20.5187 44.1791V42.889H19.4747C19.0339 42.889 18.675 42.5312 18.675 42.0902C18.675 41.6528 19.0339 41.295 19.4747 41.295H20.8566L22.3215 38.7617C22.4501 38.4962 22.7226 38.3149 23.0335 38.3149H27.1068V26.5024L24.1968 23.5948L24.2003 23.5913L22.1414 21.5329H18.2914V23.9457C18.2914 24.1714 18.1978 24.3736 18.0493 24.5164L15.9576 26.6075C15.8022 26.7643 15.5999 26.8437 15.3941 26.8437H11.1126C10.6718 26.8437 10.3164 26.4859 10.3164 26.0472V19.493C10.3164 19.0556 10.6718 18.6978 11.1126 18.6978H13.2006C13.5222 18.6978 13.8005 18.8872 13.9255 19.1619L14.6551 20.4309C14.8737 20.8098 14.7451 21.2964 14.3639 21.5127C13.9851 21.7316 13.5023 21.6016 13.2825 21.2205L12.7459 20.2895H11.9075V25.2484H15.0666L16.6999 23.6181V20.7363C16.6999 20.2989 17.0542 19.9409 17.495 19.9409H22.4662C22.6685 19.9444 22.8707 20.0205 23.0262 20.1725L23.9675 21.1139V18.9163L22.4008 17.3513C22.0922 17.0426 22.0886 16.5396 22.3973 16.2273C22.7047 15.9198 23.2087 15.9163 23.5209 16.2239L25.3203 18.025C25.4757 18.177 25.5518 18.383 25.5518 18.5853L25.5553 22.6962L27.1068 24.2471V8.42698C25.8102 8.44108 24.5277 8.48657 23.265 8.56266C21.9626 8.64227 20.6542 8.75578 19.3378 8.9042V10.9333L20.7303 12.3264H23.9279L24.7896 10.8269C25.0117 10.4491 25.4993 10.3205 25.8769 10.5393C26.2546 10.7614 26.3843 11.2457 26.1657 11.627L25.1018 13.4738C24.9684 13.7345 24.6973 13.9171 24.3863 13.9171H20.4018C20.1972 13.9171 19.9949 13.8411 19.8382 13.6854L17.9899 11.8352C17.8401 11.69 17.7478 11.4878 17.7478 11.2622V8.19542C17.7478 8.15926 17.7513 8.12524 17.7536 8.08908L17.7571 8.07623V8.06929L17.7607 8.05622V8.04927L17.7677 8.01663L17.7712 8.01311L17.7911 7.94067V7.93714L17.7969 7.92303V7.92065L17.811 7.88676V7.88334L17.8274 7.85048V7.84695L17.8438 7.81784L17.8473 7.81431L17.8531 7.80021V7.79793L17.8637 7.78383V7.78041L17.873 7.76757V7.76404L17.8836 7.75119H17.8871L17.8929 7.73481H17.8964L17.9069 7.72094V7.71844L17.9326 7.68806L17.9431 7.67522L17.956 7.66111V7.65884L17.9794 7.63189H17.9829L18.0099 7.60846V7.60504L18.0227 7.5956L18.0262 7.5922L18.0531 7.56876H18.0555L18.0694 7.55932V7.55591L18.0823 7.54874L18.0858 7.54534L18.0987 7.5359H18.1022L18.115 7.52532H18.1186L18.1327 7.51599L18.1349 7.51247L18.149 7.50553H18.1526L18.1654 7.49608H18.1689L18.1818 7.48552H18.1853L18.1981 7.47983L18.2017 7.4763L18.2216 7.46936L18.2344 7.4622H18.2379L18.252 7.45628L18.2543 7.45287L18.2718 7.44934L18.2742 7.44583L18.2882 7.44241L18.3642 7.41898H18.3713L18.404 7.41306H18.4111L18.4239 7.40954H18.431L18.4836 7.40261L18.5035 7.39908C20.0445 7.21438 21.6018 7.07154 23.1696 6.97805C24.7644 6.87865 26.3451 6.83293 27.9023 6.83293H27.9421C29.4901 6.83293 31.0544 6.88217 32.6351 6.97805C34.2029 7.07154 35.7637 7.21438 37.3012 7.39908L37.321 7.40261L37.3748 7.40954H37.3806L37.3947 7.41306H37.4005L37.4344 7.41898H37.4402L37.5161 7.44241L37.5302 7.44583L37.5338 7.44934L37.5466 7.45287L37.5537 7.45628L37.5665 7.4622H37.57L37.5829 7.46936L37.6028 7.4763L37.6063 7.47983L37.6191 7.48552H37.6227L37.6355 7.49608H37.639L37.653 7.50553H37.6554L37.6694 7.51247L37.6729 7.51599L37.6858 7.52532H37.6893L37.7021 7.5359H37.7057L37.7185 7.54534L37.722 7.54874L37.7349 7.55591V7.55932L37.749 7.56876H37.7525L37.7782 7.5922L37.7817 7.5956L37.7922 7.60504L37.7957 7.60846L37.8214 7.63189L37.8483 7.65884V7.66111L37.8612 7.67522L37.8718 7.68806L37.8952 7.71844L37.8975 7.72094L37.9079 7.73481L37.9172 7.75119H37.9208L37.9278 7.76404L37.9313 7.76757L37.9373 7.78041L37.9408 7.78383L37.9478 7.79793L37.9513 7.80021L37.9571 7.81431L37.9607 7.81784L37.977 7.84695V7.85048L37.991 7.88334L37.9946 7.88676L38.0074 7.92065V7.92303L38.0144 7.93714V7.94067L38.0343 8.01311L38.0367 8.01663L38.0403 8.04927L38.0438 8.05622V8.06929L38.0473 8.07623V8.08908C38.0544 8.12524 38.0566 8.16153 38.0566 8.19542V11.2622C38.0566 11.4879 37.9642 11.6902 37.8158 11.8352L35.9662 13.6854C35.8108 13.841 35.6049 13.9171 35.4026 13.9171H31.4188C31.1031 13.9171 30.8319 13.7346 30.7021 13.4738L29.6382 11.627C29.4172 11.2457 29.5457 10.7615 29.9269 10.5393C30.3045 10.3205 30.7921 10.4491 31.0108 10.8269L31.8759 12.3264H35.0701L36.4626 10.9333V8.9042C35.1496 8.75567 33.8413 8.64216 32.5424 8.56266C31.2762 8.48669 29.9937 8.44347 28.697 8.43062V24.2513L30.2486 22.6994L30.2521 18.586C30.2521 18.3837 30.328 18.1777 30.4836 18.0256L32.2841 16.2246C32.5915 15.917 33.0955 15.9205 33.4042 16.228C33.7151 16.5403 33.7117 17.0432 33.4007 17.352L31.8363 18.917V21.1146L32.7774 20.1732C32.9329 20.0212 33.1352 19.9452 33.3374 19.9452L38.3087 19.9417C38.7495 19.9417 39.1037 20.2997 39.1037 20.7371V23.6189L40.7381 25.2491H43.896V20.2902H43.0578L42.5212 21.2213C42.3025 21.6025 41.8184 21.7324 41.4373 21.5135C41.0597 21.2972 40.9299 20.8106 41.145 20.4317L41.8781 19.1627C42.0043 18.8878 42.2826 18.6986 42.6006 18.6986H44.6911C45.1294 18.6986 45.4872 19.0564 45.4872 19.4938V26.048C45.4872 26.4867 45.1294 26.8444 44.6911 26.8444H40.406C40.2038 26.8444 40.0015 26.7651 39.846 26.6084L37.7556 24.5172C37.606 24.3744 37.5135 24.1722 37.5135 23.9465V21.5337H33.6624L31.6034 23.5921L28.6969 26.4996V38.3152Z" fill="white"/>
</mask>
<g mask="url(#mask0_6_7459)">
<path d="M55.8039 3.07275H0V56.9302H55.8039V3.07275Z" fill="#3C72FC"/>
</g>
<path d="M210.324 30.9479H197.475C196.984 30.9479 196.444 30.8579 195.861 30.6859C195.277 30.5141 194.734 30.2287 194.233 29.8309C193.736 29.4333 193.322 28.9188 192.987 28.2823C192.652 27.6461 192.486 26.8695 192.486 25.9479V13.0921C192.486 12.8465 192.537 12.6114 192.623 12.3916C192.719 12.1705 192.838 11.9776 193.004 11.815C193.163 11.6523 193.348 11.5272 193.568 11.4302C193.789 11.3447 194.029 11.2944 194.283 11.2944H210.324V14.8558H196.053V25.948C196.053 26.4123 196.173 26.7667 196.421 27.0159C196.666 27.2615 197.031 27.3843 197.501 27.3843H210.324L210.324 30.9479ZM208.726 22.9153H197.475V19.3283H208.726V22.9153ZM188.994 17.9025C188.994 18.7142 188.891 19.4405 188.693 20.0803C188.49 20.7165 188.218 21.2838 187.876 21.7738C187.535 22.2614 187.138 22.6766 186.691 23.0275C186.247 23.3761 185.779 23.6603 185.286 23.8859C184.802 24.1083 184.305 24.2673 183.81 24.3703C183.31 24.4697 182.84 24.5199 182.403 24.5199L189.842 30.9479H184.338L176.911 24.5199H174.348V20.9551H182.403C182.849 20.9189 183.261 20.8265 183.631 20.6767C184 20.5246 184.318 20.3189 184.589 20.0674C184.858 19.8113 185.067 19.5001 185.212 19.1423C185.358 18.781 185.431 18.3692 185.431 17.9025V15.6512C185.431 15.4489 185.408 15.2991 185.358 15.1938C185.305 15.0909 185.239 15.0114 185.166 14.9646C185.087 14.912 185.007 14.8781 184.917 14.8687C184.829 14.8617 184.749 14.8558 184.679 14.8558H172.924V30.9479H169.357V13.0921C169.357 12.8465 169.404 12.6114 169.5 12.3916C169.59 12.1705 169.716 11.9776 169.875 11.815C170.034 11.6523 170.222 11.5272 170.445 11.4302C170.663 11.3447 170.902 11.2944 171.154 11.2944H184.679C185.474 11.2944 186.144 11.4408 186.691 11.7262C187.241 12.0172 187.685 12.3752 188.026 12.8126C188.368 13.2407 188.617 13.712 188.765 14.2161C188.921 14.7166 188.994 15.1869 188.994 15.6277V17.9025H188.994ZM165.225 29.1516C165.225 29.41 165.178 29.6486 165.086 29.8674C164.996 30.0824 164.864 30.2756 164.701 30.4346C164.539 30.5935 164.346 30.7189 164.125 30.8124C163.905 30.9012 163.677 30.948 163.428 30.948H155.398C154.643 30.948 153.874 30.865 153.099 30.7025C152.322 30.5364 151.571 30.2849 150.845 29.9435C150.119 29.5983 149.436 29.1609 148.796 28.6334C148.157 28.1038 147.6 27.4732 147.116 26.7471C146.639 26.0218 146.261 25.1891 145.987 24.2546C145.714 23.319 145.575 22.2721 145.575 21.1214V11.2945H149.138V21.1214C149.138 22.1259 149.277 22.9773 149.559 23.6711C149.835 24.3669 150.189 24.947 150.619 25.4113C151.047 25.8792 151.518 26.244 152.028 26.5084C152.541 26.7704 153.029 26.9669 153.486 27.0989C153.95 27.2253 154.358 27.3049 154.709 27.3376C155.057 27.3704 155.292 27.3843 155.399 27.3843H161.662V11.2945H165.225V29.1516H165.225ZM142.606 30.9479H129.753C129.426 30.9479 129.07 30.9117 128.693 30.8322C128.315 30.7562 127.941 30.6369 127.569 30.4674C127.202 30.3048 126.844 30.093 126.508 29.831C126.167 29.5726 125.872 29.2569 125.611 28.886C125.349 28.5176 125.143 28.0871 124.987 27.5995C124.828 27.1084 124.756 26.5551 124.756 25.948V16.298C124.756 15.9693 124.792 15.6148 124.872 15.2373C124.948 14.8559 125.067 14.4804 125.233 14.1133C125.395 13.7414 125.611 13.387 125.876 13.0523C126.145 12.7132 126.456 12.415 126.83 12.153C127.202 11.8909 127.626 11.6863 128.113 11.5296C128.593 11.3704 129.14 11.2944 129.753 11.2944H142.605V14.8558H129.753C129.286 14.8558 128.931 14.9809 128.687 15.2301C128.441 15.4722 128.315 15.8396 128.315 16.3237V25.948C128.315 26.403 128.441 26.7575 128.692 27.009C128.945 27.2579 129.296 27.3843 129.753 27.3843H142.605V30.9479H142.606ZM121.696 30.9479H108.845C108.354 30.9479 107.817 30.8579 107.23 30.6859C106.647 30.5141 106.103 30.2287 105.603 29.8309C105.109 29.4333 104.692 28.9188 104.36 28.2823C104.022 27.6461 103.86 26.8695 103.86 25.9479V13.0921C103.86 12.8465 103.906 12.6114 103.996 12.3916C104.089 12.1705 104.212 11.9776 104.374 11.815C104.533 11.6523 104.721 11.5272 104.94 11.4302C105.16 11.3447 105.398 11.2944 105.657 11.2944H121.696V14.8558H107.423V25.948C107.423 26.4123 107.545 26.7667 107.794 27.0159C108.036 27.2615 108.401 27.3843 108.874 27.3843H121.696V30.9479ZM120.096 22.9153H108.845V19.3283H120.096V22.9153ZM100.98 25.1656C100.98 25.8686 100.891 26.4989 100.715 27.0627C100.536 27.6264 100.301 28.1199 100.012 28.548C99.7174 28.9785 99.3761 29.3434 98.982 29.6486C98.5903 29.9468 98.1834 30.1948 97.7627 30.3878C97.3418 30.5797 96.9174 30.7189 96.4801 30.8124C96.0451 30.9012 95.6384 30.948 95.2572 30.948H81.5126V27.3843H95.2572C95.9399 27.3843 96.4731 27.182 96.8506 26.7809C97.2283 26.3797 97.4212 25.8394 97.4212 25.1656C97.4212 24.8346 97.3709 24.5364 97.2715 24.2579C97.1686 23.989 97.0224 23.7504 96.8378 23.548C96.6484 23.3458 96.4204 23.1938 96.155 23.0803C95.8826 22.9715 95.5845 22.9153 95.257 22.9153H87.0637C86.4873 22.9153 85.8641 22.8124 85.2012 22.6066C84.5325 22.4006 83.9151 22.0754 83.3458 21.6147C82.7694 21.1575 82.2982 20.5575 81.917 19.8183C81.5393 19.0791 81.3477 18.1774 81.3477 17.1061C81.3477 16.036 81.5393 15.1376 81.917 14.3974C82.2981 13.6617 82.7694 13.0653 83.3458 12.6079C83.9151 12.1435 84.5325 11.8115 85.2012 11.6067C85.8641 11.3974 86.4873 11.2944 87.0637 11.2944H99.1866V14.8558H87.0637C86.3844 14.8558 85.8606 15.0605 85.4829 15.4722C85.1017 15.8863 84.9135 16.4267 84.9135 17.1061C84.9135 17.7893 85.1017 18.333 85.4829 18.7306C85.8605 19.1282 86.3843 19.3283 87.0637 19.3283H95.2572H95.2828C95.6675 19.3376 96.0756 19.3903 96.5 19.4839C96.9302 19.5797 97.3617 19.7318 97.7826 19.9282C98.2058 20.1305 98.6139 20.3856 98.9985 20.6908C99.3796 20.9984 99.721 21.3633 100.016 21.7949C100.31 22.2251 100.55 22.7164 100.722 23.273C100.897 23.83 100.98 24.4604 100.98 25.1656Z" fill="white"/>
<path d="M207.612 40.334C207.612 39.8367 207.533 39.3819 207.37 38.9715C207.211 38.5562 206.985 38.2089 206.691 37.9164C206.399 37.6286 206.048 37.3996 205.64 37.2404C205.229 37.0778 204.775 36.9983 204.281 36.9983H198.663V45.9596H204.281C204.775 45.9596 205.229 45.8765 205.64 45.7211C206.048 45.5618 206.399 45.3328 206.691 45.0415C206.985 44.7502 207.211 44.4018 207.37 43.9936C207.533 43.5865 207.612 43.1316 207.612 42.6274V40.334ZM210.161 42.6273C210.161 43.4836 210.008 44.2695 209.717 44.9887C209.418 45.708 209.007 46.3279 208.483 46.8449C207.963 47.3689 207.34 47.7734 206.621 48.0647C205.902 48.3606 205.123 48.509 204.281 48.509H197.401C197.222 48.509 197.05 48.4764 196.894 48.4096C196.734 48.3431 196.602 48.2542 196.483 48.1407C196.371 48.0249 196.281 47.8892 196.218 47.7372C196.152 47.5782 196.122 47.4085 196.122 47.2224V35.7385C196.122 35.5595 196.152 35.3934 196.218 35.2344C196.281 35.0788 196.371 34.9431 196.483 34.8239C196.602 34.7069 196.734 34.6179 196.894 34.5514C197.05 34.4859 197.222 34.452 197.401 34.452H204.281C205.123 34.452 205.902 34.6018 206.621 34.8928C207.34 35.1876 207.963 35.5922 208.483 36.1128C209.007 36.6333 209.418 37.2532 209.717 37.976C210.008 38.6987 210.161 39.4847 210.161 40.3338V42.6273ZM185.46 48.5092H176.27C175.919 48.5092 175.534 48.4459 175.117 48.3208C174.696 48.198 174.308 47.9923 173.95 47.7103C173.596 47.425 173.301 47.0577 173.062 46.5992C172.82 46.1455 172.703 45.5923 172.703 44.9314V35.7386C172.703 35.5596 172.737 35.3935 172.801 35.2345C172.87 35.0789 172.956 34.9432 173.072 34.824C173.184 34.707 173.321 34.6181 173.476 34.5515C173.635 34.486 173.805 34.4521 173.99 34.4521H185.46V36.9982H175.252V44.9314C175.252 45.2635 175.339 45.515 175.518 45.694C175.69 45.8705 175.951 45.9595 176.291 45.9595H185.46V48.5092H185.46ZM184.317 42.7643H176.271V40.1982H184.317V42.7643ZM159.497 40.334C159.497 39.8367 159.417 39.3819 159.258 38.9715C159.096 38.5562 158.874 38.2089 158.579 37.9164C158.284 37.6286 157.932 37.3996 157.525 37.2404C157.117 37.0778 156.664 36.9983 156.167 36.9983H150.553V45.9596H156.167C156.664 45.9596 157.117 45.8765 157.525 45.7211C157.932 45.5618 158.284 45.3328 158.579 45.0415C158.874 44.7502 159.096 44.4018 159.258 43.9936C159.417 43.5865 159.497 43.1316 159.497 42.6274V40.334ZM162.046 42.6273C162.046 43.4836 161.897 44.2695 161.601 44.9887C161.303 45.708 160.893 46.3279 160.372 46.8449C159.849 47.3689 159.229 47.7734 158.51 48.0647C157.791 48.3606 157.011 48.509 156.167 48.509H149.29C149.108 48.509 148.938 48.4764 148.779 48.4096C148.624 48.3431 148.488 48.2542 148.371 48.1407C148.259 48.0249 148.17 47.8892 148.103 47.7372C148.037 47.5782 148.007 47.4085 148.007 47.2224V35.7385C148.007 35.5595 148.037 35.3934 148.103 35.2344C148.17 35.0788 148.259 34.9431 148.371 34.8239C148.488 34.7069 148.624 34.6179 148.779 34.5514C148.938 34.4859 149.108 34.452 149.29 34.452H156.167C157.011 34.452 157.791 34.6018 158.51 34.8928C159.229 35.1876 159.849 35.5922 160.372 36.1128C160.893 36.6333 161.303 37.2532 161.601 37.976C161.897 38.6987 162.046 39.4847 162.046 40.3338V42.6273ZM136.848 47.4215C136.848 47.6003 136.812 47.7734 136.746 47.9291C136.676 48.0881 136.584 48.2238 136.47 48.3373C136.358 48.4531 136.219 48.542 136.063 48.6052C135.904 48.6717 135.742 48.7045 135.565 48.7045C135.406 48.7045 135.251 48.6753 135.088 48.6157C134.929 48.5595 134.783 48.4624 134.662 48.3304L125.355 38.61V48.5092H122.806V35.5397C122.806 35.2778 122.879 35.0427 123.025 34.8298C123.175 34.6182 123.359 34.4592 123.592 34.3561C123.831 34.2567 124.079 34.2333 124.334 34.2837C124.593 34.3294 124.808 34.4486 124.994 34.6381L134.3 44.3513V34.4521H136.848L136.848 47.4215ZM111.608 48.5092H109.059V34.4522H111.608V48.5092ZM97.8635 48.5092H95.2984V40.1386L90.782 48.0881C90.672 48.2905 90.513 48.4425 90.3178 48.549C90.1155 48.6519 89.9039 48.7045 89.6747 48.7045C89.449 48.7045 89.2445 48.6519 89.0516 48.549C88.8598 48.4426 88.7066 48.2906 88.598 48.0881L84.0604 40.1386V48.5092H81.5117V35.5397C81.5117 35.2451 81.5982 34.9867 81.77 34.7574C81.9466 34.5259 82.171 34.3726 82.4529 34.2965C82.592 34.2639 82.7288 34.2533 82.8644 34.2639C83.0035 34.2732 83.132 34.3002 83.2584 34.3492C83.3881 34.3996 83.5038 34.4661 83.6068 34.5586C83.7155 34.6451 83.802 34.7504 83.8722 34.8732L89.6747 44.9584L95.4749 34.8732C95.6234 34.6276 95.8327 34.4486 96.098 34.3457C96.3598 34.2404 96.6382 34.2241 96.9258 34.2965C97.2017 34.3726 97.4228 34.5258 97.6027 34.7574C97.778 34.9867 97.8634 35.2451 97.8634 35.5397L97.8635 48.5092Z" fill="#A9A9A9"/>
<path d="M68.8588 0H66.75V60H68.8588V0Z" fill="#3C3D52"/>
</svg>
