<svg width="127" height="60" viewBox="0 0 127 60" fill="none" xmlns="http://www.w3.org/2000/svg">
<path d="M14.0176 37.9346V35.6087H23.3578C23.8505 35.6087 24.2052 35.5397 24.4216 35.4014C24.638 35.2633 24.7461 34.9838 24.7461 34.563V33.8958C24.7461 33.5112 24.638 33.2377 24.4216 33.0754C24.2052 32.9132 23.8564 32.832 23.3758 32.832H17.5157C16.8305 32.832 16.2625 32.7689 15.8117 32.6427C15.3609 32.5165 15.0031 32.3243 14.7388 32.0657C14.4743 31.8074 14.2909 31.4828 14.1889 31.0921C14.0866 30.7016 14.0356 30.2418 14.0356 29.7127V29.0996C14.0356 28.4747 14.1015 27.9397 14.234 27.4948C14.3661 27.0503 14.5704 26.6925 14.847 26.4221C15.1234 26.1516 15.484 25.9532 15.9289 25.8271C16.3735 25.7008 16.9026 25.6377 17.5157 25.6377H21.3383V27.9636H17.7681C17.3472 27.9636 17.0379 28.0448 16.8395 28.2071C16.6412 28.3694 16.542 28.697 16.542 29.1897V29.5864C16.542 29.9713 16.6322 30.2445 16.8124 30.4068C16.9927 30.5691 17.3052 30.6503 17.75 30.6503H23.502C24.1872 30.6503 24.767 30.7074 25.242 30.8215C25.7167 30.9359 26.1044 31.119 26.405 31.3715C26.7054 31.6239 26.9218 31.9484 27.0542 32.3451C27.1863 32.7418 27.2525 33.2169 27.2525 33.7695V34.7432C27.2525 35.3202 27.1863 35.8102 27.0542 36.2127C26.9217 36.6156 26.7054 36.9429 26.405 37.1954C26.1044 37.4478 25.7167 37.6343 25.242 37.7543C24.767 37.8746 24.1872 37.9346 23.502 37.9346L14.0176 37.9346Z" fill="white"/>
<path d="M33.5631 35.6086C33.1664 35.6086 32.8388 35.5816 32.5804 35.5275C32.3218 35.4735 32.1206 35.3742 31.9764 35.23C31.8321 35.0858 31.7329 34.8936 31.6789 34.6531C31.6247 34.4127 31.5977 34.1062 31.5977 33.7335V32.868H42.0738V30.6863H28.875V33.7155C28.875 34.497 28.95 35.1551 29.1004 35.6898C29.2506 36.2248 29.5061 36.6575 29.8667 36.988C30.2273 37.3187 30.708 37.5591 31.3092 37.7092C31.9102 37.8597 32.6616 37.9346 33.5631 37.9346H42.146V35.6087L33.5631 35.6086Z" fill="white"/>
<path d="M48.5104 37.9346C47.6088 37.9346 46.8574 37.8597 46.2565 37.7093C45.6553 37.5592 45.1746 37.3188 44.814 36.9881C44.4534 36.6575 44.1979 36.2248 44.0476 35.6899C43.8972 35.1551 43.8223 34.497 43.8223 33.7155V29.8569C43.8223 29.0877 43.8972 28.4325 44.0476 27.8915C44.1979 27.3506 44.4534 26.915 44.814 26.5843C45.1746 26.2538 45.6553 26.0135 46.2565 25.8631C46.8574 25.713 47.6088 25.6377 48.5104 25.6377H57.0391V27.9997H48.6365C48.2157 27.9997 47.8702 28.0329 47.5998 28.0989C47.3293 28.1651 47.1157 28.2764 46.9596 28.4324C46.8033 28.5888 46.695 28.7962 46.6351 29.0545C46.5748 29.3131 46.5449 29.6286 46.5449 30.0011V33.6072C46.5449 33.9921 46.5748 34.3105 46.6351 34.5629C46.6951 34.8153 46.8033 35.0199 46.9596 35.176C47.1157 35.3323 47.3321 35.4405 47.6088 35.5005C47.8852 35.5608 48.2337 35.5906 48.6546 35.5906H57.039V37.9346H48.5104Z" fill="white"/>
<path d="M63.44 37.9346C62.5384 37.9346 61.7871 37.8597 61.1861 37.7093C60.5849 37.5592 60.1043 37.3188 59.7436 36.9881C59.383 36.6575 59.1275 36.2248 58.9773 35.6899C58.8269 35.1551 58.752 34.497 58.752 33.7155V25.6377H61.5107V33.6253C61.5107 34.0101 61.5495 34.3257 61.6279 34.572C61.7059 34.8185 61.8291 35.0199 61.9976 35.176C62.1657 35.3323 62.3911 35.4405 62.6737 35.5005C62.956 35.5608 63.3017 35.5906 63.7105 35.5906H67.8397C68.2482 35.5906 68.5939 35.5608 68.8765 35.5005C69.1588 35.4405 69.3842 35.3323 69.5526 35.176C69.7209 35.0199 69.8439 34.8153 69.9223 34.5629C70.0004 34.3105 70.0395 33.9921 70.0395 33.6072V25.6377H72.7622V33.7155C72.7622 34.497 72.687 35.1551 72.5369 35.6898C72.3864 36.2248 72.1311 36.6575 71.7705 36.988C71.4099 37.3187 70.929 37.5591 70.328 37.7092C69.7268 37.8597 68.9695 37.9346 68.0561 37.9346L63.44 37.9346Z" fill="white"/>
<path d="M84.716 37.9346L77.5216 33.463V37.9346H74.7988V25.6377H84.4274C85.293 25.6377 86.0322 25.6917 86.6453 25.8C87.2584 25.9081 87.7602 26.1005 88.1509 26.3769C88.5414 26.6536 88.8271 27.0323 89.0074 27.5128C89.1877 27.9938 89.2779 28.6009 89.2779 29.3339V30.1814C89.2779 30.8908 89.1815 31.4768 88.9894 31.9393C88.797 32.4023 88.4995 32.7688 88.0968 33.0393C87.6939 33.3097 87.1863 33.499 86.5732 33.6072C85.9601 33.7154 85.2327 33.7695 84.3914 33.7695H82.2277L89.4402 37.9346L84.716 37.9346ZM86.5371 29.4782C86.5371 29.1537 86.5011 28.8894 86.429 28.6849C86.3568 28.4806 86.2365 28.3242 86.0683 28.2161C85.8998 28.1079 85.6654 28.0357 85.3651 27.9997C85.0644 27.9636 84.6917 27.9455 84.2472 27.9455H77.5215V31.696H84.2472C84.6917 31.696 85.0613 31.678 85.356 31.6418C85.6505 31.6058 85.8849 31.5337 86.0593 31.4255C86.2334 31.3173 86.3568 31.1612 86.4289 30.9567C86.5011 30.7525 86.5371 30.482 86.5371 30.1453L86.5371 29.4782Z" fill="white"/>
<path d="M100.548 37.9346V27.9997H95.3906V25.6377H108.463V27.9997H103.306V37.9346H100.548Z" fill="white"/>
<path d="M116.109 37.9346V32.1287L108.896 25.6377H112.593L117.551 30.0192L122.6 25.6377H126.098L118.85 32.1649V37.9347H116.109V37.9346Z" fill="white"/>
<path d="M91.207 29.4145V37.9346H93.9487V28.1777L91.207 29.4145Z" fill="white"/>
<path d="M31.3092 25.8633C30.708 26.0137 30.2273 26.254 29.8667 26.5846C29.506 26.9153 29.2505 27.3508 29.1003 27.8917C29.0938 27.9152 29.0882 27.94 29.082 27.9639H36.5923V25.6379H33.5631C32.6616 25.6379 31.9102 25.7131 31.3092 25.8633Z" fill="#05E0FF"/>
<path d="M91.209 25.6377V28.278L93.9507 27.0412V25.6377H91.209Z" fill="#05E0FF"/>
<path d="M48.762 9.67734C47.0604 8.18124 45.2078 6.92153 43.2443 5.91022C42.8796 5.72236 42.4317 5.88596 42.2692 6.2626C42.1206 6.60666 42.2655 7.00528 42.5986 7.17694C44.4578 8.13497 46.2118 9.32833 47.8232 10.7451C49.8563 12.5326 51.5652 14.5913 52.9173 16.8488C53.0531 17.0756 53.3061 17.2053 53.5699 17.1883H53.5701C54.0994 17.1543 54.4094 16.572 54.1369 16.117C52.7103 13.7353 50.9071 11.5634 48.762 9.67734Z" fill="url(#paint0_radial_6_7494)"/>
<path d="M49.07 50.0852C49.8208 49.4025 50.5383 48.6742 51.2183 47.9011C51.9354 47.0858 52.5983 46.2359 53.2056 45.3558C53.5427 44.8673 53.1646 44.2052 52.5723 44.2433C52.3533 44.2573 52.1543 44.3724 52.0297 44.553C51.4551 45.3859 50.8288 46.1908 50.1502 46.9623C49.5048 47.6961 48.8233 48.3867 48.1105 49.0343C47.857 49.2646 47.8029 49.6419 47.9825 49.9335C48.2169 50.3141 48.7392 50.3859 49.07 50.0852Z" fill="url(#paint1_radial_6_7494)"/>
<path d="M43.135 54.1844C43.5041 53.997 43.632 53.532 43.415 53.1794L43.4142 53.1781C43.2199 52.8625 42.8166 52.7507 42.4861 52.9183C39.4253 54.4704 36.0526 55.4001 32.5247 55.6268C25.684 56.0664 19.0815 53.8159 13.9336 49.2898C8.78563 44.7636 5.70843 38.5036 5.26885 31.6631C5.07932 28.7139 5.39002 25.8089 6.16745 23.0457C6.27628 22.6589 6.04798 22.2582 5.65832 22.1601C5.28595 22.0664 4.90471 22.2849 4.80063 22.6545C3.97896 25.5723 3.64985 28.6398 3.84998 31.7543C4.31392 38.9738 7.56159 45.5806 12.9947 50.3575C18.4279 55.1344 25.3961 57.5096 32.6158 57.0457C36.3414 56.8062 39.903 55.8242 43.135 54.1844Z" fill="url(#paint2_radial_6_7494)"/>
<path d="M8.06113 15.4186C7.80306 15.8204 8.00347 16.3573 8.46266 16.4885C8.76347 16.5744 9.08504 16.4534 9.25405 16.1902C9.78714 15.36 10.3705 14.5559 11.0036 13.7821C15.6423 8.11245 22.5104 4.6797 29.8297 4.37641C32.2261 4.27713 34.5884 4.50899 36.8647 5.05202C37.2038 5.13292 37.5515 4.95729 37.6858 4.63552L37.6863 4.6343C37.8554 4.22902 37.6196 3.77042 37.1924 3.66856C32.4781 2.54438 27.4142 2.68443 22.4154 4.2493C20.2618 4.92349 18.2089 5.89368 16.3213 7.13036C12.8826 9.38328 10.1176 12.2172 8.06113 15.4186Z" fill="url(#paint3_radial_6_7494)"/>
<path d="M45.3421 10.3917C40.7259 6.97742 35.11 5.31612 29.3137 5.68858C26.1804 5.88994 23.1758 6.67455 20.4219 7.98061C20.0293 8.16681 19.8922 8.65748 20.1332 9.0191L20.1336 9.01975C20.3297 9.31402 20.7116 9.41834 21.0312 9.26676C23.6247 8.03661 26.4541 7.29705 29.4049 7.10742C34.8626 6.7567 40.15 8.32137 44.4967 11.5359C44.787 11.7506 45.1911 11.7172 45.4391 11.4548L45.4391 11.4547C45.7332 11.1434 45.6864 10.6464 45.3421 10.3917Z" fill="url(#paint4_radial_6_7494)"/>
<path d="M52.4303 21.068L52.4307 21.068C52.9744 21.1214 53.3716 20.5677 53.149 20.069C52.2271 18.0031 51.0158 16.0714 49.5393 14.3239C49.2647 13.9988 48.7691 13.9824 48.4768 14.2918C48.2277 14.5552 48.2184 14.9627 48.4523 15.2397C49.8435 16.8865 50.9843 18.7073 51.8525 20.6543C51.9559 20.8861 52.1776 21.0432 52.4303 21.068Z" fill="url(#paint5_radial_6_7494)"/>
<path d="M16.2752 12.298C16.557 12.0649 16.6193 11.6581 16.4165 11.3538L16.4164 11.3536C16.1813 11.0008 15.6935 10.9329 15.3669 11.2032C14.3731 12.0257 13.4372 12.9323 12.5689 13.9199C10.3433 16.451 8.69816 19.3526 7.6857 22.4639C7.53042 22.9411 7.90819 23.4243 8.409 23.3921C8.69925 23.3735 8.94879 23.18 9.0388 22.9035C9.9923 19.9741 11.5411 17.2419 13.6366 14.8587C14.4553 13.9276 15.338 13.0732 16.2752 12.298Z" fill="url(#paint6_radial_6_7494)"/>
<path d="M58.5213 18.2958C57.8049 16.6072 56.9393 15.0008 55.942 13.4919C55.7255 13.1644 55.2829 13.0763 54.9561 13.2939C54.6302 13.511 54.5433 13.9499 54.759 14.2767C55.3814 15.2198 55.9489 16.2018 56.4593 17.2207C56.7284 17.7578 56.979 18.3018 57.2121 18.8518C57.3296 19.1288 57.6096 19.3009 57.91 19.2816L57.9128 19.2814C58.4009 19.2501 58.7122 18.7459 58.5213 18.2958Z" fill="url(#paint7_radial_6_7494)"/>
<path d="M27.3272 1.06959C27.4283 1.38915 27.7392 1.59369 28.0728 1.56084C28.3948 1.52907 28.7181 1.5025 29.0427 1.48167C32.8957 1.23408 36.6812 1.74822 40.294 3.00981C43.7843 4.22862 46.9685 6.09025 49.7581 8.54296C50.859 9.51081 51.8754 10.5521 52.8053 11.6606C53.0378 11.9377 53.4408 11.9963 53.7418 11.7957C54.0926 11.562 54.1651 11.0744 53.8943 10.7514C47.9654 3.67964 38.867 -0.574313 28.9515 0.0628343C28.6104 0.0847498 28.2712 0.112953 27.9338 0.146625C27.4849 0.191442 27.1903 0.637157 27.3264 1.06728L27.3272 1.06959Z" fill="url(#paint8_radial_6_7494)"/>
<path d="M56.7859 42.9466L56.7709 42.9475C56.5248 42.9634 56.3065 43.1078 56.1916 43.326C55.1427 45.3187 53.8598 47.1835 52.352 48.8985C49.8992 51.6881 46.9795 53.9419 43.6739 55.5974C40.2523 57.311 36.5637 58.3054 32.7107 58.553C32.5539 58.5631 32.3972 58.5715 32.2406 58.5786C31.883 58.5948 31.594 58.8749 31.5692 59.232L31.5681 59.2479C31.5391 59.6672 31.8819 60.0183 32.3018 59.9992C32.4682 59.9916 32.6349 59.9826 32.8019 59.9719C43.6305 59.276 52.7461 52.9199 57.455 43.973C57.7101 43.4884 57.3324 42.9115 56.7859 42.9466Z" fill="url(#paint9_radial_6_7494)"/>
<path d="M25.3959 58.0887C24.0649 57.8299 22.7509 57.476 21.4593 57.0249C17.969 55.8061 14.7848 53.9445 11.9952 51.4918C11.3734 50.9451 10.7793 50.3745 10.2119 49.782C9.97401 49.5336 9.59233 49.492 9.30613 49.6827C8.93651 49.929 8.88272 50.4483 9.18996 50.7691C13.4139 55.1787 18.955 58.285 25.1293 59.485C25.5471 59.5661 25.941 59.2599 25.9704 58.8353V58.835C25.9952 58.4767 25.7485 58.1573 25.3959 58.0887Z" fill="url(#paint10_radial_6_7494)"/>
<path d="M4.69279 41.5296C3.34809 38.4756 2.55799 35.2265 2.34111 31.8511C2.09351 27.9982 2.60767 24.2128 3.86929 20.6001C5.08813 17.1099 6.94981 13.9258 9.40258 11.1362C11.3633 8.90624 13.6234 7.02011 16.1396 5.50699C16.4214 5.33751 16.5502 4.99713 16.4509 4.68361C16.3117 4.24371 15.7978 4.05238 15.4025 4.29056C6.10473 9.89349 0.178001 20.3614 0.922231 31.9423C1.17809 35.9236 2.20064 39.6725 3.83439 43.0569C4.02178 43.4451 4.51128 43.5755 4.86999 43.3365C5.16587 43.1393 5.27127 42.7546 5.11694 42.4342C4.96683 42.1228 4.7915 41.7538 4.69279 41.5296Z" fill="url(#paint11_radial_6_7494)"/>
<path d="M38.7461 53.1021C42.397 51.8646 45.7087 49.7686 48.4348 46.9338C48.4695 46.8976 48.567 46.7907 48.6925 46.6518C49.0826 46.2201 48.8155 45.5279 48.2364 45.4711C48.0152 45.4494 47.7979 45.534 47.6463 45.6964C45.0353 48.4927 41.8314 50.5541 38.2872 51.7555C37.9828 51.8587 37.7856 52.1531 37.8062 52.4739C37.8362 52.9415 38.3023 53.2526 38.7461 53.1021Z" fill="url(#paint12_radial_6_7494)"/>
<path d="M26.5177 10.0223C26.8683 9.94664 27.1124 9.62844 27.0894 9.27045V9.27042C27.061 8.82932 26.6464 8.51836 26.2143 8.61153C21.6623 9.59287 17.558 11.9918 14.4264 15.5534C14.0765 15.9513 13.7431 16.3597 13.4257 16.7774C13.1341 17.1613 13.2968 17.7184 13.7481 17.888C14.0469 18.0003 14.3829 17.9022 14.5762 17.6483C14.8726 17.2587 15.1841 16.8779 15.5105 16.5066C18.4349 13.1807 22.2672 10.9396 26.5177 10.0223Z" fill="url(#paint13_radial_6_7494)"/>
<path d="M45.3411 13.5669C42.0783 10.6982 38.1308 8.9018 33.9241 8.31997C33.471 8.25732 33.0738 8.62482 33.1031 9.08121C33.1251 9.42407 33.3862 9.70208 33.7266 9.74921C37.6549 10.2933 41.3409 11.9721 44.3879 14.6509C45.8998 15.9803 47.1877 17.4971 48.229 19.1556C48.4165 19.4542 48.7903 19.5758 49.1162 19.4412L49.1163 19.4411C49.5297 19.2703 49.6894 18.7684 49.4516 18.3895C48.3371 16.6141 46.9595 14.9898 45.3411 13.5669Z" fill="url(#paint14_radial_6_7494)"/>
<path d="M36.6973 46.6091C35.2028 47.131 33.628 47.4528 32.0052 47.5571C31.7831 47.5714 31.5613 47.5813 31.3401 47.5871C30.9365 47.5977 30.6221 47.9398 30.648 48.3427L30.648 48.3437C30.6724 48.7229 30.9907 49.019 31.3706 49.0089C31.612 49.0024 31.854 48.9915 32.0963 48.9759C33.8513 48.8631 35.5544 48.515 37.1706 47.9505C37.5569 47.8155 37.7514 47.3844 37.5949 47.0063L37.5947 47.0059C37.4495 46.6553 37.0556 46.484 36.6973 46.6091Z" fill="url(#paint15_radial_6_7494)"/>
<path d="M42.956 21.5736C43.1698 21.8784 43.5845 21.9634 43.9031 21.7706L43.9036 21.7703C44.2565 21.5567 44.3536 21.0889 44.1165 20.7513C43.3849 19.7096 42.5245 18.7474 41.5442 17.8855C38.3037 15.0363 34.1475 13.6196 29.8413 13.8964C29.7375 13.903 29.6339 13.9108 29.5306 13.9195C29.1462 13.9521 28.8596 14.2885 28.8843 14.6734C28.91 15.0724 29.2593 15.3688 29.6577 15.3355C29.7491 15.3279 29.8407 15.3211 29.9325 15.3152C33.8598 15.0628 37.6501 16.3548 40.6054 18.9532C41.5015 19.7412 42.2877 20.621 42.956 21.5736Z" fill="url(#paint16_radial_6_7494)"/>
<path d="M16.8444 46.8291C17.0418 46.9963 17.236 47.1583 17.3594 47.2553C21.602 50.5907 26.8541 52.2261 32.2821 51.8773C36.0949 51.6323 39.696 50.4269 42.8121 48.3968C43.1222 48.1947 43.2258 47.7883 43.0543 47.4603L43.0526 47.457C42.8561 47.0813 42.3786 46.9545 42.0234 47.1859C39.1131 49.0817 35.7503 50.2079 32.1895 50.4368C27.1541 50.7603 22.2807 49.2558 18.3321 46.1834C18.1823 46.0668 17.9655 45.8878 17.7733 45.727C17.5203 45.5153 17.1561 45.5021 16.8887 45.6952C16.5094 45.9692 16.4873 46.5266 16.8444 46.8291Z" fill="url(#paint17_radial_6_7494)"/>
<path d="M36.4113 13.3257C36.7361 13.4333 37.0917 13.2995 37.2593 13.0013C37.478 12.6121 37.2881 12.1191 36.8645 11.9785C34.5751 11.2187 32.138 10.8994 29.6583 11.0588C25.9493 11.2971 22.4714 12.5834 19.5591 14.7517C19.2092 15.0122 19.1755 15.5242 19.4871 15.8293L19.4878 15.8301C19.7388 16.0758 20.1302 16.0991 20.4121 15.8894C23.1053 13.8862 26.3207 12.6979 29.7495 12.4776C32.0417 12.3303 34.2948 12.6242 36.4113 13.3257Z" fill="url(#paint18_radial_6_7494)"/>
<path d="M45.1861 18.6916C45.5217 18.4462 45.5749 17.9671 45.3038 17.6519C44.7265 16.9807 44.0989 16.345 43.4223 15.7501C42.5674 14.9985 41.658 14.3322 40.7048 13.7538C40.3599 13.5445 39.9105 13.6597 39.7128 14.0115L39.7125 14.012C39.5255 14.3448 39.6338 14.7675 39.9603 14.9654C40.8455 15.5018 41.6898 16.12 42.4835 16.8178C43.1121 17.3705 43.6951 17.9612 44.2311 18.5849C44.4716 18.8648 44.8883 18.9094 45.1861 18.6916Z" fill="url(#paint19_radial_6_7494)"/>
<path d="M14.0438 44.4744C14.3971 44.8924 15.07 44.7704 15.248 44.2529L15.2498 44.2476C15.3338 44.0033 15.2801 43.7342 15.1135 43.5366C14.8058 43.1716 14.51 42.7969 14.2261 42.4132C14.0061 42.1159 13.5961 42.0353 13.2811 42.2292C12.9281 42.4466 12.8324 42.9202 13.0787 43.2535C13.3871 43.6708 13.7088 44.078 14.0438 44.4744Z" fill="url(#paint20_radial_6_7494)"/>
<path d="M64.546 45.0691C64.4595 45.1376 64.3469 45.1871 64.2082 45.2176C64.0695 45.2483 63.9046 45.2636 63.7137 45.2636H62.0383C61.6996 45.2636 61.4365 45.1862 61.2492 45.0313C61.0294 44.8584 60.9196 44.6063 60.9196 44.2749C60.9196 44.2425 60.9339 44.2263 60.9628 44.2263H61.3033C61.3357 44.2263 61.3519 44.2425 61.3519 44.2749C61.3555 44.383 61.3753 44.4748 61.4114 44.5504C61.4474 44.6261 61.5068 44.6837 61.5898 44.7233C61.6473 44.7522 61.723 44.7756 61.8167 44.7935C61.9104 44.8116 62.0202 44.8206 62.1464 44.8206H63.6975C63.82 44.8206 63.9226 44.8116 64.0056 44.7935C64.0884 44.7756 64.1569 44.7503 64.2109 44.7179C64.283 44.6747 64.3334 44.6153 64.3623 44.5396C64.3911 44.464 64.4055 44.374 64.4055 44.2695C64.4055 44.0498 64.3063 43.9004 64.1082 43.8211C64.0289 43.7851 63.9245 43.7599 63.7948 43.7455C63.6651 43.7311 63.5137 43.7238 63.3408 43.7238C63.3011 43.7238 63.2579 43.7238 63.2111 43.7238C63.1642 43.7238 63.1084 43.7257 63.0436 43.7292H62.9571H62.8598C62.8526 43.7292 62.8436 43.7302 62.8328 43.732C62.822 43.7338 62.8093 43.7346 62.795 43.7346H62.7247C62.649 43.7382 62.5824 43.74 62.5248 43.74C62.4671 43.74 62.4202 43.74 62.3842 43.74C61.923 43.74 61.579 43.686 61.352 43.5779C61.0457 43.4339 60.8926 43.1673 60.8926 42.7784C60.8926 42.1553 61.2439 41.8438 61.9464 41.8438H63.6542C64.4252 41.8438 64.8108 42.1733 64.8108 42.8324C64.8108 42.8613 64.7981 42.8756 64.773 42.8756H64.4217C64.3928 42.8756 64.3785 42.8613 64.3785 42.8324C64.3748 42.728 64.355 42.6371 64.319 42.5596C64.2829 42.4822 64.2235 42.4237 64.1407 42.384C64.0181 42.3228 63.8344 42.2922 63.5894 42.2922H61.9356C61.8239 42.2922 61.7311 42.3012 61.6573 42.3192C61.5834 42.3373 61.5249 42.3607 61.4817 42.3894C61.3808 42.4543 61.3303 42.5858 61.3303 42.7838C61.3303 42.9819 61.4294 43.1206 61.6276 43.1998C61.7933 43.2682 62.0473 43.3024 62.3896 43.3024C62.4292 43.3024 62.4851 43.3024 62.5572 43.3024C62.6329 43.3024 62.7229 43.3006 62.8274 43.297C62.8382 43.297 62.8499 43.2962 62.8625 43.2943C62.8751 43.2925 62.8886 43.2916 62.903 43.2916H62.9733C63.0381 43.2881 63.0957 43.2862 63.1463 43.2862C63.1966 43.2862 63.2362 43.2862 63.2651 43.2862C63.5101 43.2862 63.7227 43.3006 63.9029 43.3294C64.083 43.3583 64.2343 43.3996 64.3568 43.4537C64.6775 43.6122 64.8378 43.8877 64.8378 44.2802C64.8379 44.6441 64.7405 44.907 64.546 45.0691Z" fill="#00A9FE"/>
<path d="M71.0328 44.286C71.0112 44.4553 70.9751 44.5958 70.9247 44.7073C70.8706 44.8154 70.7985 44.9082 70.7085 44.9856C70.6184 45.063 70.5121 45.1198 70.3897 45.1557V45.1611C70.2851 45.1935 70.15 45.2188 69.9843 45.2368C69.8186 45.2548 69.6168 45.2638 69.379 45.2638H68.8548C68.3071 45.2638 67.9269 45.2134 67.7144 45.1125C67.4766 45.0081 67.3162 44.8154 67.2334 44.5345C67.2045 44.4301 67.1838 44.2842 67.1713 44.0969C67.1586 43.9096 67.1523 43.6773 67.1523 43.3999C67.1523 43.173 67.1622 42.975 67.1821 42.8057C67.2018 42.6364 67.2369 42.4978 67.2875 42.3897C67.3415 42.2817 67.4126 42.189 67.501 42.1115C67.5892 42.0341 67.6982 41.9737 67.8279 41.9305H67.8333C68.035 41.8621 68.3755 41.8279 68.8548 41.8279H69.379C69.905 41.8279 70.2833 41.8801 70.5139 41.9846C70.6292 42.035 70.7274 42.1088 70.8085 42.2061C70.8896 42.3033 70.9499 42.424 70.9895 42.568C71.0112 42.6689 71.0291 42.813 71.0436 43.0002C71.058 43.1875 71.0652 43.4198 71.0652 43.6971C71.0652 43.9205 71.0544 44.1167 71.0328 44.286ZM70.6328 43.4C70.6328 43.2163 70.6256 43.0579 70.6112 42.9246C70.5968 42.7914 70.5697 42.6869 70.5302 42.6112C70.4797 42.4636 70.3661 42.37 70.1896 42.3303C70.0491 42.2943 69.7771 42.2763 69.3736 42.2763H68.8547C68.4512 42.2763 68.1773 42.2943 68.0332 42.3303C67.8603 42.37 67.7432 42.4636 67.682 42.6112C67.6135 42.7697 67.5793 43.0326 67.5793 43.4V43.6971C67.5793 44.0645 67.6135 44.3274 67.682 44.4858C67.7468 44.6299 67.8657 44.7218 68.0386 44.7614C68.1792 44.7974 68.4512 44.8154 68.8547 44.8154H69.3736C69.7735 44.8154 70.0437 44.7974 70.1843 44.7614C70.3607 44.7218 70.4761 44.6299 70.5302 44.4858C70.5697 44.4102 70.5968 44.3058 70.6112 44.1725C70.6256 44.0393 70.6328 43.8808 70.6328 43.6971V43.4Z" fill="#00A9FE"/>
<path d="M73.4686 45.2638C73.4362 45.2638 73.4199 45.2476 73.4199 45.2151V41.8981C73.4199 41.8621 73.4362 41.844 73.4686 41.844H73.8091C73.8415 41.844 73.8577 41.8621 73.8577 41.8981V44.8208H76.2411C76.2735 44.8208 76.2897 44.837 76.2897 44.8694V45.2152C76.2897 45.2476 76.2735 45.2638 76.2411 45.2638L73.4686 45.2638Z" fill="#00A9FE"/>
<path d="M81.8336 44.286C81.812 44.4553 81.7759 44.5958 81.7255 44.7073C81.6714 44.8154 81.5993 44.9082 81.5093 44.9856C81.4192 45.063 81.3129 45.1198 81.1904 45.1557V45.1611C81.0859 45.1935 80.9508 45.2188 80.7851 45.2368C80.6193 45.2548 80.4176 45.2638 80.1798 45.2638H79.6555C79.1078 45.2638 78.7277 45.2134 78.5152 45.1125C78.2774 45.0081 78.117 44.8154 78.0342 44.5345C78.0053 44.4301 77.9846 44.2842 77.9721 44.0969C77.9594 43.9096 77.9531 43.6773 77.9531 43.3999C77.9531 43.173 77.963 42.975 77.9828 42.8057C78.0026 42.6364 78.0377 42.4978 78.0882 42.3897C78.1423 42.2817 78.2134 42.189 78.3017 42.1115C78.39 42.0341 78.499 41.9737 78.6287 41.9305H78.6341C78.8358 41.8621 79.1763 41.8279 79.6555 41.8279H80.1798C80.7058 41.8279 81.0841 41.8801 81.3147 41.9846C81.43 42.035 81.5282 42.1088 81.6093 42.2061C81.6903 42.3033 81.7506 42.424 81.7903 42.568C81.812 42.6689 81.8299 42.813 81.8444 43.0002C81.8587 43.1875 81.866 43.4198 81.866 43.6971C81.866 43.9205 81.8552 44.1167 81.8336 44.286ZM81.4336 43.4C81.4336 43.2163 81.4264 43.0579 81.412 42.9246C81.3976 42.7914 81.3705 42.6869 81.3309 42.6112C81.2805 42.4636 81.1669 42.37 80.9904 42.3303C80.8499 42.2943 80.5778 42.2763 80.1743 42.2763H79.6555C79.2519 42.2763 78.9781 42.2943 78.834 42.3303C78.6611 42.37 78.5439 42.4636 78.4827 42.6112C78.4142 42.7697 78.38 43.0326 78.38 43.4V43.6971C78.38 44.0645 78.4143 44.3274 78.4827 44.4858C78.5476 44.6299 78.6665 44.7218 78.8394 44.7614C78.9799 44.7974 79.2519 44.8154 79.6555 44.8154H80.1743C80.5743 44.8154 80.8445 44.7974 80.985 44.7614C81.1615 44.7218 81.2769 44.6299 81.3309 44.4858C81.3705 44.4102 81.3976 44.3058 81.412 44.1725C81.4264 44.0393 81.4336 43.8808 81.4336 43.6971V43.4Z" fill="#00A9FE"/>
<path d="M88.112 43.6268C88.1156 43.6304 88.1174 43.6375 88.1174 43.6484C88.1174 43.8609 88.1138 44.041 88.1066 44.1886C88.0994 44.3364 88.0885 44.4479 88.0742 44.5235C88.031 44.7721 87.921 44.9594 87.7445 45.0854C87.6545 45.1467 87.5392 45.1917 87.3986 45.2205C87.2581 45.2494 87.0906 45.2637 86.896 45.2637H85.68C85.4422 45.2637 85.2377 45.2484 85.0666 45.2177C84.8954 45.1872 84.754 45.1377 84.6424 45.0692C84.5415 45.0008 84.4568 44.9152 84.3883 44.8126C84.3198 44.7099 84.2712 44.5848 84.2424 44.4371C84.228 44.3471 84.2172 44.2156 84.21 44.0427C84.2027 43.8698 84.1992 43.6502 84.1992 43.3836C84.1992 42.7678 84.3091 42.3518 84.5289 42.1357H84.5235C84.7432 41.9196 85.1576 41.8115 85.7665 41.8115H86.896C87.2995 41.8115 87.6031 41.8926 87.8067 42.0546C88.0102 42.2167 88.112 42.4616 88.112 42.7893V42.8001C88.112 42.8326 88.0976 42.8488 88.0688 42.8488H87.7283C87.6959 42.8488 87.6796 42.8326 87.6796 42.8001C87.676 42.6957 87.6571 42.6056 87.6229 42.53C87.5886 42.4544 87.5301 42.395 87.4472 42.3517C87.3859 42.323 87.3095 42.2996 87.2176 42.2815C87.1257 42.2636 87.0185 42.2545 86.896 42.2545H85.734C85.5358 42.2545 85.3701 42.2672 85.2368 42.2923C85.1035 42.3176 84.999 42.35 84.9233 42.3896C84.7864 42.4724 84.6981 42.6255 84.6585 42.8488C84.6369 42.9676 84.6261 43.2504 84.6261 43.6969C84.6261 44.1688 84.6801 44.4731 84.7882 44.61C84.9143 44.7541 85.199 44.8261 85.6421 44.8261H86.896C87.2167 44.8261 87.4256 44.772 87.5229 44.6639C87.5661 44.6136 87.6003 44.537 87.6256 44.4344C87.6507 44.3317 87.6634 44.1993 87.6634 44.0373H86.1123C86.0762 44.0373 86.0583 44.0193 86.0583 43.9832V43.6483C86.0583 43.6123 86.0762 43.5943 86.1123 43.5943H88.0742C88.0777 43.5943 88.0813 43.5961 88.085 43.5997L88.112 43.6268Z" fill="#00A9FE"/>
<path d="M93.8815 45.2638H93.849C93.849 45.2602 93.8472 45.2548 93.8436 45.2476L93.849 45.2529L93.4437 44.4588H91.1684L90.7685 45.2529V45.2476C90.7685 45.2548 90.7685 45.2602 90.7685 45.2638H90.7414H90.3631C90.3307 45.2638 90.3145 45.2476 90.3145 45.2151V45.2097C90.3145 45.2026 90.318 45.1954 90.3253 45.1881V45.1989L92.0223 41.8548C92.0294 41.8476 92.0403 41.844 92.0547 41.844H92.5789C92.5897 41.844 92.596 41.8449 92.5979 41.8467C92.5997 41.8486 92.6024 41.8513 92.606 41.8548L94.3138 45.1989V45.1881C94.3173 45.1954 94.3192 45.2026 94.3192 45.2097V45.2151C94.3192 45.2476 94.3047 45.2638 94.2759 45.2638H93.8815ZM91.3954 44.032H93.2167L92.3141 42.2384L91.3954 44.032Z" fill="#00A9FE"/>
<path d="M99.7003 45.2636C99.6822 45.2636 99.6714 45.2582 99.6678 45.2473L97.0791 42.2057H96.971V45.2149C96.971 45.2473 96.9548 45.2635 96.9224 45.2635H96.5819C96.5494 45.2635 96.5332 45.2473 96.5332 45.2149V41.8978C96.5332 41.8618 96.5494 41.8438 96.5819 41.8438H97.3331C97.3439 41.8438 97.3565 41.851 97.3709 41.8654L99.7921 44.7449V41.8978C99.7921 41.8618 99.8101 41.8438 99.8462 41.8438H100.187C100.219 41.8438 100.235 41.8618 100.235 41.8978V45.2149C100.235 45.2473 100.219 45.2635 100.187 45.2635L99.7003 45.2636Z" fill="#00A9FE"/>
<path d="M109.153 45.2638C109.124 45.2638 109.11 45.2476 109.11 45.2151V43.7294H106.305V45.2151C106.305 45.2476 106.289 45.2638 106.256 45.2638H105.916C105.883 45.2638 105.867 45.2476 105.867 45.2151V41.8981C105.867 41.8621 105.883 41.844 105.916 41.844H106.256C106.289 41.844 106.305 41.8621 106.305 41.8981V43.2811H109.11V41.8981C109.11 41.8621 109.124 41.844 109.153 41.844H109.499C109.528 41.844 109.542 41.8621 109.542 41.8981V45.2151C109.542 45.2476 109.528 45.2638 109.499 45.2638H109.153Z" fill="#00A9FE"/>
<path d="M111.973 45.2638C111.94 45.2638 111.924 45.2476 111.924 45.2151V41.8981C111.924 41.8621 111.94 41.844 111.973 41.844H114.858C114.887 41.844 114.902 41.8621 114.902 41.8981V42.2384C114.902 42.2745 114.887 42.2924 114.858 42.2924H112.362V43.2811H114.777C114.806 43.2811 114.821 43.2992 114.821 43.3351V43.6755C114.821 43.7115 114.806 43.7295 114.777 43.7295H112.362V44.8208H114.858C114.887 44.8208 114.902 44.837 114.902 44.8694V45.2152C114.902 45.2476 114.887 45.2638 114.858 45.2638H111.973V45.2638Z" fill="#00A9FE"/>
<path d="M120.451 45.2638C120.418 45.2638 120.402 45.2476 120.402 45.2151C120.402 45.1215 120.408 44.9793 120.418 44.7883C120.426 44.6947 120.431 44.6154 120.435 44.5506C120.438 44.4858 120.44 44.4354 120.44 44.3993C120.44 44.2805 120.429 44.1806 120.408 44.0995C120.386 44.0185 120.357 43.9528 120.321 43.9023C120.267 43.8411 120.192 43.797 120.097 43.7699C120.001 43.7429 119.883 43.7294 119.743 43.7294H117.549V45.2151C117.549 45.2476 117.532 45.2638 117.5 45.2638H117.154C117.122 45.2638 117.105 45.2476 117.105 45.2151V41.8981C117.105 41.8621 117.122 41.844 117.154 41.844H119.554C120.321 41.844 120.705 42.1484 120.705 42.757C120.705 42.9119 120.685 43.0443 120.645 43.1541C120.606 43.264 120.545 43.3459 120.462 43.3999C120.591 43.4576 120.694 43.5638 120.77 43.7187C120.802 43.7871 120.825 43.8664 120.837 43.9564C120.85 44.0464 120.856 44.1419 120.856 44.2427V45.2151C120.856 45.2476 120.844 45.2638 120.818 45.2638H120.451ZM119.646 42.314H117.549V43.2595H119.624C120.053 43.2595 120.267 43.0993 120.267 42.7787C120.267 42.469 120.06 42.314 119.646 42.314Z" fill="#00A9FE"/>
<path d="M123.254 45.2638C123.221 45.2638 123.205 45.2476 123.205 45.2151V41.8981C123.205 41.8621 123.221 41.844 123.254 41.844H126.14C126.169 41.844 126.183 41.8621 126.183 41.8981V42.2384C126.183 42.2745 126.169 42.2924 126.14 42.2924H123.643V43.2811H126.059C126.087 43.2811 126.102 43.2992 126.102 43.3351V43.6755C126.102 43.7115 126.087 43.7295 126.059 43.7295H123.643V44.8208H126.14C126.169 44.8208 126.183 44.837 126.183 44.8694V45.2152C126.183 45.2476 126.169 45.2638 126.14 45.2638H123.254V45.2638Z" fill="#00A9FE"/>
<defs>
<radialGradient id="paint0_radial_6_7494" cx="0" cy="0" r="1" gradientUnits="userSpaceOnUse" gradientTransform="translate(31.0227 29.0119) scale(30.8338 30.833)">
<stop offset="0.0335" stop-color="#05E0FF"/>
<stop offset="0.5475" stop-color="#05E0FF"/>
<stop offset="1" stop-color="#0270AD"/>
</radialGradient>
<radialGradient id="paint1_radial_6_7494" cx="0" cy="0" r="1" gradientUnits="userSpaceOnUse" gradientTransform="translate(31.0155 29.0119) scale(30.8447 30.833)">
<stop offset="0.0335" stop-color="#05E0FF"/>
<stop offset="0.5475" stop-color="#05E0FF"/>
<stop offset="1" stop-color="#0270AD"/>
</radialGradient>
<radialGradient id="paint2_radial_6_7494" cx="0" cy="0" r="1" gradientUnits="userSpaceOnUse" gradientTransform="translate(31.0238 29.0119) scale(30.8338 30.833)">
<stop offset="0.0335" stop-color="#05E0FF"/>
<stop offset="0.5475" stop-color="#05E0FF"/>
<stop offset="1" stop-color="#0270AD"/>
</radialGradient>
<radialGradient id="paint3_radial_6_7494" cx="0" cy="0" r="1" gradientUnits="userSpaceOnUse" gradientTransform="translate(31.0232 29.0119) scale(30.8338 30.833)">
<stop offset="0.0335" stop-color="#05E0FF"/>
<stop offset="0.5475" stop-color="#05E0FF"/>
<stop offset="1" stop-color="#0270AD"/>
</radialGradient>
<radialGradient id="paint4_radial_6_7494" cx="0" cy="0" r="1" gradientUnits="userSpaceOnUse" gradientTransform="translate(31.022 29.0118) scale(30.8338 30.833)">
<stop offset="0.0335" stop-color="#05E0FF"/>
<stop offset="0.5475" stop-color="#05E0FF"/>
<stop offset="1" stop-color="#0270AD"/>
</radialGradient>
<radialGradient id="paint5_radial_6_7494" cx="0" cy="0" r="1" gradientUnits="userSpaceOnUse" gradientTransform="translate(31.0166 29.012) scale(30.8447 30.833)">
<stop offset="0.0335" stop-color="#05E0FF"/>
<stop offset="0.5475" stop-color="#05E0FF"/>
<stop offset="1" stop-color="#0270AD"/>
</radialGradient>
<radialGradient id="paint6_radial_6_7494" cx="0" cy="0" r="1" gradientUnits="userSpaceOnUse" gradientTransform="translate(31.0226 29.0119) scale(30.8338 30.833)">
<stop offset="0.0335" stop-color="#05E0FF"/>
<stop offset="0.5475" stop-color="#05E0FF"/>
<stop offset="1" stop-color="#0270AD"/>
</radialGradient>
<radialGradient id="paint7_radial_6_7494" cx="0" cy="0" r="1" gradientUnits="userSpaceOnUse" gradientTransform="translate(31.0144 29.0118) scale(30.8447 30.833)">
<stop offset="0.0335" stop-color="#05E0FF"/>
<stop offset="0.5475" stop-color="#05E0FF"/>
<stop offset="1" stop-color="#0270AD"/>
</radialGradient>
<radialGradient id="paint8_radial_6_7494" cx="0" cy="0" r="1" gradientUnits="userSpaceOnUse" gradientTransform="translate(31.0213 29.0119) scale(30.8338 30.833)">
<stop offset="0.0335" stop-color="#05E0FF"/>
<stop offset="0.5475" stop-color="#05E0FF"/>
<stop offset="1" stop-color="#0270AD"/>
</radialGradient>
<radialGradient id="paint9_radial_6_7494" cx="0" cy="0" r="1" gradientUnits="userSpaceOnUse" gradientTransform="translate(31.0219 29.0118) scale(30.8338 30.833)">
<stop offset="0.0335" stop-color="#05E0FF"/>
<stop offset="0.5475" stop-color="#05E0FF"/>
<stop offset="1" stop-color="#0270AD"/>
</radialGradient>
<radialGradient id="paint10_radial_6_7494" cx="0" cy="0" r="1" gradientUnits="userSpaceOnUse" gradientTransform="translate(31.0217 29.0119) scale(30.8338 30.833)">
<stop offset="0.0335" stop-color="#05E0FF"/>
<stop offset="0.5475" stop-color="#05E0FF"/>
<stop offset="1" stop-color="#0270AD"/>
</radialGradient>
<radialGradient id="paint11_radial_6_7494" cx="0" cy="0" r="1" gradientUnits="userSpaceOnUse" gradientTransform="translate(31.0224 29.0119) scale(30.8338 30.833)">
<stop offset="0.0335" stop-color="#05E0FF"/>
<stop offset="0.5475" stop-color="#05E0FF"/>
<stop offset="1" stop-color="#0270AD"/>
</radialGradient>
<radialGradient id="paint12_radial_6_7494" cx="0" cy="0" r="1" gradientUnits="userSpaceOnUse" gradientTransform="translate(31.0235 29.012) scale(30.8338 30.833)">
<stop offset="0.0335" stop-color="#05E0FF"/>
<stop offset="0.5475" stop-color="#05E0FF"/>
<stop offset="1" stop-color="#0270AD"/>
</radialGradient>
<radialGradient id="paint13_radial_6_7494" cx="0" cy="0" r="1" gradientUnits="userSpaceOnUse" gradientTransform="translate(31.0224 29.012) scale(30.8338 30.833)">
<stop offset="0.0335" stop-color="#05E0FF"/>
<stop offset="0.5475" stop-color="#05E0FF"/>
<stop offset="1" stop-color="#0270AD"/>
</radialGradient>
<radialGradient id="paint14_radial_6_7494" cx="0" cy="0" r="1" gradientUnits="userSpaceOnUse" gradientTransform="translate(31.0216 29.012) scale(30.8338 30.833)">
<stop offset="0.0335" stop-color="#05E0FF"/>
<stop offset="0.5475" stop-color="#05E0FF"/>
<stop offset="1" stop-color="#0270AD"/>
</radialGradient>
<radialGradient id="paint15_radial_6_7494" cx="0" cy="0" r="1" gradientUnits="userSpaceOnUse" gradientTransform="translate(31.0229 29.0118) scale(30.8338 30.833)">
<stop offset="0.0335" stop-color="#05E0FF"/>
<stop offset="0.5475" stop-color="#05E0FF"/>
<stop offset="1" stop-color="#0270AD"/>
</radialGradient>
<radialGradient id="paint16_radial_6_7494" cx="0" cy="0" r="1" gradientUnits="userSpaceOnUse" gradientTransform="translate(31.0222 29.0119) scale(30.8338 30.833)">
<stop offset="0.0335" stop-color="#05E0FF"/>
<stop offset="0.5475" stop-color="#05E0FF"/>
<stop offset="1" stop-color="#0270AD"/>
</radialGradient>
<radialGradient id="paint17_radial_6_7494" cx="0" cy="0" r="1" gradientUnits="userSpaceOnUse" gradientTransform="translate(31.0222 29.0119) scale(30.8338 30.833)">
<stop offset="0.0335" stop-color="#05E0FF"/>
<stop offset="0.5475" stop-color="#05E0FF"/>
<stop offset="1" stop-color="#0270AD"/>
</radialGradient>
<radialGradient id="paint18_radial_6_7494" cx="0" cy="0" r="1" gradientUnits="userSpaceOnUse" gradientTransform="translate(31.0215 29.0119) scale(30.8338 30.833)">
<stop offset="0.0335" stop-color="#05E0FF"/>
<stop offset="0.5475" stop-color="#05E0FF"/>
<stop offset="1" stop-color="#0270AD"/>
</radialGradient>
<radialGradient id="paint19_radial_6_7494" cx="0" cy="0" r="1" gradientUnits="userSpaceOnUse" gradientTransform="translate(31.0225 29.0119) scale(30.8338 30.833)">
<stop offset="0.0335" stop-color="#05E0FF"/>
<stop offset="0.5475" stop-color="#05E0FF"/>
<stop offset="1" stop-color="#0270AD"/>
</radialGradient>
<radialGradient id="paint20_radial_6_7494" cx="0" cy="0" r="1" gradientUnits="userSpaceOnUse" gradientTransform="translate(31.0285 29.012) scale(30.8448 30.833)">
<stop offset="0.0335" stop-color="#05E0FF"/>
<stop offset="0.5475" stop-color="#05E0FF"/>
<stop offset="1" stop-color="#0270AD"/>
</radialGradient>
</defs>
</svg>
