<svg width="33" height="32" viewBox="0 0 33 32" fill="none" xmlns="http://www.w3.org/2000/svg">
<path d="M12.9552 21.3382C10.7572 21.3382 8.55864 20.5015 6.8852 18.8281C3.53827 15.4811 3.53827 10.0351 6.8852 6.68794C10.2321 3.341 15.6784 3.341 19.0253 6.68794C22.3723 10.0351 22.3723 15.4811 19.0253 18.8281C17.3518 20.5015 15.1533 21.3382 12.9552 21.3382ZM12.9552 4.8823C10.9376 4.8823 8.91985 5.65043 7.38359 7.1864C4.31165 10.2586 4.31165 15.2576 7.38359 18.3296C10.4561 21.4021 15.4544 21.4021 18.5268 18.3296C21.5988 15.2576 21.5988 10.2586 18.5268 7.1864C16.9906 5.65043 14.9729 4.8823 12.9552 4.8823Z" fill="white"/>
<path d="M1.0128 9.06348C0.975628 9.06348 0.937531 9.05751 0.89986 9.04493C0.715344 8.98266 0.616689 8.78265 0.678668 8.59814C0.782867 8.29037 0.898509 7.98652 1.02247 7.69461C1.09866 7.51493 1.30699 7.43226 1.48468 7.5081C1.66415 7.5843 1.74766 7.79127 1.67147 7.97046C1.55441 8.24588 1.44523 8.53296 1.347 8.82395C1.29697 8.97079 1.15972 9.06348 1.0128 9.06348Z" fill="white"/>
<path d="M12.0029 25.682C11.9937 25.682 11.985 25.6815 11.9758 25.6811C11.3245 25.632 10.6704 25.5328 10.0329 25.3855C9.84295 25.3419 9.72446 25.1528 9.7686 24.9632C9.81217 24.7732 10.0008 24.653 10.1909 24.6988C10.7945 24.8379 11.4127 24.9315 12.0291 24.9779C12.2232 24.9926 12.3687 25.162 12.354 25.3561C12.3402 25.5412 12.1856 25.682 12.0029 25.682ZM8.28608 24.8242C8.24244 24.8242 8.19837 24.8164 8.15573 24.7994C7.54894 24.558 6.95502 24.267 6.39004 23.9347C6.22208 23.836 6.166 23.6198 6.26473 23.4524C6.36295 23.2839 6.57867 23.2275 6.74713 23.327C7.28141 23.641 7.84313 23.9159 8.41644 24.144C8.59726 24.2161 8.68539 24.4213 8.61382 24.6021C8.55866 24.7402 8.42603 24.8242 8.28608 24.8242ZM4.99927 22.891C4.9208 22.891 4.84184 22.8648 4.77666 22.8116C4.43606 22.5339 4.1047 22.2346 3.79168 21.9216C3.64021 21.7702 3.49287 21.6159 3.35058 21.459C3.21979 21.3149 3.23074 21.0918 3.37488 20.961C3.51945 20.8306 3.74207 20.8412 3.87285 20.9853C4.00775 21.134 4.14685 21.28 4.29007 21.4232C4.5861 21.7192 4.89962 22.0024 5.22182 22.2654C5.37285 22.3884 5.39531 22.6106 5.27235 22.7611C5.20263 22.8464 5.1012 22.891 4.99927 22.891ZM2.43766 20.0659C2.32337 20.0659 2.21143 20.0103 2.14348 19.908C1.78226 19.3632 1.46007 18.7854 1.18607 18.191C1.1044 18.0143 1.18152 17.8045 1.35815 17.7233C1.53584 17.642 1.74466 17.7182 1.82591 17.8954C2.08519 18.4577 2.38997 19.0039 2.731 19.5189C2.83847 19.6809 2.79433 19.8999 2.63185 20.0073C2.57214 20.0471 2.50426 20.0659 2.43766 20.0659ZM0.839501 16.6024C0.686188 16.6024 0.545243 16.5019 0.500749 16.3472C0.320356 15.7189 0.186376 15.0713 0.10279 14.4223C0.0780548 14.229 0.214309 14.0526 0.407567 14.0277C0.595281 14.0018 0.777522 14.1388 0.802257 14.3323C0.881223 14.9459 1.00788 15.5586 1.17818 16.1525C1.23192 16.3398 1.12402 16.5349 0.936805 16.5886C0.904181 16.5983 0.871628 16.6024 0.839501 16.6024ZM0.352554 12.8202C0.150127 12.8158 -0.00411003 12.6544 8.35072e-05 12.4599C0.0147253 11.8053 0.0794763 11.147 0.192844 10.5032C0.226392 10.3118 0.409984 10.1842 0.600896 10.2171C0.792733 10.2508 0.920813 10.4335 0.886838 10.6253C0.779939 11.2342 0.718884 11.8565 0.705095 12.4755C0.700404 12.6676 0.543893 12.8202 0.352554 12.8202Z" fill="white"/>
<path d="M13.9264 25.68C13.7442 25.68 13.5895 25.5395 13.5752 25.3545C13.5605 25.1604 13.706 24.991 13.8997 24.9759C14.2049 24.9525 14.5101 24.918 14.8071 24.8726C14.9971 24.846 15.1794 24.975 15.2087 25.1677C15.2381 25.3601 15.1059 25.54 14.9136 25.5693C14.5987 25.6175 14.2761 25.6542 13.9538 25.679C13.9447 25.6795 13.9355 25.68 13.9264 25.68Z" fill="white"/>
<path d="M25.2477 10.3065C25.0871 10.3065 24.9416 10.1957 24.9044 10.0321C24.394 7.78462 23.2585 5.73092 21.6204 4.09274C19.8445 2.31667 17.6047 1.14334 15.1427 0.699248C14.9509 0.664634 14.8237 0.481256 14.8582 0.289561C14.8926 0.0984358 15.0771 -0.0277967 15.2676 0.00525403C17.8718 0.475001 20.2411 1.71607 22.1188 3.59428C23.851 5.32649 25.0522 7.4986 25.592 9.87591C25.6351 10.0657 25.5162 10.2546 25.3262 10.2977C25.3001 10.3038 25.2739 10.3065 25.2477 10.3065Z" fill="white"/>
<path d="M19.692 23.9687C19.6016 23.9687 19.5116 23.9343 19.4428 23.8655L17.7267 22.1493C13.7018 24.1959 8.71272 23.4129 5.50666 20.2064C1.40012 16.0994 1.40012 9.4166 5.50666 5.30964C7.49639 3.31991 10.1414 2.22412 12.955 2.22412C15.769 2.22412 18.4142 3.31991 20.4034 5.30964C23.6099 8.51563 24.3915 13.5046 22.3463 17.5297L24.0625 19.2458C24.2002 19.3835 24.2002 19.6066 24.0625 19.7443L19.9412 23.8655C19.8724 23.9343 19.7824 23.9687 19.692 23.9687ZM17.7928 21.3645C17.8841 21.3645 17.9741 21.3998 18.0421 21.4677L19.6921 23.1178L23.3149 19.495L21.6648 17.845C21.5547 17.7348 21.5299 17.5655 21.6038 17.4282C23.6536 13.6361 22.955 8.85779 19.9051 5.80817C18.049 3.95179 15.5805 2.9292 12.9552 2.9292C10.3298 2.9292 7.86179 3.95179 6.00519 5.80817C2.17316 9.64021 2.17316 15.8755 6.00519 19.708C9.05467 22.7575 13.8323 23.4561 17.6253 21.4067C17.678 21.3783 17.7354 21.3645 17.7928 21.3645Z" fill="white"/>
<path d="M26.9291 29.6476C26.8387 29.6476 26.7487 29.6132 26.6798 29.5443L20.2214 23.0864C20.1553 23.0203 20.1182 22.9308 20.1182 22.8372C20.1182 22.7436 20.1553 22.654 20.2214 22.5879L22.7848 20.0245C22.9225 19.8867 23.1456 19.8867 23.2833 20.0245L29.7417 26.4824C29.8078 26.5485 29.845 26.6379 29.845 26.7316C29.845 26.8252 29.8078 26.9148 29.7417 26.9809L27.1782 29.5443C27.1095 29.6132 27.0195 29.6476 26.9291 29.6476ZM20.9692 22.8372L26.9292 28.7966L28.9941 26.7316L23.0342 20.7722L20.9692 22.8372Z" fill="white"/>
<path d="M28.0411 32.0001C27.7419 32.0001 27.4609 31.8835 27.2503 31.6724L26.443 30.8651C26.2319 30.6544 26.1152 30.3735 26.1152 30.0742C26.1152 29.7754 26.2319 29.4945 26.443 29.2834L29.481 26.2454C29.9024 25.8236 30.6404 25.8227 31.0627 26.2454L31.87 27.0527C32.0811 27.2638 32.1977 27.5448 32.1977 27.8435C32.1977 28.1428 32.0811 28.4237 31.87 28.6344L28.832 31.6724C28.6208 31.8835 28.3399 32.0001 28.0411 32.0001ZM30.2717 26.6226C30.1611 26.6226 30.0574 26.6658 29.9793 26.7438L26.9414 29.7819C26.8633 29.8599 26.8201 29.9641 26.8201 30.0742C26.8201 30.1849 26.8632 30.2886 26.9414 30.3666L27.7487 31.174C27.9042 31.3296 28.1769 31.3305 28.3334 31.174L31.3714 28.1359C31.4494 28.0579 31.4926 27.9542 31.4926 27.8435C31.4926 27.7334 31.4495 27.6292 31.3714 27.5512L30.5641 26.7438C30.4861 26.6658 30.3819 26.6226 30.2717 26.6226Z" fill="white"/>
<path d="M13.7422 18.0238C13.5016 18.0238 13.2667 17.948 13.0657 17.8007C13.0266 17.7722 12.99 17.7415 12.955 17.7089C12.9206 17.7415 12.8834 17.7722 12.8444 17.8011C12.5452 18.0206 12.1687 18.082 11.8149 17.9687C9.94134 17.377 8.63281 15.3882 8.63281 13.1332C8.63281 10.3699 10.5716 8.12183 12.9551 8.12183C15.3386 8.12183 17.2778 10.3699 17.2778 13.1332C17.2778 15.3882 15.9692 17.377 14.0957 17.9687C13.9791 18.0058 13.8602 18.0238 13.7422 18.0238ZM12.9551 16.5338C13.1497 16.5338 13.3075 16.6918 13.3075 16.8863C13.3075 17.0245 13.3714 17.1507 13.4824 17.232C13.598 17.3173 13.7436 17.3399 13.8835 17.2967C15.4671 16.7964 16.5727 15.0844 16.5727 13.1332C16.5727 10.7586 14.9498 8.82684 12.955 8.82684C10.9603 8.82684 9.33775 10.7587 9.33775 13.1332C9.33775 15.0844 10.4434 16.7964 12.0269 17.2967C12.166 17.3389 12.311 17.3169 12.4276 17.2325C12.5387 17.1507 12.6025 17.0246 12.6025 16.8863C12.6025 16.6918 12.7605 16.5338 12.9551 16.5338Z" fill="white"/>
<path d="M16.3308 11.0346H9.57911C9.45565 11.0346 9.34093 10.9698 9.2771 10.864C9.21335 10.7582 9.20965 10.6267 9.26751 10.5173C10.0602 9.01732 11.4385 8.12183 12.955 8.12183C14.4715 8.12183 15.8498 9.01732 16.6424 10.5173C16.7003 10.6267 16.6967 10.7582 16.6328 10.864C16.5689 10.9698 16.4542 11.0346 16.3308 11.0346ZM10.2101 10.3295H15.6996C15.0166 9.37875 14.0238 8.82684 12.9548 8.82684C11.8859 8.82684 10.8931 9.37875 10.2101 10.3295Z" fill="white"/>
<path d="M12.9551 17.239C12.7605 17.239 12.6025 17.0811 12.6025 16.8864V10.6821C12.6025 10.4875 12.7605 10.3296 12.9551 10.3296C13.1497 10.3296 13.3075 10.4875 13.3075 10.6821V16.8864C13.3075 17.0811 13.1497 17.239 12.9551 17.239Z" fill="white"/>
<path d="M17.8011 18.0233C17.6065 18.0233 17.4486 17.8654 17.4486 17.6708V16.9653C17.4486 16.7515 17.333 16.5536 17.1466 16.4485L16.158 15.8914C15.9882 15.7958 15.9285 15.5806 16.024 15.4112C16.1195 15.2424 16.3343 15.1817 16.5041 15.2772L17.4927 15.8344C17.9003 16.0639 18.1536 16.4972 18.1536 16.9653V17.6708C18.1536 17.8654 17.9957 18.0233 17.8011 18.0233Z" fill="white"/>
<path d="M18.7002 13.4859H16.9258C16.7312 13.4859 16.5732 13.3281 16.5732 13.1335C16.5732 12.9389 16.7311 12.781 16.9258 12.781H18.7002C18.8948 12.781 19.0527 12.9389 19.0527 13.1335C19.0527 13.3281 18.8948 13.4859 18.7002 13.4859Z" fill="white"/>
<path d="M15.9789 10.4701C15.8564 10.4701 15.7375 10.4063 15.6723 10.2925C15.576 10.1233 15.6347 9.90812 15.8036 9.81146L16.8964 9.18747C17.0809 9.08214 17.1957 8.88476 17.1957 8.67224V7.8449C17.1957 7.65029 17.3535 7.49243 17.5481 7.49243C17.7427 7.49243 17.9006 7.65037 17.9006 7.8449V8.67224C17.9006 9.13715 17.6496 9.56908 17.2461 9.79973L16.1532 10.4237C16.0982 10.4552 16.0381 10.4701 15.9789 10.4701Z" fill="white"/>
<path d="M8.11028 18.0234C7.91567 18.0234 7.75781 17.8655 7.75781 17.6709V16.9654C7.75781 16.4972 8.01113 16.064 8.41876 15.8345L9.40701 15.2773C9.57638 15.1813 9.79161 15.2419 9.88706 15.4113C9.98259 15.5807 9.92288 15.7959 9.75308 15.8914L8.76483 16.4486C8.57854 16.5537 8.46289 16.7515 8.46289 16.9654V17.6709C8.46282 17.8655 8.30489 18.0234 8.11028 18.0234Z" fill="white"/>
<path d="M8.9858 13.4859H7.21094C7.01633 13.4859 6.8584 13.3281 6.8584 13.1335C6.8584 12.9389 7.01626 12.781 7.21094 12.781H8.98587C9.18048 12.781 9.33841 12.9389 9.33841 13.1335C9.33834 13.3281 9.18041 13.4859 8.9858 13.4859Z" fill="white"/>
<path d="M9.93147 10.4701C9.87226 10.4701 9.81213 10.4551 9.75712 10.4237L8.66431 9.79973C8.26088 9.56908 8.00977 9.13715 8.00977 8.67224V7.8449C8.00977 7.65029 8.16763 7.49243 8.36231 7.49243C8.55692 7.49243 8.71478 7.65036 8.71478 7.8449V8.67224C8.71478 8.88476 8.8295 9.08214 9.01401 9.18747L10.1069 9.81146C10.2758 9.90812 10.3345 10.1233 10.2382 10.2925C10.1729 10.4062 10.054 10.4701 9.93147 10.4701Z" fill="white"/>
</svg>
