<svg width="32" height="32" viewBox="0 0 32 32" fill="none" xmlns="http://www.w3.org/2000/svg">
<path d="M7.31081 5.90445C7.56969 5.90445 7.77956 5.69457 7.77956 5.4357C7.77956 5.17682 7.56969 4.96695 7.31081 4.96695C7.05194 4.96695 6.84206 5.17682 6.84206 5.4357C6.84206 5.69457 7.05187 5.90445 7.31081 5.90445ZM3.56081 5.90445C3.81969 5.90445 4.02956 5.69457 4.02956 5.4357C4.02956 5.17682 3.81969 4.96695 3.56081 4.96695C3.30194 4.96695 3.09206 5.17682 3.09206 5.4357C3.09206 5.69457 3.30187 5.90445 3.56081 5.90445ZM5.43581 5.90445C5.69469 5.90445 5.90456 5.69457 5.90456 5.4357C5.90456 5.17682 5.69469 4.96695 5.43581 4.96695C5.17694 4.96695 4.96706 5.17682 4.96706 5.4357C4.96706 5.69457 5.17687 5.90445 5.43581 5.90445ZM5.333 10.8703C5.33587 10.8703 5.33875 10.8703 5.34162 10.8703L9.57968 10.8714H9.57994C9.87275 10.8714 10.1213 10.6817 10.1986 10.3993C10.276 10.1168 10.1586 9.82688 9.90656 9.67782L9.262 9.29644C10.298 8.26963 10.8807 6.86863 10.8714 5.40076C10.8529 2.46526 8.45025 0.0428231 5.51562 0.000573077C2.47469 -0.0431144 0 2.4167 0 5.43582C0 8.33101 2.3855 10.8076 5.333 10.8703ZM2.27812 2.23207C3.1425 1.38007 4.285 0.92101 5.50219 0.937948C7.9305 0.972885 9.91856 2.97751 9.93393 5.40663C9.94225 6.7172 9.38025 7.96351 8.392 8.82588C8.22675 8.97001 8.14019 9.18632 8.16018 9.40451C8.18019 9.62257 8.30475 9.81932 8.49319 9.93076L8.49787 9.93351L5.34625 9.93276C2.90987 9.88601 0.9375 7.87888 0.9375 5.43582C0.9375 4.22201 1.41362 3.08426 2.27812 2.23207ZM31.5312 31.0625H31.0625V24.0819C31.0625 22.253 29.9818 20.5923 28.3041 19.8486L25.8337 18.7898C26.4348 18.6001 26.9779 18.2618 27.4197 17.7926C28.0864 17.0848 28.4687 16.1244 28.4687 15.1576C28.4687 14.2692 28.1584 13.4307 27.5711 12.7325C26.8364 11.8602 26.4319 10.7516 26.4319 9.61069V7.36445C26.4319 5.39707 25.6657 3.54782 24.2746 2.15738C22.8834 0.766135 21.034 1.05769e-05 19.0669 1.05769e-05C15.0061 1.05769e-05 11.7025 3.30363 11.7025 7.36438V9.53751C11.7027 10.718 11.2388 11.8448 10.4849 12.7531C9.53612 13.8963 9.339 15.4418 9.97056 16.7866C10.4393 17.7849 11.2848 18.5021 12.297 18.8056L9.84387 19.8724C8.12281 20.5966 7.01069 22.2711 7.01069 24.1382V29.6563C7.01069 29.9152 7.2205 30.1251 7.47943 30.1251C7.73837 30.1251 7.94818 29.9152 7.94818 29.6563V24.1382C7.94818 22.6493 8.835 21.314 10.2126 20.7343L13.2875 19.3972V22.2188H11.8748C11.4767 22.2188 11.0956 22.3885 10.8293 22.6845C10.5631 22.9805 10.4344 23.3773 10.4764 23.7732L11.2491 31.0625H0.46875C0.209812 31.0625 0 31.2724 0 31.5312C0 31.7901 0.209812 32 0.46875 32H31.5312C31.7902 32 32 31.7901 32 31.5312C32 31.2724 31.7902 31.0625 31.5312 31.0625ZM26.8538 13.3361C27.297 13.863 27.5312 14.4928 27.5312 15.1575C27.5312 15.8879 27.2419 16.6141 26.7373 17.1498C26.2031 17.717 25.4691 18.0294 24.6707 18.0294H24.0598L23.2574 17.6854C22.5564 17.3848 22.0769 16.7404 21.9789 15.9986C23.4252 15.2198 24.4107 13.6914 24.4107 11.9369V8.41294C24.5479 8.42226 24.6849 8.42732 24.8216 8.42732C25.0471 8.42732 25.2716 8.41451 25.4944 8.38926V9.61063C25.4944 10.9721 25.9772 12.2953 26.8538 13.3361ZM19.1808 20.7362C17.5039 20.7659 15.8396 20.5534 14.225 20.1056V18.9895L14.3606 18.9306C14.3616 18.9301 14.3627 18.9296 14.3638 18.9292L15.2001 18.5656C16.1309 18.1609 16.7887 17.332 16.9882 16.3634C17.3964 16.4821 17.8272 16.5469 18.2732 16.5469H19.8006C20.2483 16.5469 20.6807 16.4816 21.0903 16.362C21.2963 17.3262 21.9566 18.1476 22.8879 18.5471L23.7804 18.9296C23.781 18.9299 23.7816 18.9301 23.7821 18.9303L23.8482 18.9586V20.0134C22.3312 20.4654 20.7628 20.7086 19.1808 20.7362ZM23.8481 20.9894V22.2188H14.225V21.0763C15.7446 21.4748 17.3049 21.6764 18.8757 21.6764C18.9828 21.6764 19.09 21.6754 19.1972 21.6736C20.7716 21.6461 22.3331 21.416 23.8481 20.9894ZM25.4944 7.44401C24.2032 7.61844 22.7477 7.27257 21.745 6.49563C21.5404 6.33713 21.246 6.37438 21.0874 6.57907C20.9288 6.7837 20.9662 7.07813 21.1708 7.2367C21.8264 7.74457 22.6171 8.10232 23.4732 8.28269V10.8346C23.2479 11.348 22.9972 11.7749 22.4319 12.2413C22.1939 12.4377 21.9334 12.6008 21.6544 12.7301C21.4266 12.2856 20.9639 11.9804 20.431 11.9804H19.3325C18.5748 11.9804 17.9584 12.5969 17.9584 13.3545C17.9584 14.1121 18.5748 14.7286 19.3325 14.7286H20.431C21.0686 14.7286 21.6061 14.2919 21.7604 13.7021C22.3875 13.4631 23.4099 12.6108 23.4102 12.6104C23.0927 14.3146 21.5955 15.6092 19.8007 15.6092H18.2731C16.2481 15.6092 14.6006 13.9618 14.6006 11.9367V8.31332C16.1927 8.06376 17.6967 7.52501 19.0761 6.70913C21.1764 5.46682 22.5236 3.84345 23.3366 2.56088C24.7276 3.79982 25.5189 5.57601 25.4944 7.44401ZM20.8674 13.3558C20.8667 13.596 20.6712 13.7912 20.4309 13.7912H19.3324C19.0917 13.7912 18.8959 13.5953 18.8959 13.3546C18.8959 13.1139 19.0917 12.9181 19.3324 12.9181H20.4309C20.6712 12.9181 20.8666 13.1131 20.8674 13.3532V13.3558ZM12.64 7.36438C12.64 3.82057 15.5231 0.93751 19.0669 0.93751C20.3378 0.93751 21.5523 1.30439 22.5901 1.98738C21.8419 3.1867 20.5826 4.72895 18.5988 5.90245C17.2379 6.70745 15.7451 7.22138 14.1617 7.43001H14.1324C14.1322 7.43001 14.1321 7.43001 14.1318 7.43001C14.1316 7.43001 14.1314 7.43001 14.1312 7.43001H12.6399V7.36438H12.64ZM10.8191 16.3881C10.3437 15.3758 10.4921 14.2123 11.2057 13.3526C12.1012 12.2738 12.641 10.9408 12.64 9.53751V8.36751H13.6631V11.9369C13.6631 13.6924 14.6498 15.2216 16.0974 15.9999C16.0069 16.7473 15.5288 17.4003 14.8262 17.7058L14.0819 18.0294H13.4025C12.2844 18.0294 11.2945 17.4005 10.8191 16.3881ZM27.137 23.6744L26.3538 31.0625H12.1919L11.4087 23.6744C11.3945 23.5405 11.4362 23.4116 11.5263 23.3116C11.6164 23.2114 11.7402 23.1563 11.8748 23.1563H26.6709C26.8055 23.1563 26.9293 23.2114 27.0194 23.3116C27.1094 23.4116 27.1512 23.5405 27.137 23.6744ZM30.125 31.0625H27.2966L28.0692 23.7733C28.1112 23.3774 27.9826 22.9806 27.7164 22.6846C27.4501 22.3886 27.0691 22.2188 26.6709 22.2188H24.7856V19.3605L27.9294 20.7079C29.2632 21.2992 30.125 22.6235 30.125 24.0819V31.0625ZM19.2728 25.3281C18.2906 25.3281 17.4916 26.1272 17.4916 27.1094C17.4916 28.0916 18.2906 28.8906 19.2728 28.8906C20.255 28.8906 21.0541 28.0916 21.0541 27.1094C21.0541 26.1272 20.255 25.3281 19.2728 25.3281ZM19.2728 27.9531C18.8076 27.9531 18.4291 27.5746 18.4291 27.1094C18.4291 26.6441 18.8076 26.2656 19.2728 26.2656C19.7381 26.2656 20.1166 26.6441 20.1166 27.1094C20.1166 27.5746 19.7381 27.9531 19.2728 27.9531Z" fill="white"/>
</svg>
