<svg width="32" height="32" viewBox="0 0 32 32" fill="none" xmlns="http://www.w3.org/2000/svg">
<path d="M21.6 12.9032C21.5742 12.9032 21.5432 12.9032 21.5174 12.9032C21.1716 11.8606 20.2787 11.0658 19.169 10.8284C18.5084 8.99613 16.7071 7.74194 14.6787 7.74194C12.0568 7.74194 9.92 9.80645 9.92 12.3458C9.92 12.5419 9.93548 12.7381 9.96129 12.9394C8.42323 13.1613 7.24129 14.4516 7.24129 16C7.24129 17.7084 8.67613 19.0968 10.4361 19.0968H11.4581V20.5471C11.4581 21.1148 10.9935 21.5794 10.4258 21.5794H10.3174C10.0335 21.5794 9.80129 21.8116 9.80129 22.0955C9.80129 22.3794 10.0335 22.6116 10.3174 22.6116H10.4258C11.5665 22.6116 12.4903 21.6877 12.4903 20.5471V19.0968H15.4787V26.3226C15.4787 26.6065 15.711 26.8387 15.9948 26.8387C16.2787 26.8387 16.511 26.6065 16.511 26.3226V19.0968H19.6077V20.5471C19.6077 21.6877 20.5316 22.6116 21.6723 22.6116H21.7806C22.0645 22.6116 22.2968 22.3794 22.2968 22.0955C22.2968 21.8116 22.0645 21.5794 21.7806 21.5794H21.6723C21.1045 21.5794 20.64 21.1148 20.64 20.5471V19.0968H21.5948C23.3548 19.0968 24.7897 17.7084 24.7897 16C24.7897 14.2916 23.3548 12.9032 21.5948 12.9032H21.6ZM21.6 18.0645H10.4413C9.24903 18.0645 8.27871 17.1406 8.27871 16C8.27871 14.8594 9.24903 13.9355 10.4413 13.9355C10.4774 13.9355 10.5084 13.9355 10.5548 13.9406C10.7303 13.9561 10.8903 13.8839 10.9935 13.7548C11.1019 13.6258 11.1381 13.4503 11.0916 13.2852C10.9987 12.96 10.9523 12.6503 10.9523 12.3406C10.9523 10.3742 12.6245 8.76903 14.6787 8.76903C16.3613 8.76903 17.8374 9.85806 18.2761 11.4219C18.3329 11.6232 18.5084 11.7729 18.72 11.7987C19.6903 11.9019 20.4645 12.6194 20.6142 13.5432C20.6348 13.6774 20.7123 13.8013 20.8258 13.8839C20.9394 13.9665 21.0735 13.9974 21.2129 13.9716C21.3523 13.9458 21.4813 13.9355 21.6052 13.9355C22.7974 13.9355 23.7677 14.8594 23.7677 16C23.7677 17.1406 22.7974 18.0645 21.6052 18.0645H21.6ZM17.4813 12.9703C17.6826 13.1716 17.6826 13.4968 17.4813 13.6981L15.0761 16.1032C14.9729 16.2065 14.8439 16.2529 14.7097 16.2529C14.5755 16.2529 14.4465 16.2013 14.3432 16.1032L13.0529 14.8129C12.8516 14.6116 12.8516 14.2865 13.0529 14.0852C13.2542 13.8839 13.5794 13.8839 13.7806 14.0852L14.7045 15.009L16.7432 12.9703C16.9445 12.769 17.2697 12.769 17.471 12.9703H17.4813ZM29.3729 26.8387C28.8619 26.8387 28.3819 26.9935 27.9845 27.2516L25.9406 25.2077C27.4994 22.9265 28.3871 20.2013 28.3871 17.3523V7.54064C28.3871 6.81806 27.8761 6.18323 27.169 6.02839L26.7871 5.94581L28 4.7329C28.4077 5.00129 28.8981 5.16129 29.4194 5.16129C30.8439 5.16129 32 4.00516 32 2.58065C32 1.15613 30.8439 0 29.4194 0C27.9948 0 26.8387 1.15613 26.8387 2.58065C26.8387 3.1071 26.9987 3.59226 27.2671 4L25.5845 5.68258L16.1084 3.62323C16.0361 3.60774 15.9587 3.60774 15.8865 3.62323L6.41032 5.68258L4.72774 4C4.99613 3.59226 5.15613 3.10194 5.15613 2.58065C5.15613 1.15613 4 0 2.57548 0C1.15097 0 0 1.15613 0 2.58065C0 4.00516 1.15613 5.16129 2.58065 5.16129C3.1071 5.16129 3.59226 5.00129 4 4.7329L5.2129 5.94581L4.83097 6.02839C4.12387 6.18323 3.6129 6.81806 3.6129 7.54064V17.3419C3.6129 20.191 4.50581 22.9213 6.06452 25.2026L4 27.2671C3.59226 26.9987 3.10194 26.8387 2.58065 26.8387C1.15613 26.8387 0 27.9948 0 29.4194C0 30.8439 1.15613 32 2.58065 32C4.00516 32 5.16129 30.8439 5.16129 29.4194C5.16129 28.8929 5.00129 28.4077 4.7329 28L6.68903 26.0439C7.97935 27.6594 9.62581 29.0013 11.5458 29.92L15.7987 31.9484C15.871 31.9794 15.9432 32 16.0206 32C16.0981 32 16.1755 31.9845 16.2426 31.9484L20.4748 29.92C22.3948 29.0013 24.0361 27.6594 25.3213 26.0439L27.2413 27.9639C26.9574 28.3768 26.7923 28.8774 26.7923 29.4142C26.7923 30.8387 27.9484 31.9948 29.3729 31.9948C30.7974 31.9948 31.9535 30.8387 31.9535 29.4142C31.9535 27.9897 30.7974 26.8335 29.3729 26.8335V26.8387ZM29.4194 1.03226C30.271 1.03226 30.9677 1.72903 30.9677 2.58065C30.9677 3.43226 30.271 4.12903 29.4194 4.12903C28.5677 4.12903 27.871 3.43226 27.871 2.58065C27.871 1.72903 28.5677 1.03226 29.4194 1.03226ZM1.03226 2.58065C1.03226 1.72903 1.72903 1.03226 2.58065 1.03226C3.43226 1.03226 4.12903 1.72903 4.12903 2.58065C4.12903 3.43226 3.43226 4.12903 2.58065 4.12903C1.72903 4.12903 1.03226 3.43226 1.03226 2.58065ZM2.58065 30.9677C1.72903 30.9677 1.03226 30.271 1.03226 29.4194C1.03226 28.5677 1.72903 27.871 2.58065 27.871C3.43226 27.871 4.12903 28.5677 4.12903 29.4194C4.12903 30.271 3.43226 30.9677 2.58065 30.9677ZM20.0258 28.991L16.0206 30.911L11.9897 28.9858C7.53032 26.8542 4.64516 22.2864 4.64516 17.3419V7.54064C4.64516 7.29806 4.81548 7.08645 5.0529 7.03484L16 4.65548L26.9471 7.03484C27.1845 7.08645 27.3548 7.29806 27.3548 7.54064V17.3523C27.3548 22.2865 24.48 26.8542 20.0258 28.991ZM29.3729 30.9677C28.5213 30.9677 27.8245 30.271 27.8245 29.4194C27.8245 28.5677 28.5213 27.871 29.3729 27.871C30.2245 27.871 30.9213 28.5677 30.9213 29.4194C30.9213 30.271 30.2245 30.9677 29.3729 30.9677Z" fill="white"/>
</svg>
