<svg width="19" height="9" viewBox="0 0 19 9" fill="none" xmlns="http://www.w3.org/2000/svg">
<path d="M14.6769 0.0154265C14.7188 0.015121 14.7606 0.0148154 14.8037 0.0145007C14.9426 0.013582 15.0816 0.0130406 15.2205 0.0125773C15.2679 0.0123878 15.3153 0.0121983 15.3641 0.0120031C15.615 0.0110326 15.866 0.0103679 16.1169 0.00993244C16.3761 0.00941811 16.6353 0.00781894 16.8945 0.00597237C17.0937 0.0047567 17.293 0.00436743 17.4923 0.00420045C17.5878 0.00397393 17.6833 0.00343316 17.7789 0.00257135C17.9127 0.00143935 18.0465 0.00148176 18.1803 0.00180487C18.2394 0.000911458 18.2394 0.000911458 18.2997 0C18.546 0.00216548 18.7016 0.0338141 18.8883 0.209637C18.9896 0.448652 18.9952 0.678831 18.9944 0.933945C18.9947 0.991733 18.9947 0.991733 18.9951 1.05069C18.9957 1.17717 18.9957 1.30365 18.9956 1.43014C18.9958 1.51854 18.996 1.60694 18.9962 1.69535C18.9965 1.88029 18.9965 2.06522 18.9963 2.25016C18.996 2.4867 18.9968 2.72323 18.9979 2.95977C18.9986 3.14222 18.9986 3.32466 18.9985 3.50711C18.9985 3.59431 18.9987 3.68151 18.9992 3.7687C18.9998 3.89076 18.9995 4.01279 18.9989 4.13485C18.9993 4.17056 18.9996 4.20626 19 4.24305C18.9974 4.51367 18.9452 4.73603 18.7659 4.94924C18.5895 5.02794 18.4249 5.03424 18.2356 4.99864C18.0691 4.90875 17.9701 4.80877 17.9093 4.62668C17.9038 4.53757 17.901 4.44829 17.8997 4.35903C17.8988 4.30411 17.8978 4.2492 17.8969 4.19263C17.8957 4.1037 17.8957 4.1037 17.8945 4.01298C17.8935 3.95229 17.8926 3.8916 17.8916 3.82907C17.889 3.66786 17.8867 3.50666 17.8844 3.34545C17.8821 3.18089 17.8795 3.01634 17.8769 2.85178C17.8719 2.52901 17.8672 2.20624 17.8626 1.88346C17.8315 1.91457 17.8003 1.94568 17.7682 1.97773C17.0112 2.73373 16.2541 3.48959 15.4968 4.24532C15.1305 4.61078 14.7644 4.97629 14.3983 5.34189C14.0793 5.66046 13.7603 5.97894 13.4411 6.29733C13.272 6.466 13.103 6.63472 12.9341 6.80353C12.7752 6.96227 12.6163 7.1209 12.4572 7.27945C12.3987 7.33779 12.3403 7.39618 12.2819 7.45461C12.2024 7.53411 12.1227 7.61346 12.0431 7.69278C12.0198 7.71616 11.9965 7.73954 11.9724 7.76364C11.8111 7.92382 11.7199 7.98356 11.4929 7.99758C11.4548 8.00094 11.4167 8.00429 11.3774 8.00775C11.0082 7.91645 10.6899 7.47632 10.429 7.21498C10.3866 7.17276 10.3443 7.13054 10.3007 7.08704C10.1857 6.97237 10.0708 6.85755 9.95598 6.74271C9.83554 6.62231 9.71497 6.50204 9.59441 6.38175C9.36664 6.15445 9.13898 5.92703 8.91136 5.69957C8.65202 5.4404 8.39253 5.18137 8.13304 4.92235C7.59971 4.38999 7.06654 3.85746 6.53349 3.32481C6.37812 3.39232 6.27599 3.47704 6.15654 3.59625C6.11903 3.63346 6.08152 3.67068 6.04287 3.70902C6.00213 3.74991 5.96139 3.7908 5.91941 3.83294C5.87618 3.87596 5.83295 3.91899 5.78841 3.96332C5.6699 4.08128 5.55169 4.19953 5.43353 4.31783C5.30962 4.44182 5.18546 4.56555 5.06133 4.68933C4.85275 4.89738 4.64435 5.10562 4.43607 5.31397C4.19581 5.5543 3.95532 5.79439 3.71468 6.03434C3.45798 6.29031 3.20145 6.54646 2.94498 6.80266C2.87136 6.87618 2.79771 6.94967 2.72405 7.02314C2.58621 7.16067 2.44856 7.29839 2.31094 7.43613C2.27039 7.47655 2.22984 7.51697 2.18806 7.55862C2.02201 7.72508 1.8602 7.89117 1.70977 8.0719C1.67076 8.11642 1.63175 8.16094 1.59156 8.20681C1.56079 8.20681 1.53002 8.20681 1.49831 8.20681C1.49831 8.23749 1.49831 8.26818 1.49831 8.2998C1.46754 8.2998 1.43677 8.2998 1.40507 8.2998C1.39329 8.32659 1.38151 8.35338 1.36937 8.38098C1.22314 8.64727 0.950157 8.90652 0.659118 8.99723C0.440361 9.01062 0.319556 8.97838 0.14919 8.8374C0.0326014 8.69294 -0.00529666 8.62167 0.000581885 8.43928C0.0285502 8.23951 0.09335 8.14145 0.230905 7.99529C0.269019 7.95465 0.307134 7.91402 0.346404 7.87216C0.574023 7.63719 0.804032 7.40489 1.0359 7.17411C1.09132 7.11877 1.14673 7.06343 1.20213 7.00807C1.35122 6.85919 1.50044 6.71045 1.6497 6.56174C1.80632 6.40567 1.96282 6.24948 2.11935 6.09331C2.38175 5.83153 2.64425 5.56986 2.90681 5.30824C3.21037 5.00575 3.51377 4.7031 3.81707 4.40036C4.078 4.13994 4.33902 3.8796 4.60011 3.61934C4.75585 3.46409 4.91156 3.30881 5.06719 3.15346C5.21319 3.00772 5.35931 2.86209 5.50551 2.71656C5.55917 2.6631 5.61279 2.60961 5.66637 2.55607C5.73938 2.48313 5.81254 2.41034 5.88573 2.33757C5.92666 2.29678 5.96758 2.25598 6.00975 2.21394C6.17885 2.05481 6.30168 1.98979 6.53349 1.97645C6.87126 2.07504 7.07417 2.30467 7.31631 2.55005C7.36133 2.595 7.40639 2.63991 7.45149 2.68479C7.57326 2.80617 7.69445 2.92812 7.81554 3.05018C7.94239 3.17785 8.06976 3.30498 8.19708 3.43218C8.43786 3.67288 8.67815 3.91404 8.91828 4.15538C9.19178 4.43022 9.46582 4.70453 9.73989 4.9788C10.3035 5.54277 10.8663 6.1074 11.4288 6.67247C11.6032 6.5999 11.7138 6.4927 11.8466 6.36001C11.8692 6.33752 11.8918 6.31504 11.9151 6.29188C11.9908 6.21656 12.0661 6.14092 12.1415 6.06528C12.1957 6.0112 12.2499 5.95713 12.3042 5.90308C12.4513 5.75632 12.5982 5.60928 12.7451 5.46218C12.8986 5.30849 13.0524 5.15507 13.2062 5.00162C13.4973 4.711 13.7882 4.42015 14.0789 4.12922C14.41 3.79801 14.7414 3.46706 15.0727 3.13613C15.7543 2.4554 16.4356 1.77433 17.1167 1.09305C17.0817 1.09298 17.0467 1.09291 17.0106 1.09284C16.68 1.09201 16.3494 1.09007 16.0188 1.0869C15.8488 1.08531 15.6789 1.08414 15.5089 1.08395C15.3447 1.08375 15.1806 1.08243 15.0165 1.08033C14.9237 1.07944 14.8308 1.0797 14.738 1.07998C14.2672 1.07242 14.2672 1.07242 14.0952 0.93407C13.9542 0.768466 13.928 0.666597 13.9296 0.447017C13.9592 0.273989 14.0555 0.190893 14.1795 0.0701514C14.3341 -0.00692472 14.5069 0.0159609 14.6769 0.0154265Z" fill="#069845"/>
</svg>
