<svg width="156" height="44" viewBox="0 0 156 44" fill="none" xmlns="http://www.w3.org/2000/svg">
<mask id="mask0_4013_313" style="mask-type:luminance" maskUnits="userSpaceOnUse" x="0" y="0" width="42" height="44">
<path d="M20.5609 3.93219C20.0178 3.93219 19.5777 3.49202 19.5777 2.94882C19.5777 2.4059 20.0178 1.96559 20.5609 1.96559C21.1039 1.96545 21.5443 2.4059 21.5443 2.94882C21.5443 3.49202 21.1039 3.93219 20.5609 3.93219ZM16.5484 19.6284C15.2688 21.8445 16.0282 24.6783 18.2444 25.9575C20.4605 27.2368 23.2943 26.4777 24.5735 24.2615C25.8532 22.0454 25.0937 19.2116 22.8775 17.9324C20.6614 16.6526 17.8276 17.4121 16.5484 19.6284ZM13.8611 19.1337C12.4605 22.4594 13.7221 26.3859 16.9286 28.2368C17.7664 28.7204 18.6606 29.0179 19.5633 29.1425C19.707 29.4344 19.776 29.7433 19.776 30.088V30.1365C19.776 30.8204 19.4938 31.4093 18.9604 31.8375C18.694 32.0513 18.4676 32.3237 18.3024 32.6475C17.6766 33.8735 18.1631 35.3749 19.3893 36.0008C20.6153 36.6267 22.1168 36.1399 22.7427 34.9139C23.3 33.8221 22.9705 32.5495 22.0833 31.8366C21.5506 31.4083 21.2685 30.8201 21.2686 30.1365V30.0878C21.2685 29.7471 21.3359 29.4409 21.4764 29.152C23.6497 28.8742 25.6729 27.6213 26.8528 25.5774C28.0179 23.5596 28.1044 21.2152 27.2921 19.2111C27.4731 18.94 27.7064 18.7255 28.0055 18.5529L28.0476 18.5286C28.6398 18.1865 29.2909 18.1366 29.9284 18.3845C30.2466 18.5081 30.5958 18.5681 30.9588 18.5494C32.3336 18.4783 33.3905 17.3061 33.3194 15.9314C33.2485 14.5563 32.0762 13.4995 30.7014 13.5705C29.4774 13.634 28.5399 14.5554 28.3661 15.6804C28.2614 16.3559 27.8932 16.8942 27.3012 17.2359L27.2591 17.2602C26.9646 17.4305 26.6665 17.5251 26.3468 17.548C25.7793 16.8008 25.0569 16.1517 24.1934 15.6532C23.3554 15.1694 22.4611 14.8715 21.5584 14.7469C21.4146 14.4551 21.3457 14.1463 21.3457 13.8017V13.7529C21.3456 13.0689 21.628 12.4803 22.1613 12.0521C22.4277 11.8382 22.6539 11.5659 22.8193 11.2421C23.4452 10.0161 22.9586 8.51463 21.7324 7.88873C20.5062 7.26275 19.0047 7.74955 18.3789 8.97578C17.8217 10.0675 18.151 11.3401 19.0383 12.0531C19.571 12.4814 19.8531 13.0695 19.8531 13.753V13.8017C19.8531 14.1427 19.7857 14.4488 19.6451 14.7379C17.7842 14.9759 16.0332 15.9294 14.8277 17.4822C14.5025 17.461 14.2001 17.3663 13.901 17.1935L13.859 17.1692C13.2667 16.8273 12.8978 16.2885 12.7937 15.6126C12.7418 15.275 12.619 14.9427 12.4213 14.6377C11.6724 13.4826 10.1289 13.1535 8.97371 13.9023C7.81839 14.6512 7.48924 16.1949 8.23823 17.3499C8.90495 18.3784 10.1718 18.7295 11.2331 18.3176C11.8701 18.0703 12.5207 18.12 13.1126 18.4619L13.1547 18.4864C13.45 18.6564 13.681 18.8677 13.8611 19.1337ZM33.2881 30.8732C30.2571 35.2572 26.197 38.8386 21.4404 41.3116L20.5332 41.7832L19.6259 41.3116C15.4734 39.1523 11.8515 36.1484 8.98183 32.5034C8.67689 32.8138 8.32517 33.0888 7.92991 33.317C7.74633 33.423 7.55829 33.516 7.36781 33.5959C10.3789 37.4628 14.2206 40.7176 18.7187 43.0565L20.5331 44L22.3476 43.0565C27.4142 40.422 31.7357 36.6004 34.9536 31.9224C36.3756 32.2432 37.8183 31.477 38.3493 30.1194C38.8719 28.7831 38.3564 27.2682 37.136 26.526C37.1166 26.5143 37.097 26.5026 37.0773 26.4911C35.728 25.7122 33.8694 26.1586 33.0532 27.5632C32.448 28.6169 32.5336 29.9177 33.2881 30.8732ZM36.4544 29.5367C36.1828 30.007 35.5814 30.1682 35.1111 29.8966C34.6405 29.6249 34.4797 29.0235 34.7512 28.5534C35.0224 28.0839 35.6246 27.9223 36.0945 28.1934C36.5647 28.4649 36.7258 29.0663 36.4544 29.5367ZM2.90651 9.0939C6.84775 6.56665 11.2431 4.93704 15.8268 4.27262C15.7093 3.85142 15.6464 3.40752 15.6464 2.94889C15.6464 2.73096 15.6606 2.51634 15.6879 2.30581C10.7762 2.99696 6.0642 4.73291 1.84496 7.43836L0.136103 8.53418L0.0393145 10.5621C-0.236526 16.3401 0.947383 21.9805 3.3318 27.0318C2.324 28.0952 2.24956 29.7371 3.15698 30.8873C4.06433 32.0375 5.67835 32.3472 6.94712 31.6147C8.29607 30.8358 8.83611 29.0146 8.03855 27.6075C7.43528 26.5522 6.26445 25.9701 5.0592 26.1404C2.80052 21.3173 1.74904 16.003 2.00383 10.6558L2.05219 9.64199L2.90651 9.0939ZM4.98102 28.2093C5.45101 27.938 6.05284 28.0998 6.3243 28.5692C6.59561 29.0392 6.43481 29.6409 5.96439 29.9125C5.49175 30.1853 4.89142 30.0204 4.62112 29.5526C4.35095 29.0847 4.50852 28.4821 4.98102 28.2093ZM17.612 2.94882C17.612 4.57756 18.9322 5.89777 20.5608 5.89777C21.8019 5.89777 22.864 5.13104 23.2991 4.0455C28.5759 4.48344 33.6587 6.18619 38.1543 9.05503L39.011 9.60176L39.0606 10.6169C39.2894 15.2993 38.5173 19.9547 36.8094 24.2798C37.2377 24.3884 37.6583 24.5571 38.06 24.7889C38.2445 24.8955 38.4195 25.0123 38.5847 25.138C40.4323 20.5154 41.2698 15.5326 41.0249 10.521L40.9258 8.49063L39.2122 7.39704C34.4231 4.34124 29.0032 2.53236 23.3792 2.0789C23.0082 0.874945 21.8867 0 20.561 0C18.9322 0 17.612 1.32014 17.612 2.94882Z" fill="white"/>
</mask>
<g mask="url(#mask0_4013_313)">
<path d="M41.27 0H-0.236328V44H41.27V0Z" fill="#3C72FC"/>
</g>
<path d="M147.445 36.5H141.84V16.9688H146.723L146.918 20.3477C147.569 19.1628 148.454 18.2383 149.574 17.5742C150.694 16.9102 151.977 16.5781 153.422 16.5781C153.839 16.5781 154.255 16.6107 154.672 16.6758C155.102 16.7279 155.538 16.8125 155.98 16.9297L155.277 21.9688C154.418 21.7214 153.604 21.5977 152.836 21.5977C151.755 21.5977 150.805 21.8451 149.984 22.3398C149.177 22.8216 148.552 23.4987 148.109 24.3711C147.667 25.2305 147.445 26.2396 147.445 27.3984V36.5Z" fill="white"/>
<path d="M137.074 36.5H132.523L132.328 33.375C131.638 34.5208 130.72 35.3932 129.574 35.9922C128.441 36.5911 127.113 36.8906 125.59 36.8906C123.09 36.8906 121.13 36.1224 119.711 34.5859C118.292 33.0495 117.582 30.9401 117.582 28.2578V16.9688H123.188V26.9688C123.188 28.4922 123.546 29.6901 124.262 30.5625C124.991 31.4219 125.98 31.8516 127.23 31.8516C128.533 31.8516 129.561 31.4023 130.316 30.5039C131.085 29.5924 131.469 28.362 131.469 26.8125V16.9688H137.074V36.5Z" fill="white"/>
<path d="M114.535 33.3945C113.585 34.4883 112.419 35.3477 111.039 35.9727C109.659 36.5846 108.142 36.8906 106.488 36.8906C104.483 36.8906 102.686 36.4544 101.098 35.582C99.5221 34.6966 98.2786 33.4857 97.3672 31.9492C96.4688 30.4128 96.0195 28.6745 96.0195 26.7344C96.0195 24.7812 96.4688 23.043 97.3672 21.5195C98.2786 19.9831 99.5221 18.7786 101.098 17.9062C102.686 17.0208 104.483 16.5781 106.488 16.5781C108.129 16.5781 109.639 16.8841 111.02 17.4961C112.4 18.1081 113.565 18.9544 114.516 20.0352L111.215 23.4922C110.707 22.9062 110.062 22.4505 109.281 22.125C108.513 21.7865 107.706 21.6172 106.859 21.6172C105.883 21.6172 105.01 21.8385 104.242 22.2812C103.474 22.7109 102.868 23.3099 102.426 24.0781C101.983 24.8333 101.762 25.7057 101.762 26.6953C101.762 27.6979 101.983 28.5898 102.426 29.3711C102.868 30.1523 103.474 30.7643 104.242 31.207C105.01 31.6367 105.883 31.8516 106.859 31.8516C107.706 31.8516 108.52 31.6888 109.301 31.3633C110.082 31.0247 110.72 30.5625 111.215 29.9766L114.535 33.3945Z" fill="white"/>
<path d="M92.4453 34.3125C90.0234 36.0312 87.3737 36.8906 84.4961 36.8906C82.3607 36.8906 80.4401 36.4349 78.7344 35.5234C77.0417 34.599 75.7005 33.349 74.7109 31.7734C73.7344 30.1979 73.2461 28.4206 73.2461 26.4414C73.2461 24.5534 73.6888 22.8672 74.5742 21.3828C75.4727 19.8984 76.6901 18.7266 78.2266 17.8672C79.763 17.0078 81.5078 16.5781 83.4609 16.5781C85.4792 16.5781 87.2565 17.0534 88.793 18.0039C90.3294 18.9414 91.5273 20.2565 92.3867 21.9492C93.2461 23.6289 93.6758 25.5755 93.6758 27.7891V28.4141H79.2812C79.5156 29.1823 79.8932 29.8594 80.4141 30.4453C80.9479 31.0182 81.612 31.474 82.4062 31.8125C83.2135 32.151 84.1315 32.3203 85.1602 32.3203C87.1523 32.3203 89.0078 31.6758 90.7266 30.3867L92.4453 34.3125ZM79.0273 25.5625H88.5C88.3958 24.7161 88.1289 23.974 87.6992 23.3359C87.2826 22.6849 86.7292 22.1771 86.0391 21.8125C85.362 21.4479 84.6003 21.2656 83.7539 21.2656C82.8945 21.2656 82.1263 21.4544 81.4492 21.832C80.7852 22.2096 80.2448 22.7174 79.8281 23.3555C79.4115 23.9935 79.1445 24.7292 79.0273 25.5625Z" fill="white"/>
<path d="M49.0664 33.3359L51.918 28.7461C52.8164 29.4753 53.6823 30.0742 54.5156 30.543C55.362 30.9987 56.1953 31.3372 57.0156 31.5586C57.8359 31.7669 58.6758 31.8711 59.5352 31.8711C60.5508 31.8711 61.4297 31.7279 62.1719 31.4414C62.9141 31.1549 63.487 30.7448 63.8906 30.2109C64.3073 29.6771 64.5156 29.0586 64.5156 28.3555C64.5156 27.5352 64.2552 26.8451 63.7344 26.2852C63.2135 25.7253 62.5299 25.237 61.6836 24.8203C60.8503 24.3906 59.9453 23.9805 58.9688 23.5898C58.0182 23.1992 57.0612 22.776 56.0977 22.3203C55.1471 21.8516 54.2682 21.2982 53.4609 20.6602C52.6667 20.0221 52.0221 19.2474 51.5273 18.3359C51.0456 17.4115 50.8047 16.2917 50.8047 14.9766C50.8047 13.2578 51.2344 11.7734 52.0938 10.5234C52.9661 9.27344 54.1576 8.3099 55.668 7.63281C57.1784 6.95573 58.9036 6.61719 60.8438 6.61719C62.2109 6.61719 63.6302 6.79948 65.1016 7.16406C66.5859 7.52865 68.0638 8.08203 69.5352 8.82422L67.1719 13.6875C66.2474 13.1276 65.2513 12.6849 64.1836 12.3594C63.1159 12.0339 62.1133 11.8711 61.1758 11.8711C60.3294 11.8711 59.5872 12.0013 58.9492 12.2617C58.3242 12.5221 57.8359 12.8867 57.4844 13.3555C57.1328 13.8112 56.957 14.3516 56.957 14.9766C56.957 15.7188 57.2109 16.3633 57.7188 16.9102C58.2266 17.444 58.8841 17.9193 59.6914 18.3359C60.5117 18.7526 61.3906 19.1693 62.3281 19.5859C63.2917 20.0026 64.2617 20.4583 65.2383 20.9531C66.2279 21.4479 67.1263 22.0339 67.9336 22.7109C68.7539 23.375 69.4115 24.1758 69.9062 25.1133C70.4141 26.0378 70.668 27.151 70.668 28.4531C70.668 30.1719 70.2122 31.6823 69.3008 32.9844C68.3893 34.2734 67.1198 35.2826 65.4922 36.0117C63.8646 36.7279 61.9701 37.0859 59.8086 37.0859C57.8294 37.0859 55.9349 36.7669 54.125 36.1289C52.3151 35.4909 50.6289 34.5599 49.0664 33.3359Z" fill="white"/>
</svg>
