<svg xmlns="http://www.w3.org/2000/svg" viewBox="0 0 350 80" width="350" height="80">
  <defs>
    <linearGradient id="cyberGrad" x1="0%" y1="0%" x2="100%" y2="100%">
      <stop offset="0%" style="stop-color:#3b82f6;stop-opacity:1" />
      <stop offset="100%" style="stop-color:#9333ea;stop-opacity:1" />
    </linearGradient>
  </defs>
  <!-- Cyber Shield / Node Icon -->
  <path d="M 25 15 L 60 25 L 60 55 L 25 65 Z" fill="url(#cyberGrad)" opacity="0.9" />
  <path d="M 60 25 L 75 40 L 60 55 Z" fill="#60a5fa" opacity="0.7" />
  <circle cx="25" cy="15" r="4" fill="#ffffff" />
  <circle cx="60" cy="25" r="4" fill="#ffffff" />
  <circle cx="60" cy="55" r="4" fill="#ffffff" />
  <circle cx="25" cy="65" r="4" fill="#ffffff" />
  <circle cx="75" cy="40" r="4" fill="#ffffff" />
  <path d="M 25 15 L 60 25 M 60 25 L 75 40 M 75 40 L 60 55 M 60 55 L 25 65 M 25 65 L 25 15 M 60 25 L 60 55" stroke="#ffffff" stroke-width="1.5" opacity="0.3" fill="none" />
  
  <!-- Typography -->
  <text x="95" y="48" font-family="'Space Grotesk', 'Inter', sans-serif" font-weight="700" font-size="28" fill="#ffffff">advert<tspan fill="#3b82f6">resources</tspan></text>
</svg>
